<ttFont>
    <TTGlyph name=".notdef" xMin="-18" yMin="-49" xMax="626" yMax="755">
      <contour>
        <pt x="60" y="100" on="0"/>
        <pt x="31" y="135" on="0"/>
        <pt x="31" y="157" on="1"/>
        <pt x="31" y="180" on="0"/>
        <pt x="58" y="208" on="0"/>
        <pt x="88" y="229" on="1"/>
        <pt x="105" y="241" on="1"/>
        <pt x="108" y="252" on="1"/>
        <pt x="71" y="252" on="0"/>
        <pt x="16" y="275" on="0"/>
        <pt x="16" y="305" on="1"/>
        <pt x="16" y="349" on="0"/>
        <pt x="89" y="402" on="0"/>
        <pt x="147" y="426" on="1"/>
        <pt x="163" y="443" on="0"/>
        <pt x="189" y="443" on="1"/>
        <pt x="213" y="451" on="0"/>
        <pt x="225" y="456" on="1"/>
        <pt x="290" y="477" on="0"/>
        <pt x="324" y="493" on="1"/>
        <pt x="243" y="473" on="0"/>
        <pt x="120" y="433" on="0"/>
        <pt x="66" y="406" on="1"/>
        <pt x="46" y="396" on="0"/>
        <pt x="28" y="396" on="1"/>
        <pt x="6" y="396" on="0"/>
        <pt x="-18" y="424" on="0"/>
        <pt x="-18" y="445" on="1"/>
        <pt x="-18" y="479" on="0"/>
        <pt x="26" y="526" on="1"/>
        <pt x="56" y="558" on="0"/>
        <pt x="120" y="609" on="1"/>
        <pt x="133" y="620" on="0"/>
        <pt x="165" y="647" on="0"/>
        <pt x="183" y="663" on="1"/>
        <pt x="223" y="700" on="0"/>
        <pt x="249" y="728" on="1"/>
        <pt x="263" y="742" on="0"/>
        <pt x="284" y="755" on="0"/>
        <pt x="301" y="755" on="1"/>
        <pt x="320" y="755" on="0"/>
        <pt x="345" y="728" on="0"/>
        <pt x="345" y="707" on="1"/>
        <pt x="345" y="677" on="0"/>
        <pt x="283" y="614" on="0"/>
        <pt x="229" y="571" on="1"/>
        <pt x="321" y="595" on="1"/>
        <pt x="335" y="598" on="0"/>
        <pt x="377" y="608" on="0"/>
        <pt x="405" y="616" on="1"/>
        <pt x="437" y="629" on="0"/>
        <pt x="522" y="652" on="0"/>
        <pt x="551" y="652" on="1"/>
        <pt x="581" y="652" on="0"/>
        <pt x="611" y="624" on="0"/>
        <pt x="611" y="602" on="1"/>
        <pt x="611" y="554" on="0"/>
        <pt x="533" y="512" on="1"/>
        <pt x="512" y="496" on="0"/>
        <pt x="470" y="466" on="1"/>
        <pt x="485" y="460" on="0"/>
        <pt x="503" y="438" on="0"/>
        <pt x="503" y="421" on="1"/>
        <pt x="503" y="397" on="0"/>
        <pt x="483" y="377" on="1"/>
        <pt x="514" y="329" on="0"/>
        <pt x="530" y="269" on="1"/>
        <pt x="552" y="253" on="0"/>
        <pt x="552" y="228" on="1"/>
        <pt x="552" y="216" on="0"/>
        <pt x="546" y="202" on="1"/>
        <pt x="551" y="170" on="0"/>
        <pt x="551" y="146" on="1"/>
        <pt x="557" y="147" on="0"/>
        <pt x="568" y="147" on="1"/>
        <pt x="596" y="147" on="0"/>
        <pt x="626" y="118" on="0"/>
        <pt x="626" y="97" on="1"/>
        <pt x="626" y="71" on="0"/>
        <pt x="586" y="44" on="0"/>
        <pt x="534" y="32" on="1"/>
        <pt x="534" y="4" on="0"/>
        <pt x="504" y="-31" on="0"/>
        <pt x="482" y="-31" on="1"/>
        <pt x="466" y="-31" on="0"/>
        <pt x="440" y="-10" on="0"/>
        <pt x="435" y="8" on="1"/>
        <pt x="394" y="-1" on="0"/>
        <pt x="350" y="-20" on="1"/>
        <pt x="339" y="-35" on="0"/>
        <pt x="311" y="-49" on="0"/>
        <pt x="298" y="-49" on="1"/>
        <pt x="276" y="-49" on="0"/>
        <pt x="253" y="-19" on="0"/>
        <pt x="253" y="6" on="1"/>
        <pt x="217" y="6" on="0"/>
        <pt x="170" y="11" on="0"/>
        <pt x="150" y="19" on="1"/>
        <pt x="141" y="16" on="0"/>
        <pt x="133" y="16" on="1"/>
        <pt x="111" y="16" on="0"/>
        <pt x="81" y="47" on="0"/>
        <pt x="81" y="79" on="1"/>
        <pt x="81" y="90" on="0"/>
        <pt x="82" y="96" on="1"/>
      </contour>
      <contour>
        <pt x="358" y="262" on="0"/>
        <pt x="421" y="274" on="1"/>
        <pt x="413" y="301" on="0"/>
        <pt x="401" y="321" on="1"/>
        <pt x="346" y="290" on="0"/>
        <pt x="314" y="247" on="1"/>
      </contour>
    </TTGlyph>
    <TTGlyph name="A" xMin="12" yMin="-42" xMax="633" yMax="722">
      <contour>
        <pt x="569" y="-42" on="0"/>
        <pt x="545" y="-25" on="0"/>
        <pt x="540" y="-8" on="1"/>
        <pt x="497" y="148" on="1"/>
        <pt x="478" y="219" on="1"/>
        <pt x="307" y="211" on="0"/>
        <pt x="168" y="196" on="1"/>
        <pt x="137" y="105" on="0"/>
        <pt x="112" y="21" on="1"/>
        <pt x="106" y="1" on="0"/>
        <pt x="76" y="-21" on="0"/>
        <pt x="58" y="-21" on="1"/>
        <pt x="39" y="-21" on="0"/>
        <pt x="12" y="4" on="0"/>
        <pt x="12" y="25" on="1"/>
        <pt x="12" y="34" on="0"/>
        <pt x="15" y="46" on="1"/>
        <pt x="58" y="200" on="0"/>
        <pt x="189" y="515" on="0"/>
        <pt x="268" y="661" on="1"/>
        <pt x="278" y="692" on="0"/>
        <pt x="325" y="722" on="0"/>
        <pt x="351" y="722" on="1"/>
        <pt x="413" y="722" on="0"/>
        <pt x="433" y="660" on="1"/>
        <pt x="492" y="527" on="0"/>
        <pt x="538" y="374" on="1"/>
        <pt x="614" y="122" on="0"/>
        <pt x="632" y="18" on="1"/>
        <pt x="633" y="14" on="0"/>
        <pt x="633" y="7" on="1"/>
        <pt x="633" y="-15" on="0"/>
        <pt x="603" y="-42" on="0"/>
        <pt x="583" y="-42" on="1"/>
      </contour>
      <contour>
        <pt x="325" y="302" on="0"/>
        <pt x="453" y="308" on="1"/>
        <pt x="441" y="348" on="1"/>
        <pt x="397" y="497" on="0"/>
        <pt x="345" y="621" on="1"/>
        <pt x="261" y="441" on="0"/>
        <pt x="203" y="290" on="1"/>
      </contour>
    </TTGlyph>
    <TTGlyph name="AE" xMin="-31" yMin="-55" xMax="829" yMax="733">
      <contour>
        <pt x="-6" y="-55" on="0"/>
        <pt x="-31" y="-28" on="0"/>
        <pt x="-31" y="-9" on="1"/>
        <pt x="-31" y="5" on="0"/>
        <pt x="-23" y="19" on="1"/>
        <pt x="34" y="113" on="0"/>
        <pt x="230" y="458" on="0"/>
        <pt x="288" y="568" on="1"/>
        <pt x="317" y="623" on="0"/>
        <pt x="330" y="658" on="1"/>
        <pt x="338" y="679" on="0"/>
        <pt x="363" y="702" on="0"/>
        <pt x="382" y="708" on="1"/>
        <pt x="457" y="733" on="0"/>
        <pt x="558" y="733" on="1"/>
        <pt x="666" y="733" on="0"/>
        <pt x="745" y="718" on="1"/>
        <pt x="771" y="713" on="0"/>
        <pt x="799" y="685" on="0"/>
        <pt x="799" y="665" on="1"/>
        <pt x="799" y="644" on="0"/>
        <pt x="768" y="619" on="0"/>
        <pt x="736" y="623" on="1"/>
        <pt x="636" y="637" on="0"/>
        <pt x="533" y="637" on="1"/>
        <pt x="492" y="637" on="0"/>
        <pt x="463" y="632" on="1"/>
        <pt x="480" y="531" on="0"/>
        <pt x="489" y="412" on="1"/>
        <pt x="599" y="426" on="0"/>
        <pt x="663" y="426" on="1"/>
        <pt x="693" y="426" on="0"/>
        <pt x="723" y="399" on="0"/>
        <pt x="723" y="379" on="1"/>
        <pt x="723" y="358" on="0"/>
        <pt x="695" y="332" on="0"/>
        <pt x="669" y="331" on="1"/>
        <pt x="551" y="325" on="0"/>
        <pt x="495" y="319" on="1"/>
        <pt x="502" y="201" on="0"/>
        <pt x="502" y="80" on="1"/>
        <pt x="545" y="84" on="1"/>
        <pt x="600" y="90" on="0"/>
        <pt x="721" y="100" on="0"/>
        <pt x="775" y="101" on="1"/>
        <pt x="801" y="102" on="0"/>
        <pt x="829" y="74" on="0"/>
        <pt x="829" y="53" on="1"/>
        <pt x="829" y="31" on="0"/>
        <pt x="800" y="4" on="0"/>
        <pt x="775" y="3" on="1"/>
        <pt x="594" y="-7" on="0"/>
        <pt x="468" y="-17" on="1"/>
        <pt x="435" y="-20" on="0"/>
        <pt x="404" y="8" on="0"/>
        <pt x="404" y="39" on="1"/>
        <pt x="404" y="114" on="0"/>
        <pt x="403" y="153" on="1"/>
        <pt x="288" y="151" on="0"/>
        <pt x="164" y="142" on="1"/>
        <pt x="130" y="81" on="0"/>
        <pt x="68" y="-21" on="1"/>
        <pt x="58" y="-37" on="0"/>
        <pt x="30" y="-55" on="0"/>
        <pt x="14" y="-55" on="1"/>
      </contour>
      <contour>
        <pt x="313" y="245" on="0"/>
        <pt x="400" y="247" on="1"/>
        <pt x="395" y="419" on="0"/>
        <pt x="378" y="558" on="1"/>
        <pt x="302" y="394" on="0"/>
        <pt x="216" y="236" on="1"/>
      </contour>
    </TTGlyph>
    <TTGlyph name="AEacute" xMin="-31" yMin="-55" xMax="829" yMax="934">
      <component glyphName="AE" x="0" y="0" flags="0x400"/>
      <component glyphName="acutecomb.case" x="322" y="4" flags="0x404"/>
    </TTGlyph>
    <TTGlyph name="Aacute" xMin="21" yMin="-59" xMax="684" yMax="930">
      <component glyphName="Adieresis.comp" x="0" y="0" flags="0x400"/>
      <component glyphName="acutecomb.case" x="202" y="0" flags="0x400"/>
    </TTGlyph>
    <TTGlyph name="Abreve" xMin="12" yMin="-42" xMax="633" yMax="956">
      <component glyphName="A" x="0" y="0" flags="0x400"/>
      <component glyphName="uni0306.case" x="44" y="-10" flags="0x404"/>
    </TTGlyph>
    <TTGlyph name="Acircumflex" xMin="12" yMin="-42" xMax="633" yMax="939">
      <component glyphName="A" x="0" y="0" flags="0x400"/>
      <component glyphName="uni0302.case" x="203" y="15" flags="0x404"/>
    </TTGlyph>
    <TTGlyph name="Adieresis" xMin="21" yMin="-59" xMax="684" yMax="922">
      <component glyphName="Adieresis.comp" x="0" y="0" flags="0x400"/>
      <component glyphName="uni0308.case" x="7" y="-30" flags="0x404"/>
    </TTGlyph>
    <TTGlyph name="Adieresis.comp" xMin="21" yMin="-59" xMax="684" yMax="722">
      <contour>
        <pt x="48" y="-59" on="0"/>
        <pt x="21" y="-34" on="0"/>
        <pt x="21" y="-13" on="1"/>
        <pt x="21" y="-4" on="0"/>
        <pt x="24" y="8" on="1"/>
        <pt x="72" y="176" on="0"/>
        <pt x="207" y="512" on="0"/>
        <pt x="288" y="661" on="1"/>
        <pt x="298" y="692" on="0"/>
        <pt x="345" y="722" on="0"/>
        <pt x="371" y="722" on="1"/>
        <pt x="433" y="722" on="0"/>
        <pt x="453" y="660" on="1"/>
        <pt x="477" y="611" on="0"/>
        <pt x="525" y="477" on="0"/>
        <pt x="566" y="353" on="1"/>
        <pt x="600" y="254" on="0"/>
        <pt x="651" y="117" on="0"/>
        <pt x="677" y="67" on="1"/>
        <pt x="684" y="53" on="0"/>
        <pt x="684" y="39" on="1"/>
        <pt x="684" y="19" on="0"/>
        <pt x="656" y="-8" on="0"/>
        <pt x="637" y="-8" on="1"/>
        <pt x="604" y="-8" on="0"/>
        <pt x="585" y="25" on="1"/>
        <pt x="542" y="98" on="0"/>
        <pt x="499" y="229" on="1"/>
        <pt x="325" y="240" on="0"/>
        <pt x="206" y="242" on="1"/>
        <pt x="153" y="94" on="0"/>
        <pt x="121" y="-17" on="1"/>
        <pt x="115" y="-37" on="0"/>
        <pt x="85" y="-59" on="0"/>
        <pt x="67" y="-59" on="1"/>
      </contour>
      <contour>
        <pt x="334" y="330" on="0"/>
        <pt x="469" y="321" on="1"/>
        <pt x="451" y="377" on="1"/>
        <pt x="400" y="537" on="0"/>
        <pt x="365" y="621" on="1"/>
        <pt x="299" y="483" on="0"/>
        <pt x="240" y="331" on="1"/>
      </contour>
    </TTGlyph>
    <TTGlyph name="Agrave" xMin="12" yMin="-42" xMax="633" yMax="917">
      <component glyphName="A" x="0" y="0" flags="0x400"/>
      <component glyphName="gravecomb.case" x="197" y="0" flags="0x400"/>
    </TTGlyph>
    <TTGlyph name="Alpha" xMin="12" yMin="-42" xMax="633" yMax="722">
      <component glyphName="A" x="0" y="0" flags="0x400"/>
    </TTGlyph>
    <TTGlyph name="Alphatonos" xMin="31" yMin="-42" xMax="697" yMax="722">
      <component glyphName="tonos" x="0" y="0" flags="0x400"/>
      <component glyphName="A" x="64" y="0" flags="0x400"/>
    </TTGlyph>
    <TTGlyph name="Amacron" xMin="12" yMin="-42" xMax="633" yMax="876">
      <component glyphName="A" x="0" y="0" flags="0x400"/>
      <component glyphName="uni0304.case" x="104" y="6" flags="0x404"/>
    </TTGlyph>
    <TTGlyph name="Aogonek" xMin="12" yMin="-302" xMax="694" yMax="722">
      <contour>
        <pt x="12" y="34" on="0"/>
        <pt x="15" y="46" on="1"/>
        <pt x="58" y="200" on="0"/>
        <pt x="189" y="515" on="0"/>
        <pt x="268" y="661" on="1"/>
        <pt x="278" y="692" on="0"/>
        <pt x="325" y="722" on="0"/>
        <pt x="351" y="722" on="1"/>
        <pt x="413" y="722" on="0"/>
        <pt x="433" y="660" on="1"/>
        <pt x="492" y="527" on="0"/>
        <pt x="538" y="374" on="1"/>
        <pt x="614" y="122" on="0"/>
        <pt x="632" y="18" on="1"/>
        <pt x="633" y="14" on="0"/>
        <pt x="633" y="6" on="1"/>
        <pt x="633" y="-10" on="0"/>
        <pt x="615" y="-34" on="0"/>
        <pt x="601" y="-39" on="1"/>
        <pt x="570" y="-78" on="0"/>
        <pt x="537" y="-140" on="0"/>
        <pt x="537" y="-169" on="1"/>
        <pt x="537" y="-206" on="0"/>
        <pt x="576" y="-206" on="1"/>
        <pt x="598" y="-206" on="0"/>
        <pt x="642" y="-192" on="1"/>
        <pt x="653" y="-189" on="0"/>
        <pt x="660" y="-189" on="1"/>
        <pt x="676" y="-189" on="0"/>
        <pt x="694" y="-209" on="0"/>
        <pt x="694" y="-224" on="1"/>
        <pt x="694" y="-251" on="0"/>
        <pt x="668" y="-270" on="1"/>
        <pt x="647" y="-285" on="0"/>
        <pt x="590" y="-302" on="0"/>
        <pt x="560" y="-302" on="1"/>
        <pt x="505" y="-302" on="0"/>
        <pt x="429" y="-243" on="0"/>
        <pt x="429" y="-185" on="1"/>
        <pt x="429" y="-135" on="0"/>
        <pt x="487" y="-37" on="0"/>
        <pt x="535" y="8" on="1"/>
        <pt x="478" y="219" on="1"/>
        <pt x="307" y="211" on="0"/>
        <pt x="168" y="196" on="1"/>
        <pt x="137" y="105" on="0"/>
        <pt x="112" y="21" on="1"/>
        <pt x="106" y="1" on="0"/>
        <pt x="76" y="-21" on="0"/>
        <pt x="58" y="-21" on="1"/>
        <pt x="39" y="-21" on="0"/>
        <pt x="12" y="4" on="0"/>
        <pt x="12" y="25" on="1"/>
      </contour>
      <contour>
        <pt x="325" y="302" on="0"/>
        <pt x="453" y="308" on="1"/>
        <pt x="441" y="348" on="1"/>
        <pt x="397" y="497" on="0"/>
        <pt x="345" y="621" on="1"/>
        <pt x="261" y="441" on="0"/>
        <pt x="203" y="290" on="1"/>
      </contour>
    </TTGlyph>
    <TTGlyph name="Aring" xMin="13" yMin="-42" xMax="634" yMax="1011">
      <component glyphName="A" x="1" y="0" flags="0x400"/>
      <component glyphName="uni030A.case" x="55" y="10" flags="0x404"/>
    </TTGlyph>
    <TTGlyph name="Aringacute" xMin="13" yMin="-42" xMax="634" yMax="1026">
      <contour>
        <pt x="570" y="-42" on="0"/>
        <pt x="546" y="-25" on="0"/>
        <pt x="541" y="-8" on="1"/>
        <pt x="498" y="148" on="1"/>
        <pt x="479" y="219" on="1"/>
        <pt x="308" y="211" on="0"/>
        <pt x="169" y="196" on="1"/>
        <pt x="138" y="105" on="0"/>
        <pt x="113" y="21" on="1"/>
        <pt x="107" y="1" on="0"/>
        <pt x="77" y="-21" on="0"/>
        <pt x="59" y="-21" on="1"/>
        <pt x="40" y="-21" on="0"/>
        <pt x="13" y="4" on="0"/>
        <pt x="13" y="25" on="1"/>
        <pt x="13" y="34" on="0"/>
        <pt x="16" y="46" on="1"/>
        <pt x="59" y="200" on="0"/>
        <pt x="190" y="515" on="0"/>
        <pt x="269" y="661" on="1"/>
        <pt x="271" y="665" on="1"/>
        <pt x="242" y="681" on="0"/>
        <pt x="212" y="736" on="0"/>
        <pt x="212" y="770" on="1"/>
        <pt x="212" y="820" on="0"/>
        <pt x="275" y="897" on="0"/>
        <pt x="326" y="908" on="1"/>
        <pt x="336" y="918" on="0"/>
        <pt x="352" y="925" on="1"/>
        <pt x="385" y="940" on="0"/>
        <pt x="468" y="990" on="0"/>
        <pt x="501" y="1013" on="1"/>
        <pt x="520" y="1026" on="0"/>
        <pt x="537" y="1026" on="1"/>
        <pt x="556" y="1026" on="0"/>
        <pt x="582" y="998" on="0"/>
        <pt x="582" y="976" on="1"/>
        <pt x="582" y="952" on="0"/>
        <pt x="558" y="932" on="1"/>
        <pt x="523" y="904" on="0"/>
        <pt x="466" y="876" on="1"/>
        <pt x="503" y="840" on="0"/>
        <pt x="503" y="784" on="1"/>
        <pt x="503" y="744" on="0"/>
        <pt x="465" y="683" on="0"/>
        <pt x="432" y="665" on="1"/>
        <pt x="433" y="664" on="0"/>
        <pt x="433" y="661" on="0"/>
        <pt x="434" y="660" on="1"/>
        <pt x="493" y="527" on="0"/>
        <pt x="539" y="374" on="1"/>
        <pt x="615" y="122" on="0"/>
        <pt x="633" y="18" on="1"/>
        <pt x="634" y="14" on="0"/>
        <pt x="634" y="7" on="1"/>
        <pt x="634" y="-15" on="0"/>
        <pt x="604" y="-42" on="0"/>
        <pt x="584" y="-42" on="1"/>
      </contour>
      <contour>
        <pt x="326" y="302" on="0"/>
        <pt x="454" y="308" on="1"/>
        <pt x="442" y="348" on="1"/>
        <pt x="398" y="497" on="0"/>
        <pt x="346" y="621" on="1"/>
        <pt x="262" y="441" on="0"/>
        <pt x="204" y="290" on="1"/>
      </contour>
      <contour>
        <pt x="304" y="754" on="0"/>
        <pt x="328" y="732" on="0"/>
        <pt x="351" y="732" on="1"/>
        <pt x="376" y="732" on="0"/>
        <pt x="411" y="759" on="0"/>
        <pt x="411" y="785" on="1"/>
        <pt x="411" y="805" on="0"/>
        <pt x="383" y="826" on="0"/>
        <pt x="361" y="826" on="1"/>
        <pt x="333" y="826" on="0"/>
        <pt x="304" y="794" on="0"/>
        <pt x="304" y="774" on="1"/>
      </contour>
    </TTGlyph>
    <TTGlyph name="Atilde" xMin="12" yMin="-42" xMax="633" yMax="922">
      <component glyphName="A" x="0" y="0" flags="0x400"/>
      <component glyphName="tildecomb.case" x="221" y="10" flags="0x404"/>
    </TTGlyph>
    <TTGlyph name="B" xMin="38" yMin="-32" xMax="619" yMax="747">
      <contour>
        <pt x="296" y="-32" on="0"/>
        <pt x="205" y="-3" on="0"/>
        <pt x="178" y="20" on="1"/>
        <pt x="172" y="25" on="0"/>
        <pt x="169" y="30" on="1"/>
        <pt x="149" y="29" on="0"/>
        <pt x="121" y="56" on="0"/>
        <pt x="122" y="79" on="1"/>
        <pt x="143" y="400" on="0"/>
        <pt x="143" y="620" on="1"/>
        <pt x="117" y="613" on="0"/>
        <pt x="100" y="607" on="1"/>
        <pt x="83" y="602" on="0"/>
        <pt x="73" y="602" on="1"/>
        <pt x="56" y="602" on="0"/>
        <pt x="38" y="618" on="0"/>
        <pt x="38" y="631" on="1"/>
        <pt x="38" y="650" on="0"/>
        <pt x="55" y="664" on="1"/>
        <pt x="93" y="698" on="0"/>
        <pt x="259" y="747" on="0"/>
        <pt x="354" y="747" on="1"/>
        <pt x="456" y="747" on="0"/>
        <pt x="601" y="661" on="0"/>
        <pt x="601" y="571" on="1"/>
        <pt x="601" y="556" on="0"/>
        <pt x="600" y="548" on="1"/>
        <pt x="594" y="494" on="0"/>
        <pt x="507" y="422" on="0"/>
        <pt x="429" y="407" on="1"/>
        <pt x="520" y="380" on="0"/>
        <pt x="619" y="276" on="0"/>
        <pt x="619" y="203" on="1"/>
        <pt x="619" y="194" on="0"/>
        <pt x="617" y="172" on="1"/>
        <pt x="609" y="112" on="0"/>
        <pt x="529" y="19" on="0"/>
        <pt x="412" y="-32" on="0"/>
        <pt x="348" y="-32" on="1"/>
      </contour>
      <contour>
        <pt x="225" y="87" on="0"/>
        <pt x="227" y="86" on="1"/>
        <pt x="232" y="84" on="0"/>
        <pt x="292" y="60" on="0"/>
        <pt x="337" y="60" on="1"/>
        <pt x="376" y="60" on="0"/>
        <pt x="451" y="91" on="0"/>
        <pt x="502" y="149" on="0"/>
        <pt x="506" y="188" on="1"/>
        <pt x="507" y="195" on="0"/>
        <pt x="507" y="209" on="1"/>
        <pt x="507" y="265" on="0"/>
        <pt x="421" y="333" on="0"/>
        <pt x="321" y="358" on="1"/>
        <pt x="284" y="350" on="0"/>
        <pt x="263" y="350" on="1"/>
        <pt x="254" y="350" on="0"/>
        <pt x="242" y="352" on="1"/>
        <pt x="234" y="191" on="0"/>
        <pt x="222" y="87" on="1"/>
      </contour>
      <contour>
        <pt x="263" y="439" on="0"/>
        <pt x="291" y="442" on="1"/>
        <pt x="389" y="451" on="0"/>
        <pt x="493" y="514" on="0"/>
        <pt x="493" y="564" on="1"/>
        <pt x="493" y="611" on="0"/>
        <pt x="411" y="653" on="0"/>
        <pt x="335" y="653" on="1"/>
        <pt x="292" y="653" on="0"/>
        <pt x="246" y="645" on="1"/>
        <pt x="247" y="620" on="0"/>
        <pt x="247" y="567" on="1"/>
        <pt x="247" y="523" on="0"/>
        <pt x="245" y="433" on="1"/>
      </contour>
    </TTGlyph>
    <TTGlyph name="Beta" xMin="52" yMin="-32" xMax="570" yMax="747">
      <component glyphName="uni0412" x="0" y="0" flags="0x400"/>
    </TTGlyph>
    <TTGlyph name="C" xMin="34" yMin="-27" xMax="538" yMax="697">
      <contour>
        <pt x="34" y="405" on="0"/>
        <pt x="105" y="551" on="0"/>
        <pt x="166" y="601" on="1"/>
        <pt x="223" y="648" on="0"/>
        <pt x="362" y="697" on="0"/>
        <pt x="423" y="697" on="1"/>
        <pt x="451" y="697" on="0"/>
        <pt x="483" y="671" on="0"/>
        <pt x="483" y="653" on="1"/>
        <pt x="483" y="638" on="0"/>
        <pt x="460" y="613" on="0"/>
        <pt x="439" y="609" on="1"/>
        <pt x="302" y="579" on="0"/>
        <pt x="234" y="521" on="1"/>
        <pt x="192" y="485" on="0"/>
        <pt x="145" y="378" on="0"/>
        <pt x="145" y="314" on="1"/>
        <pt x="145" y="239" on="0"/>
        <pt x="215" y="127" on="0"/>
        <pt x="337" y="67" on="0"/>
        <pt x="412" y="67" on="1"/>
        <pt x="430" y="67" on="0"/>
        <pt x="492" y="72" on="1"/>
        <pt x="515" y="73" on="0"/>
        <pt x="538" y="56" on="0"/>
        <pt x="538" y="41" on="1"/>
        <pt x="538" y="28" on="0"/>
        <pt x="520" y="1" on="0"/>
        <pt x="503" y="-7" on="1"/>
        <pt x="463" y="-27" on="0"/>
        <pt x="404" y="-27" on="1"/>
        <pt x="305" y="-27" on="0"/>
        <pt x="136" y="57" on="0"/>
        <pt x="34" y="213" on="0"/>
        <pt x="34" y="317" on="1"/>
      </contour>
    </TTGlyph>
    <TTGlyph name="Cacute" xMin="34" yMin="-27" xMax="548" yMax="920">
      <component glyphName="C" x="0" y="0" flags="0x400"/>
      <component glyphName="acutecomb.case" x="188" y="-10" flags="0x404"/>
    </TTGlyph>
    <TTGlyph name="Ccaron" xMin="34" yMin="-27" xMax="564" yMax="986">
      <component glyphName="C" x="0" y="0" flags="0x400"/>
      <component glyphName="uni030C.case" x="213" y="75" flags="0x404"/>
    </TTGlyph>
    <TTGlyph name="Ccedilla" xMin="34" yMin="-247" xMax="538" yMax="697">
      <contour>
        <pt x="34" y="405" on="0"/>
        <pt x="105" y="551" on="0"/>
        <pt x="166" y="601" on="1"/>
        <pt x="223" y="648" on="0"/>
        <pt x="362" y="697" on="0"/>
        <pt x="423" y="697" on="1"/>
        <pt x="451" y="697" on="0"/>
        <pt x="483" y="671" on="0"/>
        <pt x="483" y="653" on="1"/>
        <pt x="483" y="638" on="0"/>
        <pt x="460" y="613" on="0"/>
        <pt x="439" y="609" on="1"/>
        <pt x="302" y="579" on="0"/>
        <pt x="234" y="521" on="1"/>
        <pt x="192" y="485" on="0"/>
        <pt x="145" y="378" on="0"/>
        <pt x="145" y="314" on="1"/>
        <pt x="145" y="239" on="0"/>
        <pt x="215" y="127" on="0"/>
        <pt x="337" y="67" on="0"/>
        <pt x="412" y="67" on="1"/>
        <pt x="430" y="67" on="0"/>
        <pt x="492" y="72" on="1"/>
        <pt x="515" y="73" on="0"/>
        <pt x="538" y="56" on="0"/>
        <pt x="538" y="41" on="1"/>
        <pt x="538" y="28" on="0"/>
        <pt x="520" y="1" on="0"/>
        <pt x="503" y="-7" on="1"/>
        <pt x="463" y="-27" on="0"/>
        <pt x="404" y="-27" on="1"/>
        <pt x="392" y="-27" on="0"/>
        <pt x="368" y="-25" on="1"/>
        <pt x="359" y="-55" on="1"/>
        <pt x="408" y="-56" on="0"/>
        <pt x="460" y="-100" on="0"/>
        <pt x="460" y="-139" on="1"/>
        <pt x="460" y="-189" on="0"/>
        <pt x="395" y="-247" on="0"/>
        <pt x="338" y="-247" on="1"/>
        <pt x="293" y="-247" on="0"/>
        <pt x="260" y="-233" on="1"/>
        <pt x="242" y="-225" on="0"/>
        <pt x="224" y="-205" on="0"/>
        <pt x="224" y="-191" on="1"/>
        <pt x="224" y="-177" on="0"/>
        <pt x="245" y="-158" on="0"/>
        <pt x="264" y="-158" on="1"/>
        <pt x="275" y="-158" on="0"/>
        <pt x="291" y="-161" on="1"/>
        <pt x="321" y="-165" on="0"/>
        <pt x="338" y="-165" on="1"/>
        <pt x="363" y="-165" on="0"/>
        <pt x="363" y="-146" on="1"/>
        <pt x="363" y="-137" on="0"/>
        <pt x="349" y="-127" on="0"/>
        <pt x="331" y="-126" on="1"/>
        <pt x="295" y="-124" on="0"/>
        <pt x="263" y="-102" on="0"/>
        <pt x="263" y="-75" on="1"/>
        <pt x="263" y="-48" on="0"/>
        <pt x="279" y="-9" on="1"/>
        <pt x="170" y="25" on="0"/>
        <pt x="34" y="196" on="0"/>
        <pt x="34" y="317" on="1"/>
      </contour>
    </TTGlyph>
    <TTGlyph name="Ccircumflex" xMin="34" yMin="-27" xMax="538" yMax="929">
      <component glyphName="C" x="0" y="0" flags="0x400"/>
      <component glyphName="uni0302.case" x="199" y="5" flags="0x404"/>
    </TTGlyph>
    <TTGlyph name="Cdotaccent" xMin="34" yMin="-27" xMax="538" yMax="914">
      <component glyphName="C" x="0" y="0" flags="0x400"/>
      <component glyphName="uni0307.case" x="-31" y="0" flags="0x400"/>
    </TTGlyph>
    <TTGlyph name="Chi" xMin="22" yMin="5" xMax="720" yMax="700">
      <component glyphName="X" x="0" y="0" flags="0x400"/>
    </TTGlyph>
    <TTGlyph name="D" xMin="36" yMin="-24" xMax="740" yMax="725">
      <contour>
        <pt x="303" y="628" on="0"/>
        <pt x="267" y="625" on="1"/>
        <pt x="261" y="520" on="0"/>
        <pt x="256" y="335" on="1"/>
        <pt x="256" y="299" on="1"/>
        <pt x="256" y="254" on="0"/>
        <pt x="258" y="202" on="1"/>
        <pt x="261" y="149" on="0"/>
        <pt x="259" y="117" on="1"/>
        <pt x="257" y="88" on="0"/>
        <pt x="247" y="73" on="1"/>
        <pt x="418" y="96" on="0"/>
        <pt x="614" y="238" on="0"/>
        <pt x="626" y="363" on="1"/>
        <pt x="628" y="387" on="0"/>
        <pt x="628" y="398" on="1"/>
        <pt x="628" y="511" on="0"/>
        <pt x="483" y="628" on="0"/>
        <pt x="341" y="628" on="1"/>
      </contour>
      <contour>
        <pt x="36" y="644" on="0"/>
        <pt x="57" y="669" on="0"/>
        <pt x="80" y="680" on="1"/>
        <pt x="119" y="700" on="0"/>
        <pt x="254" y="725" on="0"/>
        <pt x="333" y="725" on="1"/>
        <pt x="458" y="725" on="0"/>
        <pt x="642" y="645" on="0"/>
        <pt x="740" y="495" on="0"/>
        <pt x="740" y="394" on="1"/>
        <pt x="740" y="373" on="0"/>
        <pt x="739" y="362" on="1"/>
        <pt x="728" y="224" on="0"/>
        <pt x="538" y="51" on="0"/>
        <pt x="289" y="-24" on="0"/>
        <pt x="184" y="-24" on="1"/>
        <pt x="156" y="-24" on="0"/>
        <pt x="124" y="4" on="0"/>
        <pt x="124" y="25" on="1"/>
        <pt x="124" y="61" on="0"/>
        <pt x="173" y="65" on="1"/>
        <pt x="159" y="82" on="0"/>
        <pt x="158" y="116" on="1"/>
        <pt x="153" y="190" on="0"/>
        <pt x="153" y="305" on="1"/>
        <pt x="153" y="460" on="0"/>
        <pt x="163" y="610" on="1"/>
        <pt x="117" y="599" on="0"/>
        <pt x="98" y="593" on="1"/>
        <pt x="86" y="589" on="0"/>
        <pt x="74" y="589" on="1"/>
        <pt x="56" y="589" on="0"/>
        <pt x="36" y="611" on="0"/>
        <pt x="36" y="628" on="1"/>
      </contour>
    </TTGlyph>
    <TTGlyph name="Dcaron" xMin="36" yMin="-24" xMax="740" yMax="996">
      <component glyphName="D" x="0" y="0" flags="0x400"/>
      <component glyphName="uni030C.case" x="251" y="85" flags="0x404"/>
    </TTGlyph>
    <TTGlyph name="Dcroat" xMin="23" yMin="-24" xMax="731" yMax="725">
      <component glyphName="Eth" x="0" y="0" flags="0x400"/>
    </TTGlyph>
    <TTGlyph name="E" xMin="58" yMin="-8" xMax="529" yMax="743">
      <contour>
        <pt x="318" y="336" on="1"/>
        <pt x="266" y="336" on="0"/>
        <pt x="162" y="340" on="1"/>
        <pt x="160" y="244" on="0"/>
        <pt x="160" y="197" on="1"/>
        <pt x="160" y="157" on="0"/>
        <pt x="162" y="87" on="1"/>
        <pt x="342" y="96" on="0"/>
        <pt x="457" y="96" on="1"/>
        <pt x="486" y="96" on="0"/>
        <pt x="518" y="72" on="0"/>
        <pt x="518" y="50" on="1"/>
        <pt x="518" y="27" on="0"/>
        <pt x="486" y="-1" on="0"/>
        <pt x="458" y="-2" on="1"/>
        <pt x="346" y="-8" on="0"/>
        <pt x="134" y="-8" on="1"/>
        <pt x="89" y="-8" on="0"/>
        <pt x="60" y="36" on="0"/>
        <pt x="59" y="75" on="1"/>
        <pt x="58" y="107" on="0"/>
        <pt x="58" y="187" on="1"/>
        <pt x="58" y="459" on="0"/>
        <pt x="70" y="678" on="1"/>
        <pt x="74" y="743" on="0"/>
        <pt x="151" y="743" on="1"/>
        <pt x="395" y="743" on="0"/>
        <pt x="475" y="737" on="1"/>
        <pt x="499" y="735" on="0"/>
        <pt x="529" y="708" on="0"/>
        <pt x="529" y="687" on="1"/>
        <pt x="529" y="666" on="0"/>
        <pt x="502" y="641" on="0"/>
        <pt x="475" y="641" on="1"/>
        <pt x="417" y="641" on="0"/>
        <pt x="283" y="645" on="1"/>
        <pt x="171" y="648" on="1"/>
        <pt x="164" y="434" on="1"/>
        <pt x="215" y="434" on="1"/>
        <pt x="302" y="434" on="0"/>
        <pt x="362" y="431" on="1"/>
        <pt x="387" y="430" on="0"/>
        <pt x="416" y="405" on="0"/>
        <pt x="416" y="385" on="1"/>
        <pt x="416" y="364" on="0"/>
        <pt x="386" y="338" on="0"/>
        <pt x="362" y="337" on="1"/>
      </contour>
    </TTGlyph>
    <TTGlyph name="E.001" xMin="52" yMin="14" xMax="512" yMax="770">
      <contour>
        <pt x="304" y="343" on="1"/>
        <pt x="255" y="343" on="0"/>
        <pt x="155" y="347" on="1"/>
        <pt x="154" y="225" on="1"/>
        <pt x="154" y="183" on="0"/>
        <pt x="156" y="109" on="1"/>
        <pt x="336" y="118" on="0"/>
        <pt x="451" y="118" on="1"/>
        <pt x="480" y="118" on="0"/>
        <pt x="512" y="94" on="0"/>
        <pt x="512" y="72" on="1"/>
        <pt x="512" y="49" on="0"/>
        <pt x="480" y="21" on="0"/>
        <pt x="452" y="20" on="1"/>
        <pt x="340" y="14" on="0"/>
        <pt x="128" y="14" on="1"/>
        <pt x="83" y="14" on="0"/>
        <pt x="54" y="58" on="0"/>
        <pt x="53" y="97" on="1"/>
        <pt x="52" y="129" on="0"/>
        <pt x="52" y="209" on="1"/>
        <pt x="52" y="483" on="0"/>
        <pt x="64" y="705" on="1"/>
        <pt x="68" y="770" on="0"/>
        <pt x="145" y="770" on="1"/>
        <pt x="374" y="770" on="0"/>
        <pt x="449" y="764" on="1"/>
        <pt x="473" y="762" on="0"/>
        <pt x="503" y="735" on="0"/>
        <pt x="503" y="714" on="1"/>
        <pt x="503" y="693" on="0"/>
        <pt x="476" y="668" on="0"/>
        <pt x="449" y="668" on="1"/>
        <pt x="396" y="668" on="0"/>
        <pt x="270" y="672" on="1"/>
        <pt x="165" y="675" on="1"/>
        <pt x="158" y="441" on="1"/>
        <pt x="207" y="441" on="1"/>
        <pt x="291" y="441" on="0"/>
        <pt x="346" y="438" on="1"/>
        <pt x="371" y="437" on="0"/>
        <pt x="400" y="412" on="0"/>
        <pt x="400" y="392" on="1"/>
        <pt x="400" y="371" on="0"/>
        <pt x="370" y="345" on="0"/>
        <pt x="346" y="344" on="1"/>
      </contour>
    </TTGlyph>
    <TTGlyph name="Eacute" xMin="35" yMin="-5" xMax="523" yMax="884">
      <contour>
        <pt x="225" y="764" on="0"/>
        <pt x="253" y="786" on="1"/>
        <pt x="328" y="844" on="0"/>
        <pt x="430" y="880" on="1"/>
        <pt x="442" y="884" on="0"/>
        <pt x="454" y="884" on="1"/>
        <pt x="475" y="884" on="0"/>
        <pt x="500" y="857" on="0"/>
        <pt x="500" y="838" on="1"/>
        <pt x="500" y="810" on="0"/>
        <pt x="445" y="774" on="0"/>
        <pt x="379" y="746" on="1"/>
        <pt x="339" y="730" on="0"/>
        <pt x="307" y="715" on="1"/>
        <pt x="285" y="704" on="0"/>
        <pt x="265" y="704" on="1"/>
        <pt x="246" y="704" on="0"/>
        <pt x="225" y="724" on="0"/>
        <pt x="225" y="739" on="1"/>
      </contour>
      <contour>
        <pt x="35" y="70" on="0"/>
        <pt x="37" y="84" on="1"/>
        <pt x="70" y="421" on="0"/>
        <pt x="79" y="596" on="1"/>
        <pt x="77" y="608" on="0"/>
        <pt x="77" y="614" on="1"/>
        <pt x="77" y="665" on="0"/>
        <pt x="150" y="668" on="1"/>
        <pt x="253" y="672" on="0"/>
        <pt x="459" y="672" on="1"/>
        <pt x="494" y="672" on="0"/>
        <pt x="523" y="643" on="0"/>
        <pt x="523" y="622" on="1"/>
        <pt x="523" y="603" on="0"/>
        <pt x="493" y="576" on="0"/>
        <pt x="463" y="576" on="1"/>
        <pt x="178" y="576" on="1"/>
        <pt x="174" y="484" on="0"/>
        <pt x="166" y="388" on="1"/>
        <pt x="324" y="391" on="1"/>
        <pt x="356" y="392" on="0"/>
        <pt x="387" y="363" on="0"/>
        <pt x="387" y="341" on="1"/>
        <pt x="387" y="320" on="0"/>
        <pt x="357" y="294" on="0"/>
        <pt x="328" y="294" on="1"/>
        <pt x="158" y="295" on="1"/>
        <pt x="152" y="234" on="0"/>
        <pt x="135" y="89" on="1"/>
        <pt x="309" y="100" on="0"/>
        <pt x="395" y="100" on="1"/>
        <pt x="421" y="100" on="0"/>
        <pt x="449" y="74" on="0"/>
        <pt x="449" y="55" on="1"/>
        <pt x="449" y="36" on="0"/>
        <pt x="421" y="7" on="0"/>
        <pt x="395" y="5" on="1"/>
        <pt x="269" y="-5" on="0"/>
        <pt x="184" y="-5" on="1"/>
        <pt x="126" y="-5" on="0"/>
        <pt x="98" y="-1" on="1"/>
        <pt x="35" y="8" on="0"/>
        <pt x="35" y="63" on="1"/>
      </contour>
    </TTGlyph>
    <TTGlyph name="Ebreve" xMin="58" yMin="-8" xMax="529" yMax="974">
      <component glyphName="E" x="0" y="0" flags="0x400"/>
      <component glyphName="uni0306.case" x="-11" y="8" flags="0x404"/>
    </TTGlyph>
    <TTGlyph name="Ecaron" xMin="58" yMin="-8" xMax="529" yMax="1014">
      <component glyphName="E" x="0" y="0" flags="0x400"/>
      <component glyphName="uni030C.case" x="162" y="103" flags="0x404"/>
    </TTGlyph>
    <TTGlyph name="Ecircumflex" xMin="58" yMin="-8" xMax="529" yMax="957">
      <component glyphName="E" x="0" y="0" flags="0x400"/>
      <component glyphName="uni0302.case" x="148" y="33" flags="0x404"/>
    </TTGlyph>
    <TTGlyph name="Edieresis" xMin="58" yMin="-8" xMax="529" yMax="940">
      <component glyphName="E" x="0" y="0" flags="0x400"/>
      <component glyphName="uni0308.case" x="-58" y="-12" flags="0x404"/>
    </TTGlyph>
    <TTGlyph name="Edotaccent" xMin="58" yMin="-8" xMax="529" yMax="942">
      <component glyphName="E" x="0" y="0" flags="0x400"/>
      <component glyphName="uni0307.case" x="-82" y="28" flags="0x404"/>
    </TTGlyph>
    <TTGlyph name="Egrave" xMin="52" yMin="14" xMax="512" yMax="959">
      <component glyphName="E.001" x="0" y="0" flags="0x400"/>
      <component glyphName="gravecomb.case" x="142" y="42" flags="0x404"/>
    </TTGlyph>
    <TTGlyph name="Emacron" xMin="58" yMin="-8" xMax="529" yMax="894">
      <component glyphName="E" x="0" y="0" flags="0x400"/>
      <component glyphName="uni0304.case" x="49" y="24" flags="0x404"/>
    </TTGlyph>
    <TTGlyph name="Eng" xMin="76" yMin="-222" xMax="607" yMax="728">
      <contour>
        <pt x="105" y="-26" on="0"/>
        <pt x="76" y="3" on="0"/>
        <pt x="76" y="32" on="1"/>
        <pt x="76" y="157" on="0"/>
        <pt x="85" y="413" on="0"/>
        <pt x="94" y="606" on="1"/>
        <pt x="97" y="660" on="1"/>
        <pt x="99" y="698" on="0"/>
        <pt x="125" y="728" on="0"/>
        <pt x="147" y="728" on="1"/>
        <pt x="165" y="728" on="0"/>
        <pt x="191" y="709" on="0"/>
        <pt x="200" y="685" on="1"/>
        <pt x="254" y="533" on="0"/>
        <pt x="406" y="258" on="0"/>
        <pt x="504" y="119" on="1"/>
        <pt x="505" y="146" on="0"/>
        <pt x="505" y="203" on="1"/>
        <pt x="505" y="399" on="0"/>
        <pt x="486" y="668" on="1"/>
        <pt x="485" y="692" on="0"/>
        <pt x="515" y="720" on="0"/>
        <pt x="536" y="720" on="1"/>
        <pt x="556" y="720" on="0"/>
        <pt x="584" y="694" on="0"/>
        <pt x="586" y="668" on="1"/>
        <pt x="607" y="433" on="0"/>
        <pt x="607" y="248" on="1"/>
        <pt x="607" y="132" on="0"/>
        <pt x="599" y="53" on="1"/>
        <pt x="591" y="-21" on="0"/>
        <pt x="531" y="-137" on="0"/>
        <pt x="448" y="-207" on="0"/>
        <pt x="406" y="-218" on="1"/>
        <pt x="391" y="-222" on="0"/>
        <pt x="376" y="-222" on="1"/>
        <pt x="353" y="-222" on="0"/>
        <pt x="328" y="-202" on="0"/>
        <pt x="328" y="-187" on="1"/>
        <pt x="328" y="-163" on="0"/>
        <pt x="353" y="-150" on="1"/>
        <pt x="406" y="-120" on="0"/>
        <pt x="463" y="-61" on="0"/>
        <pt x="480" y="-10" on="1"/>
        <pt x="471" y="1" on="1"/>
        <pt x="288" y="232" on="0"/>
        <pt x="183" y="484" on="1"/>
        <pt x="181" y="303" on="1"/>
        <pt x="181" y="258" on="0"/>
        <pt x="180" y="123" on="0"/>
        <pt x="178" y="28" on="1"/>
        <pt x="177" y="2" on="0"/>
        <pt x="148" y="-26" on="0"/>
        <pt x="126" y="-26" on="1"/>
      </contour>
    </TTGlyph>
    <TTGlyph name="Eogonek" xMin="58" yMin="-267" xMax="576" yMax="743">
      <contour>
        <pt x="318" y="336" on="1"/>
        <pt x="266" y="336" on="0"/>
        <pt x="162" y="340" on="1"/>
        <pt x="160" y="244" on="0"/>
        <pt x="160" y="197" on="1"/>
        <pt x="160" y="157" on="0"/>
        <pt x="162" y="87" on="1"/>
        <pt x="342" y="96" on="0"/>
        <pt x="457" y="96" on="1"/>
        <pt x="486" y="96" on="0"/>
        <pt x="518" y="72" on="0"/>
        <pt x="518" y="50" on="1"/>
        <pt x="518" y="20" on="0"/>
        <pt x="491" y="6" on="1"/>
        <pt x="456" y="-37" on="0"/>
        <pt x="419" y="-103" on="0"/>
        <pt x="419" y="-134" on="1"/>
        <pt x="419" y="-171" on="0"/>
        <pt x="458" y="-171" on="1"/>
        <pt x="480" y="-171" on="0"/>
        <pt x="524" y="-157" on="1"/>
        <pt x="535" y="-154" on="0"/>
        <pt x="542" y="-154" on="1"/>
        <pt x="558" y="-154" on="0"/>
        <pt x="576" y="-174" on="0"/>
        <pt x="576" y="-189" on="1"/>
        <pt x="576" y="-216" on="0"/>
        <pt x="550" y="-235" on="1"/>
        <pt x="529" y="-250" on="0"/>
        <pt x="472" y="-267" on="0"/>
        <pt x="442" y="-267" on="1"/>
        <pt x="387" y="-267" on="0"/>
        <pt x="311" y="-208" on="0"/>
        <pt x="311" y="-150" on="1"/>
        <pt x="311" y="-80" on="0"/>
        <pt x="372" y="-5" on="1"/>
        <pt x="263" y="-8" on="0"/>
        <pt x="134" y="-8" on="1"/>
        <pt x="89" y="-8" on="0"/>
        <pt x="60" y="36" on="0"/>
        <pt x="59" y="75" on="1"/>
        <pt x="58" y="107" on="0"/>
        <pt x="58" y="187" on="1"/>
        <pt x="58" y="459" on="0"/>
        <pt x="70" y="678" on="1"/>
        <pt x="74" y="743" on="0"/>
        <pt x="151" y="743" on="1"/>
        <pt x="395" y="743" on="0"/>
        <pt x="475" y="737" on="1"/>
        <pt x="499" y="735" on="0"/>
        <pt x="529" y="708" on="0"/>
        <pt x="529" y="687" on="1"/>
        <pt x="529" y="666" on="0"/>
        <pt x="502" y="641" on="0"/>
        <pt x="475" y="641" on="1"/>
        <pt x="417" y="641" on="0"/>
        <pt x="283" y="645" on="1"/>
        <pt x="171" y="648" on="1"/>
        <pt x="164" y="434" on="1"/>
        <pt x="215" y="434" on="1"/>
        <pt x="302" y="434" on="0"/>
        <pt x="362" y="431" on="1"/>
        <pt x="387" y="430" on="0"/>
        <pt x="416" y="405" on="0"/>
        <pt x="416" y="385" on="1"/>
        <pt x="416" y="364" on="0"/>
        <pt x="386" y="338" on="0"/>
        <pt x="362" y="337" on="1"/>
      </contour>
    </TTGlyph>
    <TTGlyph name="Epsilon" xMin="58" yMin="-8" xMax="529" yMax="743">
      <component glyphName="E" x="0" y="0" flags="0x400"/>
    </TTGlyph>
    <TTGlyph name="Epsilontonos" xMin="29" yMin="-8" xMax="715" yMax="743">
      <component glyphName="tonos" x="-2" y="14" flags="0x404"/>
      <component glyphName="E" x="186" y="0" flags="0x400"/>
    </TTGlyph>
    <TTGlyph name="Eta" xMin="66" yMin="-35" xMax="535" yMax="737">
      <component glyphName="H" x="0" y="0" flags="0x400"/>
    </TTGlyph>
    <TTGlyph name="Etatonos" xMin="28" yMin="-35" xMax="716" yMax="737">
      <component glyphName="tonos" x="-3" y="15" flags="0x404"/>
      <component glyphName="H" x="181" y="0" flags="0x400"/>
    </TTGlyph>
    <TTGlyph name="Eth" xMin="23" yMin="-24" xMax="731" yMax="725">
      <contour>
        <pt x="174" y="-24" on="0"/>
        <pt x="142" y="4" on="0"/>
        <pt x="142" y="25" on="1"/>
        <pt x="142" y="58" on="0"/>
        <pt x="185" y="64" on="1"/>
        <pt x="171" y="83" on="0"/>
        <pt x="170" y="116" on="1"/>
        <pt x="165" y="196" on="0"/>
        <pt x="165" y="324" on="1"/>
        <pt x="80" y="317" on="1"/>
        <pt x="54" y="315" on="0"/>
        <pt x="23" y="340" on="0"/>
        <pt x="23" y="359" on="1"/>
        <pt x="23" y="376" on="0"/>
        <pt x="50" y="403" on="0"/>
        <pt x="75" y="407" on="1"/>
        <pt x="128" y="414" on="0"/>
        <pt x="166" y="418" on="1"/>
        <pt x="169" y="523" on="0"/>
        <pt x="175" y="609" on="1"/>
        <pt x="156" y="605" on="0"/>
        <pt x="116" y="593" on="1"/>
        <pt x="104" y="589" on="0"/>
        <pt x="92" y="589" on="1"/>
        <pt x="74" y="589" on="0"/>
        <pt x="54" y="611" on="0"/>
        <pt x="54" y="628" on="1"/>
        <pt x="54" y="644" on="0"/>
        <pt x="75" y="669" on="0"/>
        <pt x="98" y="680" on="1"/>
        <pt x="137" y="700" on="0"/>
        <pt x="272" y="725" on="0"/>
        <pt x="351" y="725" on="1"/>
        <pt x="468" y="725" on="0"/>
        <pt x="639" y="645" on="0"/>
        <pt x="731" y="495" on="0"/>
        <pt x="731" y="394" on="1"/>
        <pt x="731" y="373" on="0"/>
        <pt x="730" y="362" on="1"/>
        <pt x="720" y="224" on="0"/>
        <pt x="539" y="51" on="0"/>
        <pt x="302" y="-24" on="0"/>
        <pt x="202" y="-24" on="1"/>
      </contour>
      <contour>
        <pt x="597" y="120" on="0"/>
        <pt x="617" y="363" on="1"/>
        <pt x="618" y="375" on="0"/>
        <pt x="618" y="398" on="1"/>
        <pt x="618" y="511" on="0"/>
        <pt x="487" y="628" on="0"/>
        <pt x="359" y="628" on="1"/>
        <pt x="318" y="628" on="0"/>
        <pt x="279" y="625" on="1"/>
        <pt x="273" y="514" on="0"/>
        <pt x="270" y="428" on="1"/>
        <pt x="340" y="433" on="0"/>
        <pt x="391" y="433" on="1"/>
        <pt x="417" y="433" on="0"/>
        <pt x="447" y="402" on="0"/>
        <pt x="447" y="381" on="1"/>
        <pt x="447" y="364" on="0"/>
        <pt x="424" y="339" on="0"/>
        <pt x="401" y="338" on="1"/>
        <pt x="375" y="337" on="1"/>
        <pt x="268" y="331" on="1"/>
        <pt x="268" y="296" on="1"/>
        <pt x="268" y="253" on="0"/>
        <pt x="270" y="201" on="1"/>
        <pt x="273" y="148" on="0"/>
        <pt x="271" y="117" on="1"/>
        <pt x="269" y="88" on="0"/>
        <pt x="259" y="73" on="1"/>
      </contour>
    </TTGlyph>
    <TTGlyph name="Euro" xMin="16" yMin="-17" xMax="695" yMax="702">
      <contour>
        <pt x="557" y="633" on="0"/>
        <pt x="557" y="636" on="1"/>
        <pt x="557" y="645" on="0"/>
        <pt x="564" y="649" on="1"/>
        <pt x="569" y="637" on="1"/>
        <pt x="571" y="650" on="1"/>
        <pt x="576" y="648" on="0"/>
        <pt x="579" y="635" on="0"/>
        <pt x="577" y="629" on="1"/>
        <pt x="586" y="633" on="0"/>
        <pt x="586" y="645" on="1"/>
        <pt x="586" y="653" on="0"/>
        <pt x="575" y="665" on="0"/>
        <pt x="567" y="665" on="1"/>
        <pt x="559" y="665" on="0"/>
        <pt x="548" y="654" on="0"/>
        <pt x="548" y="646" on="1"/>
        <pt x="548" y="634" on="0"/>
        <pt x="559" y="629" on="1"/>
      </contour>
      <contour>
        <pt x="16" y="335" on="0"/>
        <pt x="82" y="339" on="1"/>
        <pt x="156" y="344" on="1"/>
        <pt x="156" y="354" on="1"/>
        <pt x="158" y="383" on="0"/>
        <pt x="162" y="410" on="1"/>
        <pt x="109" y="407" on="1"/>
        <pt x="78" y="405" on="0"/>
        <pt x="46" y="429" on="0"/>
        <pt x="46" y="451" on="1"/>
        <pt x="46" y="496" on="0"/>
        <pt x="114" y="502" on="1"/>
        <pt x="160" y="506" on="0"/>
        <pt x="190" y="506" on="1"/>
        <pt x="229" y="596" on="0"/>
        <pt x="393" y="702" on="0"/>
        <pt x="516" y="702" on="1"/>
        <pt x="557" y="702" on="0"/>
        <pt x="610" y="693" on="0"/>
        <pt x="633" y="685" on="1"/>
        <pt x="675" y="669" on="0"/>
        <pt x="675" y="638" on="1"/>
        <pt x="675" y="619" on="0"/>
        <pt x="649" y="595" on="0"/>
        <pt x="627" y="595" on="1"/>
        <pt x="602" y="595" on="0"/>
        <pt x="580" y="607" on="1"/>
        <pt x="556" y="611" on="0"/>
        <pt x="534" y="611" on="1"/>
        <pt x="443" y="611" on="0"/>
        <pt x="326" y="557" on="0"/>
        <pt x="295" y="503" on="1"/>
        <pt x="387" y="498" on="0"/>
        <pt x="453" y="478" on="1"/>
        <pt x="471" y="472" on="0"/>
        <pt x="490" y="449" on="0"/>
        <pt x="490" y="434" on="1"/>
        <pt x="490" y="416" on="0"/>
        <pt x="463" y="395" on="0"/>
        <pt x="437" y="395" on="1"/>
        <pt x="421" y="395" on="0"/>
        <pt x="411" y="397" on="1"/>
        <pt x="350" y="408" on="0"/>
        <pt x="263" y="411" on="1"/>
        <pt x="256" y="378" on="0"/>
        <pt x="255" y="348" on="1"/>
        <pt x="255" y="347" on="1"/>
        <pt x="279" y="348" on="0"/>
        <pt x="324" y="348" on="1"/>
        <pt x="369" y="348" on="0"/>
        <pt x="390" y="347" on="1"/>
        <pt x="419" y="346" on="0"/>
        <pt x="454" y="321" on="0"/>
        <pt x="454" y="300" on="1"/>
        <pt x="454" y="279" on="0"/>
        <pt x="419" y="254" on="0"/>
        <pt x="381" y="253" on="1"/>
        <pt x="345" y="253" on="0"/>
        <pt x="259" y="249" on="1"/>
        <pt x="273" y="164" on="0"/>
        <pt x="370" y="73" on="0"/>
        <pt x="443" y="73" on="1"/>
        <pt x="485" y="73" on="0"/>
        <pt x="587" y="103" on="0"/>
        <pt x="625" y="123" on="1"/>
        <pt x="649" y="135" on="0"/>
        <pt x="666" y="135" on="1"/>
        <pt x="680" y="135" on="0"/>
        <pt x="695" y="119" on="0"/>
        <pt x="695" y="105" on="1"/>
        <pt x="695" y="89" on="0"/>
        <pt x="673" y="60" on="0"/>
        <pt x="651" y="44" on="1"/>
        <pt x="613" y="17" on="0"/>
        <pt x="499" y="-17" on="0"/>
        <pt x="441" y="-17" on="1"/>
        <pt x="382" y="-17" on="0"/>
        <pt x="265" y="34" on="0"/>
        <pt x="175" y="151" on="0"/>
        <pt x="161" y="244" on="1"/>
        <pt x="80" y="239" on="1"/>
        <pt x="49" y="237" on="0"/>
        <pt x="16" y="264" on="0"/>
        <pt x="16" y="286" on="1"/>
      </contour>
    </TTGlyph>
    <TTGlyph name="F" xMin="54" yMin="-14" xMax="597" yMax="735">
      <contour>
        <pt x="78" y="646" on="0"/>
        <pt x="54" y="671" on="0"/>
        <pt x="54" y="688" on="1"/>
        <pt x="54" y="708" on="0"/>
        <pt x="85" y="735" on="0"/>
        <pt x="112" y="734" on="1"/>
        <pt x="197" y="730" on="0"/>
        <pt x="296" y="730" on="1"/>
        <pt x="371" y="730" on="0"/>
        <pt x="527" y="734" on="1"/>
        <pt x="597" y="735" on="0"/>
        <pt x="597" y="684" on="1"/>
        <pt x="597" y="664" on="0"/>
        <pt x="570" y="639" on="0"/>
        <pt x="544" y="638" on="1"/>
        <pt x="484" y="635" on="0"/>
        <pt x="387" y="635" on="1"/>
        <pt x="329" y="635" on="0"/>
        <pt x="227" y="637" on="1"/>
        <pt x="219" y="485" on="0"/>
        <pt x="216" y="405" on="1"/>
        <pt x="311" y="410" on="0"/>
        <pt x="383" y="410" on="1"/>
        <pt x="414" y="410" on="0"/>
        <pt x="425" y="409" on="1"/>
        <pt x="456" y="407" on="0"/>
        <pt x="487" y="383" on="0"/>
        <pt x="487" y="359" on="1"/>
        <pt x="487" y="335" on="0"/>
        <pt x="455" y="309" on="0"/>
        <pt x="425" y="309" on="1"/>
        <pt x="397" y="309" on="0"/>
        <pt x="373" y="310" on="1"/>
        <pt x="285" y="312" on="0"/>
        <pt x="213" y="312" on="1"/>
        <pt x="210" y="191" on="0"/>
        <pt x="210" y="102" on="1"/>
        <pt x="210" y="48" on="1"/>
        <pt x="210" y="19" on="0"/>
        <pt x="183" y="-14" on="0"/>
        <pt x="159" y="-14" on="1"/>
        <pt x="136" y="-14" on="0"/>
        <pt x="107" y="17" on="0"/>
        <pt x="106" y="44" on="1"/>
        <pt x="105" y="97" on="1"/>
        <pt x="105" y="275" on="0"/>
        <pt x="125" y="642" on="1"/>
        <pt x="100" y="644" on="1"/>
      </contour>
    </TTGlyph>
    <TTGlyph name="F_F_S" xMin="53" yMin="-29" xMax="1246" yMax="606">
      <contour>
        <pt x="911" y="-29" on="0"/>
        <pt x="821" y="9" on="0"/>
        <pt x="797" y="41" on="1"/>
        <pt x="784" y="58" on="0"/>
        <pt x="784" y="75" on="1"/>
        <pt x="784" y="92" on="0"/>
        <pt x="807" y="115" on="0"/>
        <pt x="824" y="115" on="1"/>
        <pt x="844" y="115" on="0"/>
        <pt x="861" y="99" on="1"/>
        <pt x="881" y="80" on="0"/>
        <pt x="932" y="61" on="0"/>
        <pt x="969" y="61" on="1"/>
        <pt x="1032" y="61" on="0"/>
        <pt x="1111" y="108" on="0"/>
        <pt x="1111" y="144" on="1"/>
        <pt x="1111" y="166" on="0"/>
        <pt x="1079" y="197" on="0"/>
        <pt x="1032" y="216" on="0"/>
        <pt x="988" y="229" on="1"/>
        <pt x="927" y="248" on="0"/>
        <pt x="852" y="282" on="0"/>
        <pt x="797" y="348" on="0"/>
        <pt x="797" y="401" on="1"/>
        <pt x="797" y="468" on="0"/>
        <pt x="850" y="511" on="1"/>
        <pt x="811" y="506" on="0"/>
        <pt x="725" y="501" on="0"/>
        <pt x="711" y="500" on="1"/>
        <pt x="684" y="499" on="1"/>
        <pt x="552" y="493" on="1"/>
        <pt x="548" y="440" on="0"/>
        <pt x="544" y="334" on="1"/>
        <pt x="561" y="335" on="0"/>
        <pt x="597" y="335" on="1"/>
        <pt x="646" y="335" on="0"/>
        <pt x="694" y="332" on="1"/>
        <pt x="718" y="331" on="0"/>
        <pt x="744" y="306" on="0"/>
        <pt x="744" y="288" on="1"/>
        <pt x="744" y="273" on="0"/>
        <pt x="721" y="252" on="0"/>
        <pt x="700" y="249" on="1"/>
        <pt x="607" y="238" on="0"/>
        <pt x="541" y="234" on="1"/>
        <pt x="540" y="143" on="1"/>
        <pt x="541" y="47" on="1"/>
        <pt x="541" y="-20" on="0"/>
        <pt x="496" y="-20" on="1"/>
        <pt x="472" y="-20" on="0"/>
        <pt x="442" y="17" on="0"/>
        <pt x="440" y="70" on="1"/>
        <pt x="438" y="130" on="0"/>
        <pt x="438" y="164" on="1"/>
        <pt x="439" y="236" on="1"/>
        <pt x="411" y="249" on="0"/>
        <pt x="411" y="277" on="1"/>
        <pt x="411" y="314" on="0"/>
        <pt x="442" y="325" on="1"/>
        <pt x="446" y="435" on="0"/>
        <pt x="450" y="490" on="1"/>
        <pt x="370" y="488" on="0"/>
        <pt x="215" y="486" on="1"/>
        <pt x="213" y="438" on="0"/>
        <pt x="211" y="339" on="1"/>
        <pt x="272" y="336" on="0"/>
        <pt x="308" y="331" on="1"/>
        <pt x="362" y="324" on="0"/>
        <pt x="362" y="288" on="1"/>
        <pt x="362" y="254" on="0"/>
        <pt x="312" y="251" on="1"/>
        <pt x="249" y="247" on="0"/>
        <pt x="211" y="246" on="1"/>
        <pt x="212" y="149" on="0"/>
        <pt x="222" y="55" on="1"/>
        <pt x="225" y="26" on="0"/>
        <pt x="200" y="-13" on="0"/>
        <pt x="176" y="-13" on="1"/>
        <pt x="155" y="-13" on="0"/>
        <pt x="125" y="16" on="0"/>
        <pt x="121" y="46" on="1"/>
        <pt x="109" y="121" on="0"/>
        <pt x="108" y="246" on="1"/>
        <pt x="53" y="250" on="0"/>
        <pt x="53" y="290" on="1"/>
        <pt x="53" y="330" on="0"/>
        <pt x="109" y="339" on="1"/>
        <pt x="109" y="397" on="0"/>
        <pt x="114" y="489" on="1"/>
        <pt x="81" y="498" on="0"/>
        <pt x="81" y="531" on="1"/>
        <pt x="81" y="552" on="0"/>
        <pt x="110" y="578" on="0"/>
        <pt x="142" y="578" on="1"/>
        <pt x="392" y="578" on="0"/>
        <pt x="684" y="589" on="1"/>
        <pt x="836" y="595" on="1"/>
        <pt x="1047" y="606" on="0"/>
        <pt x="1194" y="606" on="1"/>
        <pt x="1216" y="606" on="0"/>
        <pt x="1246" y="582" on="0"/>
        <pt x="1246" y="559" on="1"/>
        <pt x="1246" y="539" on="0"/>
        <pt x="1219" y="516" on="0"/>
        <pt x="1197" y="516" on="1"/>
        <pt x="1047" y="516" on="0"/>
        <pt x="895" y="462" on="0"/>
        <pt x="895" y="416" on="1"/>
        <pt x="895" y="392" on="0"/>
        <pt x="929" y="359" on="0"/>
        <pt x="977" y="337" on="0"/>
        <pt x="1024" y="321" on="1"/>
        <pt x="1083" y="302" on="0"/>
        <pt x="1158" y="266" on="0"/>
        <pt x="1211" y="202" on="0"/>
        <pt x="1211" y="153" on="1"/>
        <pt x="1211" y="98" on="0"/>
        <pt x="1148" y="15" on="0"/>
        <pt x="1041" y="-29" on="0"/>
        <pt x="977" y="-29" on="1"/>
      </contour>
    </TTGlyph>
    <TTGlyph name="F_T_W" xMin="78" yMin="-88" xMax="1596" yMax="744">
      <contour>
        <pt x="1361" y="-88" on="0"/>
        <pt x="1337" y="-72" on="0"/>
        <pt x="1328" y="-54" on="1"/>
        <pt x="1307" y="-15" on="0"/>
        <pt x="1256" y="146" on="0"/>
        <pt x="1235" y="239" on="1"/>
        <pt x="1200" y="159" on="0"/>
        <pt x="1167" y="115" on="1"/>
        <pt x="1158" y="88" on="0"/>
        <pt x="1126" y="65" on="0"/>
        <pt x="1108" y="65" on="1"/>
        <pt x="1075" y="65" on="0"/>
        <pt x="1058" y="105" on="1"/>
        <pt x="1034" y="164" on="0"/>
        <pt x="978" y="377" on="0"/>
        <pt x="954" y="497" on="1"/>
        <pt x="780" y="496" on="1"/>
        <pt x="791" y="394" on="0"/>
        <pt x="791" y="259" on="1"/>
        <pt x="791" y="158" on="0"/>
        <pt x="785" y="38" on="1"/>
        <pt x="784" y="10" on="0"/>
        <pt x="755" y="-17" on="0"/>
        <pt x="735" y="-17" on="1"/>
        <pt x="712" y="-17" on="0"/>
        <pt x="684" y="13" on="0"/>
        <pt x="685" y="41" on="1"/>
        <pt x="688" y="151" on="0"/>
        <pt x="688" y="274" on="1"/>
        <pt x="688" y="409" on="0"/>
        <pt x="682" y="494" on="1"/>
        <pt x="510" y="491" on="1"/>
        <pt x="264" y="488" on="1"/>
        <pt x="260" y="344" on="0"/>
        <pt x="259" y="271" on="1"/>
        <pt x="333" y="274" on="0"/>
        <pt x="413" y="292" on="1"/>
        <pt x="436" y="298" on="0"/>
        <pt x="447" y="298" on="1"/>
        <pt x="470" y="298" on="0"/>
        <pt x="496" y="276" on="0"/>
        <pt x="496" y="256" on="1"/>
        <pt x="496" y="219" on="0"/>
        <pt x="446" y="208" on="1"/>
        <pt x="371" y="192" on="0"/>
        <pt x="258" y="187" on="1"/>
        <pt x="259" y="107" on="1"/>
        <pt x="260" y="80" on="0"/>
        <pt x="260" y="26" on="1"/>
        <pt x="260" y="4" on="0"/>
        <pt x="233" y="-25" on="0"/>
        <pt x="212" y="-25" on="1"/>
        <pt x="189" y="-25" on="0"/>
        <pt x="162" y="6" on="0"/>
        <pt x="161" y="31" on="1"/>
        <pt x="158" y="112" on="0"/>
        <pt x="158" y="197" on="1"/>
        <pt x="158" y="305" on="0"/>
        <pt x="164" y="487" on="1"/>
        <pt x="129" y="487" on="1"/>
        <pt x="104" y="487" on="0"/>
        <pt x="78" y="513" on="0"/>
        <pt x="78" y="531" on="1"/>
        <pt x="78" y="549" on="0"/>
        <pt x="105" y="575" on="0"/>
        <pt x="130" y="575" on="1"/>
        <pt x="261" y="575" on="0"/>
        <pt x="499" y="580" on="1"/>
        <pt x="869" y="588" on="0"/>
        <pt x="1109" y="588" on="1"/>
        <pt x="1131" y="588" on="0"/>
        <pt x="1156" y="561" on="0"/>
        <pt x="1156" y="543" on="1"/>
        <pt x="1156" y="524" on="0"/>
        <pt x="1130" y="498" on="0"/>
        <pt x="1105" y="498" on="1"/>
        <pt x="1059" y="498" on="1"/>
        <pt x="1084" y="351" on="0"/>
        <pt x="1123" y="205" on="1"/>
        <pt x="1161" y="295" on="0"/>
        <pt x="1191" y="382" on="1"/>
        <pt x="1199" y="406" on="0"/>
        <pt x="1225" y="428" on="0"/>
        <pt x="1245" y="428" on="1"/>
        <pt x="1291" y="428" on="0"/>
        <pt x="1303" y="370" on="1"/>
        <pt x="1340" y="190" on="0"/>
        <pt x="1380" y="50" on="1"/>
        <pt x="1418" y="142" on="0"/>
        <pt x="1454" y="271" on="1"/>
        <pt x="1496" y="425" on="0"/>
        <pt x="1496" y="545" on="1"/>
        <pt x="1496" y="617" on="0"/>
        <pt x="1477" y="671" on="1"/>
        <pt x="1472" y="684" on="0"/>
        <pt x="1472" y="699" on="1"/>
        <pt x="1472" y="719" on="0"/>
        <pt x="1496" y="744" on="0"/>
        <pt x="1517" y="744" on="1"/>
        <pt x="1542" y="744" on="0"/>
        <pt x="1567" y="714" on="0"/>
        <pt x="1574" y="691" on="1"/>
        <pt x="1584" y="661" on="0"/>
        <pt x="1596" y="576" on="0"/>
        <pt x="1596" y="532" on="1"/>
        <pt x="1596" y="413" on="0"/>
        <pt x="1548" y="247" on="1"/>
        <pt x="1528" y="180" on="0"/>
        <pt x="1463" y="17" on="0"/>
        <pt x="1433" y="-43" on="1"/>
        <pt x="1421" y="-67" on="0"/>
        <pt x="1397" y="-88" on="0"/>
        <pt x="1379" y="-88" on="1"/>
      </contour>
    </TTGlyph>
    <TTGlyph name="G" xMin="47" yMin="-37" xMax="697" yMax="749">
      <contour>
        <pt x="154" y="-25" on="0"/>
        <pt x="47" y="90" on="0"/>
        <pt x="47" y="197" on="1"/>
        <pt x="47" y="286" on="0"/>
        <pt x="83" y="394" on="1"/>
        <pt x="114" y="489" on="0"/>
        <pt x="220" y="650" on="0"/>
        <pt x="365" y="749" on="0"/>
        <pt x="451" y="749" on="1"/>
        <pt x="497" y="749" on="0"/>
        <pt x="584" y="717" on="0"/>
        <pt x="618" y="687" on="1"/>
        <pt x="635" y="671" on="0"/>
        <pt x="635" y="649" on="1"/>
        <pt x="635" y="630" on="0"/>
        <pt x="613" y="603" on="0"/>
        <pt x="596" y="603" on="1"/>
        <pt x="586" y="603" on="0"/>
        <pt x="575" y="609" on="1"/>
        <pt x="535" y="632" on="0"/>
        <pt x="480" y="655" on="0"/>
        <pt x="448" y="655" on="1"/>
        <pt x="396" y="655" on="0"/>
        <pt x="295" y="579" on="0"/>
        <pt x="213" y="451" on="0"/>
        <pt x="187" y="374" on="1"/>
        <pt x="155" y="276" on="0"/>
        <pt x="155" y="203" on="1"/>
        <pt x="155" y="141" on="0"/>
        <pt x="201" y="69" on="0"/>
        <pt x="246" y="69" on="1"/>
        <pt x="319" y="69" on="0"/>
        <pt x="443" y="176" on="0"/>
        <pt x="473" y="250" on="1"/>
        <pt x="433" y="250" on="0"/>
        <pt x="345" y="252" on="1"/>
        <pt x="318" y="253" on="0"/>
        <pt x="292" y="278" on="0"/>
        <pt x="292" y="298" on="1"/>
        <pt x="292" y="318" on="0"/>
        <pt x="322" y="345" on="0"/>
        <pt x="347" y="346" on="1"/>
        <pt x="383" y="347" on="1"/>
        <pt x="472" y="347" on="0"/>
        <pt x="538" y="335" on="1"/>
        <pt x="593" y="325" on="0"/>
        <pt x="590" y="268" on="1"/>
        <pt x="588" y="228" on="0"/>
        <pt x="588" y="215" on="1"/>
        <pt x="588" y="148" on="0"/>
        <pt x="624" y="78" on="0"/>
        <pt x="673" y="46" on="1"/>
        <pt x="684" y="39" on="0"/>
        <pt x="697" y="15" on="0"/>
        <pt x="697" y="4" on="1"/>
        <pt x="697" y="-13" on="0"/>
        <pt x="671" y="-37" on="0"/>
        <pt x="646" y="-37" on="1"/>
        <pt x="613" y="-37" on="0"/>
        <pt x="549" y="9" on="0"/>
        <pt x="506" y="85" on="0"/>
        <pt x="501" y="128" on="1"/>
        <pt x="451" y="54" on="0"/>
        <pt x="323" y="-25" on="0"/>
        <pt x="246" y="-25" on="1"/>
      </contour>
    </TTGlyph>
    <TTGlyph name="Gamma" xMin="24" yMin="-11" xMax="530" yMax="743">
      <component glyphName="uni0413" x="31" y="0" flags="0x400"/>
    </TTGlyph>
    <TTGlyph name="Gbreve" xMin="47" yMin="-37" xMax="697" yMax="969">
      <component glyphName="G" x="0" y="0" flags="0x400"/>
      <component glyphName="uni0306.case" x="141" y="3" flags="0x404"/>
    </TTGlyph>
    <TTGlyph name="Gcircumflex" xMin="47" yMin="-37" xMax="697" yMax="952">
      <component glyphName="G" x="0" y="0" flags="0x400"/>
      <component glyphName="uni0302.case" x="300" y="28" flags="0x404"/>
    </TTGlyph>
    <TTGlyph name="Gdotaccent" xMin="47" yMin="-37" xMax="697" yMax="937">
      <component glyphName="G" x="0" y="0" flags="0x400"/>
      <component glyphName="uni0307.case" x="70" y="23" flags="0x404"/>
    </TTGlyph>
    <TTGlyph name="H" xMin="66" yMin="-35" xMax="535" yMax="737">
      <contour>
        <pt x="420" y="159" on="0"/>
        <pt x="425" y="329" on="1"/>
        <pt x="299" y="326" on="0"/>
        <pt x="175" y="320" on="1"/>
        <pt x="173" y="222" on="0"/>
        <pt x="165" y="26" on="1"/>
        <pt x="164" y="3" on="0"/>
        <pt x="138" y="-25" on="0"/>
        <pt x="117" y="-25" on="1"/>
        <pt x="96" y="-25" on="0"/>
        <pt x="66" y="4" on="0"/>
        <pt x="67" y="27" on="1"/>
        <pt x="68" y="99" on="0"/>
        <pt x="72" y="243" on="1"/>
        <pt x="73" y="286" on="0"/>
        <pt x="79" y="560" on="0"/>
        <pt x="79" y="676" on="1"/>
        <pt x="79" y="699" on="0"/>
        <pt x="108" y="728" on="0"/>
        <pt x="129" y="728" on="1"/>
        <pt x="153" y="728" on="0"/>
        <pt x="181" y="697" on="0"/>
        <pt x="181" y="668" on="1"/>
        <pt x="181" y="614" on="0"/>
        <pt x="179" y="502" on="1"/>
        <pt x="178" y="417" on="1"/>
        <pt x="303" y="422" on="0"/>
        <pt x="427" y="423" on="1"/>
        <pt x="429" y="510" on="0"/>
        <pt x="431" y="686" on="1"/>
        <pt x="432" y="710" on="0"/>
        <pt x="461" y="737" on="0"/>
        <pt x="484" y="737" on="1"/>
        <pt x="505" y="737" on="0"/>
        <pt x="535" y="710" on="0"/>
        <pt x="534" y="687" on="1"/>
        <pt x="530" y="388" on="0"/>
        <pt x="510" y="17" on="1"/>
        <pt x="509" y="-8" on="0"/>
        <pt x="481" y="-35" on="0"/>
        <pt x="459" y="-35" on="1"/>
        <pt x="438" y="-35" on="0"/>
        <pt x="411" y="-5" on="0"/>
        <pt x="412" y="23" on="1"/>
      </contour>
    </TTGlyph>
    <TTGlyph name="H_T_H" xMin="65" yMin="-26" xMax="1585" yMax="609">
      <contour>
        <pt x="1497" y="-26" on="0"/>
        <pt x="1468" y="5" on="0"/>
        <pt x="1469" y="32" on="1"/>
        <pt x="1474" y="139" on="0"/>
        <pt x="1477" y="258" on="1"/>
        <pt x="1402" y="261" on="0"/>
        <pt x="1311" y="261" on="1"/>
        <pt x="1247" y="261" on="0"/>
        <pt x="1215" y="260" on="1"/>
        <pt x="1214" y="154" on="0"/>
        <pt x="1209" y="38" on="1"/>
        <pt x="1208" y="11" on="0"/>
        <pt x="1178" y="-16" on="0"/>
        <pt x="1158" y="-16" on="1"/>
        <pt x="1138" y="-16" on="0"/>
        <pt x="1108" y="14" on="0"/>
        <pt x="1109" y="42" on="1"/>
        <pt x="1114" y="230" on="0"/>
        <pt x="1114" y="381" on="1"/>
        <pt x="1113" y="544" on="1"/>
        <pt x="1113" y="571" on="0"/>
        <pt x="1141" y="599" on="0"/>
        <pt x="1162" y="599" on="1"/>
        <pt x="1186" y="599" on="0"/>
        <pt x="1212" y="567" on="0"/>
        <pt x="1213" y="527" on="1"/>
        <pt x="1216" y="443" on="0"/>
        <pt x="1216" y="350" on="1"/>
        <pt x="1240" y="351" on="0"/>
        <pt x="1289" y="351" on="1"/>
        <pt x="1383" y="351" on="0"/>
        <pt x="1480" y="346" on="1"/>
        <pt x="1484" y="547" on="1"/>
        <pt x="1485" y="609" on="0"/>
        <pt x="1536" y="609" on="1"/>
        <pt x="1558" y="609" on="0"/>
        <pt x="1585" y="577" on="0"/>
        <pt x="1585" y="552" on="1"/>
        <pt x="1585" y="228" on="0"/>
        <pt x="1569" y="29" on="1"/>
        <pt x="1567" y="1" on="0"/>
        <pt x="1537" y="-26" on="0"/>
        <pt x="1518" y="-26" on="1"/>
      </contour>
      <contour>
        <pt x="65" y="120" on="0"/>
        <pt x="71" y="284" on="1"/>
        <pt x="72" y="314" on="0"/>
        <pt x="76" y="458" on="0"/>
        <pt x="76" y="514" on="1"/>
        <pt x="76" y="540" on="0"/>
        <pt x="103" y="568" on="0"/>
        <pt x="127" y="568" on="1"/>
        <pt x="148" y="568" on="0"/>
        <pt x="176" y="538" on="0"/>
        <pt x="176" y="512" on="1"/>
        <pt x="176" y="431" on="0"/>
        <pt x="173" y="333" on="1"/>
        <pt x="270" y="346" on="0"/>
        <pt x="441" y="346" on="1"/>
        <pt x="441" y="522" on="1"/>
        <pt x="441" y="550" on="0"/>
        <pt x="468" y="580" on="0"/>
        <pt x="490" y="580" on="1"/>
        <pt x="513" y="580" on="0"/>
        <pt x="541" y="553" on="0"/>
        <pt x="541" y="524" on="1"/>
        <pt x="541" y="50" on="1"/>
        <pt x="541" y="15" on="0"/>
        <pt x="511" y="-16" on="0"/>
        <pt x="490" y="-16" on="1"/>
        <pt x="470" y="-16" on="0"/>
        <pt x="441" y="16" on="0"/>
        <pt x="441" y="46" on="1"/>
        <pt x="441" y="256" on="1"/>
        <pt x="293" y="256" on="0"/>
        <pt x="171" y="242" on="1"/>
        <pt x="162" y="32" on="1"/>
        <pt x="161" y="3" on="0"/>
        <pt x="134" y="-23" on="0"/>
        <pt x="114" y="-23" on="1"/>
        <pt x="94" y="-23" on="0"/>
        <pt x="65" y="7" on="0"/>
        <pt x="65" y="35" on="1"/>
      </contour>
      <contour>
        <pt x="580" y="566" on="0"/>
        <pt x="639" y="568" on="1"/>
        <pt x="778" y="574" on="0"/>
        <pt x="1005" y="574" on="1"/>
        <pt x="1030" y="574" on="0"/>
        <pt x="1059" y="546" on="0"/>
        <pt x="1059" y="529" on="1"/>
        <pt x="1059" y="487" on="0"/>
        <pt x="1002" y="487" on="1"/>
        <pt x="950" y="487" on="0"/>
        <pt x="873" y="484" on="1"/>
        <pt x="873" y="342" on="0"/>
        <pt x="867" y="135" on="0"/>
        <pt x="858" y="32" on="1"/>
        <pt x="856" y="7" on="0"/>
        <pt x="830" y="-18" on="0"/>
        <pt x="811" y="-18" on="1"/>
        <pt x="788" y="-18" on="0"/>
        <pt x="761" y="12" on="0"/>
        <pt x="762" y="40" on="1"/>
        <pt x="770" y="329" on="0"/>
        <pt x="773" y="481" on="1"/>
        <pt x="735" y="480" on="1"/>
        <pt x="662" y="477" on="0"/>
        <pt x="628" y="477" on="1"/>
        <pt x="603" y="477" on="0"/>
        <pt x="580" y="499" on="0"/>
        <pt x="580" y="517" on="1"/>
      </contour>
    </TTGlyph>
    <TTGlyph name="Hbar" xMin="4" yMin="-35" xMax="592" yMax="737">
      <contour>
        <pt x="420" y="159" on="0"/>
        <pt x="425" y="329" on="1"/>
        <pt x="299" y="326" on="0"/>
        <pt x="175" y="320" on="1"/>
        <pt x="173" y="222" on="0"/>
        <pt x="165" y="26" on="1"/>
        <pt x="164" y="3" on="0"/>
        <pt x="138" y="-25" on="0"/>
        <pt x="117" y="-25" on="1"/>
        <pt x="96" y="-25" on="0"/>
        <pt x="66" y="4" on="0"/>
        <pt x="67" y="27" on="1"/>
        <pt x="73" y="269" on="1"/>
        <pt x="77" y="428" on="0"/>
        <pt x="78" y="510" on="1"/>
        <pt x="66" y="509" on="1"/>
        <pt x="36" y="507" on="0"/>
        <pt x="4" y="535" on="0"/>
        <pt x="4" y="556" on="1"/>
        <pt x="4" y="577" on="0"/>
        <pt x="33" y="608" on="0"/>
        <pt x="57" y="609" on="1"/>
        <pt x="79" y="610" on="1"/>
        <pt x="79" y="676" on="1"/>
        <pt x="79" y="699" on="0"/>
        <pt x="108" y="728" on="0"/>
        <pt x="129" y="728" on="1"/>
        <pt x="153" y="728" on="0"/>
        <pt x="181" y="697" on="0"/>
        <pt x="181" y="668" on="1"/>
        <pt x="181" y="613" on="1"/>
        <pt x="351" y="617" on="0"/>
        <pt x="430" y="617" on="1"/>
        <pt x="431" y="686" on="1"/>
        <pt x="432" y="710" on="0"/>
        <pt x="461" y="737" on="0"/>
        <pt x="484" y="737" on="1"/>
        <pt x="504" y="737" on="0"/>
        <pt x="534" y="711" on="0"/>
        <pt x="534" y="689" on="1"/>
        <pt x="533" y="618" on="1"/>
        <pt x="538" y="618" on="1"/>
        <pt x="564" y="618" on="0"/>
        <pt x="592" y="592" on="0"/>
        <pt x="592" y="574" on="1"/>
        <pt x="592" y="556" on="0"/>
        <pt x="562" y="529" on="0"/>
        <pt x="536" y="529" on="1"/>
        <pt x="531" y="529" on="1"/>
        <pt x="526" y="322" on="0"/>
        <pt x="510" y="17" on="1"/>
        <pt x="509" y="-8" on="0"/>
        <pt x="481" y="-35" on="0"/>
        <pt x="459" y="-35" on="1"/>
        <pt x="438" y="-35" on="0"/>
        <pt x="411" y="-5" on="0"/>
        <pt x="412" y="23" on="1"/>
      </contour>
      <contour>
        <pt x="303" y="422" on="0"/>
        <pt x="427" y="423" on="1"/>
        <pt x="427" y="459" on="0"/>
        <pt x="429" y="527" on="1"/>
        <pt x="318" y="524" on="0"/>
        <pt x="179" y="516" on="1"/>
        <pt x="178" y="417" on="1"/>
      </contour>
    </TTGlyph>
    <TTGlyph name="Hcircumflex" xMin="66" yMin="-35" xMax="535" yMax="949">
      <component glyphName="H" x="0" y="0" flags="0x400"/>
      <component glyphName="uni0302.case" x="157" y="25" flags="0x404"/>
    </TTGlyph>
    <TTGlyph name="I" xMin="84" yMin="-17" xMax="210" yMax="722">
      <contour>
        <pt x="110" y="694" on="0"/>
        <pt x="137" y="722" on="0"/>
        <pt x="160" y="722" on="1"/>
        <pt x="181" y="722" on="0"/>
        <pt x="210" y="691" on="0"/>
        <pt x="209" y="667" on="1"/>
        <pt x="206" y="575" on="0"/>
        <pt x="198" y="411" on="1"/>
        <pt x="188" y="221" on="0"/>
        <pt x="183" y="41" on="1"/>
        <pt x="182" y="13" on="0"/>
        <pt x="154" y="-17" on="0"/>
        <pt x="132" y="-17" on="1"/>
        <pt x="113" y="-17" on="0"/>
        <pt x="89" y="12" on="0"/>
        <pt x="86" y="41" on="1"/>
        <pt x="84" y="56" on="0"/>
        <pt x="84" y="87" on="1"/>
        <pt x="84" y="179" on="0"/>
        <pt x="91" y="352" on="0"/>
        <pt x="99" y="512" on="0"/>
        <pt x="101" y="542" on="1"/>
        <pt x="107" y="628" on="0"/>
        <pt x="109" y="673" on="1"/>
      </contour>
    </TTGlyph>
    <TTGlyph name="I.init" xMin="84" yMin="-17" xMax="210" yMax="722">
      <component glyphName="I" x="0" y="0" flags="0x400"/>
    </TTGlyph>
    <TTGlyph name="I.isol" xMin="42" yMin="-17" xMax="402" yMax="731">
      <contour>
        <pt x="370" y="82" on="0"/>
        <pt x="402" y="57" on="0"/>
        <pt x="402" y="38" on="1"/>
        <pt x="402" y="18" on="0"/>
        <pt x="371" y="-9" on="0"/>
        <pt x="338" y="-10" on="1"/>
        <pt x="191" y="-17" on="0"/>
        <pt x="99" y="-17" on="1"/>
        <pt x="72" y="-17" on="0"/>
        <pt x="42" y="10" on="0"/>
        <pt x="42" y="30" on="1"/>
        <pt x="42" y="73" on="0"/>
        <pt x="101" y="76" on="1"/>
        <pt x="158" y="78" on="1"/>
        <pt x="164" y="257" on="0"/>
        <pt x="164" y="436" on="1"/>
        <pt x="164" y="503" on="0"/>
        <pt x="162" y="637" on="1"/>
        <pt x="112" y="637" on="1"/>
        <pt x="84" y="637" on="0"/>
        <pt x="53" y="663" on="0"/>
        <pt x="53" y="684" on="1"/>
        <pt x="53" y="704" on="0"/>
        <pt x="82" y="731" on="0"/>
        <pt x="111" y="731" on="1"/>
        <pt x="322" y="731" on="1"/>
        <pt x="350" y="731" on="0"/>
        <pt x="381" y="704" on="0"/>
        <pt x="381" y="685" on="1"/>
        <pt x="381" y="666" on="0"/>
        <pt x="352" y="640" on="0"/>
        <pt x="323" y="639" on="1"/>
        <pt x="262" y="637" on="1"/>
        <pt x="264" y="565" on="0"/>
        <pt x="264" y="422" on="1"/>
        <pt x="264" y="252" on="0"/>
        <pt x="258" y="81" on="1"/>
        <pt x="344" y="82" on="1"/>
      </contour>
    </TTGlyph>
    <TTGlyph name="IJ" xMin="84" yMin="-35" xMax="811" yMax="727">
      <component glyphName="I" x="0" y="0" flags="0x400"/>
      <component glyphName="J" x="297" y="0" flags="0x400"/>
    </TTGlyph>
    <TTGlyph name="Iacute" xMin="84" yMin="-17" xMax="370" yMax="930">
      <component glyphName="I" x="0" y="0" flags="0x400"/>
      <component glyphName="acutecomb.case" x="10" y="0" flags="0x400"/>
    </TTGlyph>
    <TTGlyph name="Ibreve" xMin="-9" yMin="-17" xMax="343" yMax="956">
      <component glyphName="I" x="0" y="0" flags="0x400"/>
      <component glyphName="uni0306.case" x="-138" y="-10" flags="0x404"/>
    </TTGlyph>
    <TTGlyph name="Icircumflex" xMin="-28" yMin="-17" xMax="348" yMax="939">
      <component glyphName="I" x="0" y="0" flags="0x400"/>
      <component glyphName="uni0302.case" x="21" y="15" flags="0x404"/>
    </TTGlyph>
    <TTGlyph name="Idieresis" xMin="-10" yMin="-17" xMax="356" yMax="922">
      <component glyphName="I" x="0" y="0" flags="0x400"/>
      <component glyphName="uni0308.case" x="-185" y="-30" flags="0x404"/>
    </TTGlyph>
    <TTGlyph name="Idotaccent" xMin="84" yMin="-17" xMax="252" yMax="924">
      <component glyphName="I" x="0" y="0" flags="0x400"/>
      <component glyphName="uni0307.case" x="-209" y="10" flags="0x404"/>
    </TTGlyph>
    <TTGlyph name="Igrave" xMin="21" yMin="-17" xMax="210" yMax="917">
      <component glyphName="I" x="0" y="0" flags="0x400"/>
      <component glyphName="gravecomb.case" x="15" y="0" flags="0x400"/>
    </TTGlyph>
    <TTGlyph name="Imacron" xMin="-23" yMin="-17" xMax="368" yMax="876">
      <component glyphName="I" x="0" y="0" flags="0x400"/>
      <component glyphName="uni0304.case" x="-78" y="6" flags="0x404"/>
    </TTGlyph>
    <TTGlyph name="Iogonek" xMin="-28" yMin="-294" xMax="237" yMax="722">
      <contour>
        <pt x="110" y="694" on="0"/>
        <pt x="137" y="722" on="0"/>
        <pt x="160" y="722" on="1"/>
        <pt x="181" y="722" on="0"/>
        <pt x="210" y="691" on="0"/>
        <pt x="209" y="667" on="1"/>
        <pt x="206" y="575" on="0"/>
        <pt x="198" y="411" on="1"/>
        <pt x="188" y="221" on="0"/>
        <pt x="183" y="41" on="1"/>
        <pt x="182" y="8" on="0"/>
        <pt x="164" y="-6" on="1"/>
        <pt x="122" y="-56" on="0"/>
        <pt x="80" y="-127" on="0"/>
        <pt x="80" y="-161" on="1"/>
        <pt x="80" y="-198" on="0"/>
        <pt x="119" y="-198" on="1"/>
        <pt x="141" y="-198" on="0"/>
        <pt x="185" y="-184" on="1"/>
        <pt x="196" y="-181" on="0"/>
        <pt x="203" y="-181" on="1"/>
        <pt x="219" y="-181" on="0"/>
        <pt x="237" y="-201" on="0"/>
        <pt x="237" y="-216" on="1"/>
        <pt x="237" y="-243" on="0"/>
        <pt x="211" y="-262" on="1"/>
        <pt x="190" y="-277" on="0"/>
        <pt x="133" y="-294" on="0"/>
        <pt x="103" y="-294" on="1"/>
        <pt x="48" y="-294" on="0"/>
        <pt x="-28" y="-235" on="0"/>
        <pt x="-28" y="-177" on="1"/>
        <pt x="-28" y="-125" on="0"/>
        <pt x="36" y="-21" on="0"/>
        <pt x="88" y="26" on="1"/>
        <pt x="86" y="41" on="1"/>
        <pt x="84" y="56" on="0"/>
        <pt x="84" y="87" on="1"/>
        <pt x="84" y="179" on="0"/>
        <pt x="91" y="352" on="0"/>
        <pt x="99" y="512" on="0"/>
        <pt x="101" y="542" on="1"/>
        <pt x="107" y="628" on="0"/>
        <pt x="109" y="673" on="1"/>
      </contour>
    </TTGlyph>
    <TTGlyph name="Iota" xMin="84" yMin="-17" xMax="210" yMax="722">
      <component glyphName="I" x="0" y="0" flags="0x400"/>
    </TTGlyph>
    <TTGlyph name="Iotadieresis" xMin="-10" yMin="-17" xMax="356" yMax="922">
      <component glyphName="I" x="0" y="0" flags="0x400"/>
      <component glyphName="uni0308.case" x="-185" y="-30" flags="0x404"/>
    </TTGlyph>
    <TTGlyph name="Iotatonos" xMin="34" yMin="-17" xMax="350" yMax="723">
      <component glyphName="tonos" x="3" y="5" flags="0x404"/>
      <component glyphName="I" x="140" y="0" flags="0x400"/>
    </TTGlyph>
    <TTGlyph name="Itilde" xMin="-33" yMin="-17" xMax="380" yMax="922">
      <component glyphName="I" x="0" y="0" flags="0x400"/>
      <component glyphName="tildecomb.case" x="39" y="10" flags="0x404"/>
    </TTGlyph>
    <TTGlyph name="J" xMin="36" yMin="-35" xMax="514" yMax="727">
      <contour>
        <pt x="201" y="-35" on="0"/>
        <pt x="93" y="23" on="0"/>
        <pt x="36" y="128" on="0"/>
        <pt x="36" y="196" on="1"/>
        <pt x="36" y="275" on="0"/>
        <pt x="85" y="275" on="1"/>
        <pt x="104" y="275" on="0"/>
        <pt x="130" y="250" on="0"/>
        <pt x="129" y="223" on="1"/>
        <pt x="127" y="149" on="0"/>
        <pt x="199" y="59" on="0"/>
        <pt x="266" y="59" on="1"/>
        <pt x="324" y="59" on="0"/>
        <pt x="397" y="143" on="0"/>
        <pt x="407" y="228" on="1"/>
        <pt x="415" y="291" on="0"/>
        <pt x="415" y="380" on="1"/>
        <pt x="415" y="505" on="0"/>
        <pt x="401" y="631" on="1"/>
        <pt x="134" y="630" on="1"/>
        <pt x="108" y="630" on="0"/>
        <pt x="79" y="656" on="0"/>
        <pt x="79" y="676" on="1"/>
        <pt x="79" y="697" on="0"/>
        <pt x="107" y="724" on="0"/>
        <pt x="135" y="725" on="1"/>
        <pt x="219" y="727" on="0"/>
        <pt x="273" y="727" on="1"/>
        <pt x="366" y="727" on="0"/>
        <pt x="430" y="723" on="1"/>
        <pt x="463" y="721" on="0"/>
        <pt x="495" y="690" on="0"/>
        <pt x="498" y="663" on="1"/>
        <pt x="514" y="523" on="0"/>
        <pt x="514" y="392" on="1"/>
        <pt x="514" y="289" on="0"/>
        <pt x="505" y="221" on="1"/>
        <pt x="489" y="94" on="0"/>
        <pt x="373" y="-35" on="0"/>
        <pt x="275" y="-35" on="1"/>
      </contour>
    </TTGlyph>
    <TTGlyph name="Jcircumflex" xMin="36" yMin="-35" xMax="514" yMax="943">
      <component glyphName="J" x="0" y="0" flags="0x400"/>
      <component glyphName="uni0302.case" x="138" y="19" flags="0x404"/>
    </TTGlyph>
    <TTGlyph name="K" xMin="39" yMin="-26" xMax="562" yMax="743">
      <contour>
        <pt x="44" y="-24" on="0"/>
        <pt x="41" y="24" on="1"/>
        <pt x="39" y="54" on="0"/>
        <pt x="39" y="79" on="1"/>
        <pt x="39" y="156" on="0"/>
        <pt x="55" y="383" on="0"/>
        <pt x="73" y="607" on="1"/>
        <pt x="79" y="667" on="0"/>
        <pt x="81" y="697" on="1"/>
        <pt x="82" y="717" on="0"/>
        <pt x="112" y="743" on="0"/>
        <pt x="133" y="743" on="1"/>
        <pt x="153" y="743" on="0"/>
        <pt x="182" y="713" on="0"/>
        <pt x="182" y="689" on="1"/>
        <pt x="182" y="650" on="0"/>
        <pt x="165" y="465" on="1"/>
        <pt x="159" y="393" on="1"/>
        <pt x="145" y="243" on="0"/>
        <pt x="130" y="149" on="1"/>
        <pt x="311" y="459" on="0"/>
        <pt x="454" y="694" on="1"/>
        <pt x="476" y="730" on="0"/>
        <pt x="510" y="730" on="1"/>
        <pt x="530" y="730" on="0"/>
        <pt x="559" y="704" on="0"/>
        <pt x="559" y="684" on="1"/>
        <pt x="559" y="670" on="0"/>
        <pt x="548" y="651" on="1"/>
        <pt x="451" y="495" on="0"/>
        <pt x="444" y="483" on="1"/>
        <pt x="357" y="342" on="1"/>
        <pt x="387" y="262" on="0"/>
        <pt x="498" y="109" on="0"/>
        <pt x="545" y="61" on="1"/>
        <pt x="562" y="44" on="0"/>
        <pt x="562" y="23" on="1"/>
        <pt x="562" y="3" on="0"/>
        <pt x="533" y="-26" on="0"/>
        <pt x="513" y="-26" on="1"/>
        <pt x="495" y="-26" on="0"/>
        <pt x="478" y="-13" on="1"/>
        <pt x="441" y="16" on="0"/>
        <pt x="333" y="167" on="0"/>
        <pt x="299" y="249" on="1"/>
        <pt x="196" y="84" on="0"/>
        <pt x="142" y="12" on="1"/>
        <pt x="134" y="-5" on="0"/>
        <pt x="108" y="-24" on="0"/>
        <pt x="91" y="-24" on="1"/>
      </contour>
    </TTGlyph>
    <TTGlyph name="Kappa" xMin="39" yMin="-26" xMax="562" yMax="743">
      <component glyphName="K" x="0" y="0" flags="0x400"/>
    </TTGlyph>
    <TTGlyph name="L" xMin="64" yMin="-20" xMax="517" yMax="721">
      <contour>
        <pt x="107" y="695" on="0"/>
        <pt x="136" y="721" on="0"/>
        <pt x="157" y="721" on="1"/>
        <pt x="176" y="721" on="0"/>
        <pt x="207" y="694" on="0"/>
        <pt x="206" y="671" on="1"/>
        <pt x="204" y="573" on="0"/>
        <pt x="186" y="363" on="0"/>
        <pt x="185" y="347" on="1"/>
        <pt x="171" y="190" on="0"/>
        <pt x="166" y="77" on="1"/>
        <pt x="178" y="76" on="0"/>
        <pt x="203" y="76" on="1"/>
        <pt x="280" y="76" on="0"/>
        <pt x="404" y="86" on="1"/>
        <pt x="421" y="88" on="0"/>
        <pt x="463" y="90" on="1"/>
        <pt x="488" y="91" on="0"/>
        <pt x="517" y="66" on="0"/>
        <pt x="517" y="44" on="1"/>
        <pt x="517" y="22" on="0"/>
        <pt x="488" y="-4" on="0"/>
        <pt x="463" y="-6" on="1"/>
        <pt x="414" y="-11" on="0"/>
        <pt x="262" y="-20" on="0"/>
        <pt x="212" y="-20" on="1"/>
        <pt x="151" y="-20" on="0"/>
        <pt x="113" y="-12" on="1"/>
        <pt x="83" y="-6" on="0"/>
        <pt x="64" y="35" on="0"/>
        <pt x="64" y="81" on="1"/>
        <pt x="64" y="139" on="0"/>
        <pt x="74" y="268" on="0"/>
        <pt x="84" y="376" on="1"/>
        <pt x="104" y="571" on="0"/>
        <pt x="106" y="673" on="1"/>
      </contour>
    </TTGlyph>
    <TTGlyph name="L_O_L" xMin="73" yMin="-16" xMax="1268" yMax="730">
      <contour>
        <pt x="244" y="-11" on="0"/>
        <pt x="143" y="4" on="1"/>
        <pt x="105" y="10" on="0"/>
        <pt x="73" y="57" on="0"/>
        <pt x="73" y="97" on="1"/>
        <pt x="73" y="322" on="0"/>
        <pt x="113" y="674" on="1"/>
        <pt x="116" y="700" on="0"/>
        <pt x="143" y="730" on="0"/>
        <pt x="165" y="730" on="1"/>
        <pt x="186" y="730" on="0"/>
        <pt x="214" y="701" on="0"/>
        <pt x="211" y="677" on="1"/>
        <pt x="194" y="517" on="0"/>
        <pt x="171" y="234" on="0"/>
        <pt x="170" y="87" on="1"/>
        <pt x="305" y="79" on="0"/>
        <pt x="490" y="79" on="1"/>
        <pt x="516" y="79" on="0"/>
        <pt x="544" y="56" on="0"/>
        <pt x="544" y="34" on="1"/>
        <pt x="544" y="14" on="0"/>
        <pt x="517" y="-11" on="0"/>
        <pt x="492" y="-11" on="1"/>
      </contour>
      <contour>
        <pt x="268" y="491" on="0"/>
        <pt x="331" y="638" on="0"/>
        <pt x="445" y="726" on="0"/>
        <pt x="519" y="726" on="1"/>
        <pt x="565" y="726" on="0"/>
        <pt x="625" y="697" on="0"/>
        <pt x="633" y="671" on="1"/>
        <pt x="641" y="675" on="0"/>
        <pt x="655" y="675" on="1"/>
        <pt x="684" y="675" on="0"/>
        <pt x="738" y="625" on="0"/>
        <pt x="771" y="535" on="0"/>
        <pt x="771" y="478" on="1"/>
        <pt x="771" y="456" on="0"/>
        <pt x="768" y="430" on="1"/>
        <pt x="759" y="359" on="0"/>
        <pt x="682" y="237" on="0"/>
        <pt x="559" y="163" on="0"/>
        <pt x="486" y="163" on="1"/>
        <pt x="425" y="163" on="0"/>
        <pt x="326" y="218" on="0"/>
        <pt x="268" y="328" on="0"/>
        <pt x="268" y="405" on="1"/>
      </contour>
      <contour>
        <pt x="369" y="333" on="0"/>
        <pt x="431" y="253" on="0"/>
        <pt x="488" y="253" on="1"/>
        <pt x="540" y="253" on="0"/>
        <pt x="623" y="311" on="0"/>
        <pt x="670" y="411" on="0"/>
        <pt x="670" y="472" on="1"/>
        <pt x="670" y="566" on="0"/>
        <pt x="627" y="596" on="1"/>
        <pt x="607" y="610" on="0"/>
        <pt x="603" y="629" on="1"/>
        <pt x="595" y="625" on="0"/>
        <pt x="585" y="625" on="1"/>
        <pt x="573" y="625" on="0"/>
        <pt x="555" y="632" on="1"/>
        <pt x="533" y="640" on="0"/>
        <pt x="520" y="640" on="1"/>
        <pt x="475" y="640" on="0"/>
        <pt x="406" y="573" on="0"/>
        <pt x="369" y="465" on="0"/>
        <pt x="369" y="408" on="1"/>
      </contour>
      <contour>
        <pt x="815" y="187" on="0"/>
        <pt x="837" y="481" on="0"/>
        <pt x="856" y="672" on="1"/>
        <pt x="862" y="725" on="0"/>
        <pt x="908" y="725" on="1"/>
        <pt x="933" y="725" on="0"/>
        <pt x="958" y="690" on="0"/>
        <pt x="955" y="657" on="1"/>
        <pt x="952" y="625" on="1"/>
        <pt x="933" y="451" on="0"/>
        <pt x="913" y="189" on="0"/>
        <pt x="914" y="72" on="1"/>
        <pt x="1051" y="73" on="0"/>
        <pt x="1210" y="88" on="1"/>
        <pt x="1238" y="90" on="0"/>
        <pt x="1268" y="64" on="0"/>
        <pt x="1268" y="43" on="1"/>
        <pt x="1268" y="24" on="0"/>
        <pt x="1242" y="0" on="0"/>
        <pt x="1219" y="-2" on="1"/>
        <pt x="1168" y="-7" on="0"/>
        <pt x="1020" y="-16" on="0"/>
        <pt x="977" y="-16" on="1"/>
        <pt x="910" y="-16" on="0"/>
        <pt x="864" y="-9" on="1"/>
        <pt x="834" y="-1" on="0"/>
        <pt x="815" y="39" on="0"/>
        <pt x="815" y="85" on="1"/>
      </contour>
    </TTGlyph>
    <TTGlyph name="Lacute" xMin="44" yMin="-20" xMax="497" yMax="930">
      <component glyphName="L" x="-20" y="0" flags="0x400"/>
      <component glyphName="acutecomb.case" x="-8" y="0" flags="0x400"/>
    </TTGlyph>
    <TTGlyph name="Lambda" xMin="12" yMin="-20" xMax="585" yMax="737">
      <contour>
        <pt x="81" y="-20" on="0"/>
        <pt x="58" y="-20" on="1"/>
        <pt x="39" y="-20" on="0"/>
        <pt x="12" y="8" on="0"/>
        <pt x="12" y="29" on="1"/>
        <pt x="12" y="37" on="0"/>
        <pt x="17" y="54" on="1"/>
        <pt x="39" y="91" on="0"/>
        <pt x="65" y="173" on="0"/>
        <pt x="80" y="235" on="1"/>
        <pt x="89" y="274" on="1"/>
        <pt x="114" y="372" on="0"/>
        <pt x="224" y="676" on="0"/>
        <pt x="253" y="711" on="1"/>
        <pt x="274" y="737" on="0"/>
        <pt x="297" y="737" on="1"/>
        <pt x="329" y="737" on="0"/>
        <pt x="372" y="653" on="0"/>
        <pt x="392" y="584" on="1"/>
        <pt x="399" y="561" on="0"/>
        <pt x="404" y="546" on="1"/>
        <pt x="454" y="403" on="0"/>
        <pt x="463" y="377" on="1"/>
        <pt x="533" y="172" on="0"/>
        <pt x="577" y="61" on="1"/>
        <pt x="585" y="43" on="0"/>
        <pt x="585" y="32" on="1"/>
        <pt x="585" y="9" on="0"/>
        <pt x="557" y="-20" on="0"/>
        <pt x="538" y="-20" on="1"/>
        <pt x="511" y="-20" on="0"/>
        <pt x="493" y="4" on="1"/>
        <pt x="458" y="88" on="0"/>
        <pt x="403" y="243" on="0"/>
        <pt x="351" y="392" on="1"/>
        <pt x="339" y="426" on="0"/>
        <pt x="310" y="513" on="0"/>
        <pt x="291" y="565" on="1"/>
        <pt x="221" y="384" on="0"/>
        <pt x="186" y="250" on="1"/>
        <pt x="183" y="240" on="0"/>
        <pt x="176" y="210" on="1"/>
        <pt x="156" y="133" on="0"/>
        <pt x="126" y="44" on="0"/>
        <pt x="100" y="-1" on="1"/>
      </contour>
    </TTGlyph>
    <TTGlyph name="Lcaron" xMin="44" yMin="-20" xMax="497" yMax="765">
      <component glyphName="L" x="-20" y="0" flags="0x400"/>
      <component glyphName="uni030C.alt001" x="-54" y="40" flags="0x404"/>
    </TTGlyph>
    <TTGlyph name="Ldot" xMin="64" yMin="-20" xMax="517" yMax="721">
      <component glyphName="L" x="0" y="0" flags="0x400"/>
      <component glyphName="uni0307" x="19" y="-292" flags="0x404"/>
    </TTGlyph>
    <TTGlyph name="Lslash" xMin="-29" yMin="-20" xMax="517" yMax="721">
      <contour>
        <pt x="35" y="223" on="0"/>
        <pt x="21" y="223" on="1"/>
        <pt x="0" y="223" on="0"/>
        <pt x="-29" y="250" on="0"/>
        <pt x="-29" y="269" on="1"/>
        <pt x="-29" y="294" on="0"/>
        <pt x="-2" y="314" on="1"/>
        <pt x="28" y="335" on="0"/>
        <pt x="83" y="365" on="1"/>
        <pt x="103" y="568" on="0"/>
        <pt x="106" y="673" on="1"/>
        <pt x="107" y="695" on="0"/>
        <pt x="136" y="721" on="0"/>
        <pt x="157" y="721" on="1"/>
        <pt x="176" y="721" on="0"/>
        <pt x="206" y="695" on="0"/>
        <pt x="206" y="673" on="1"/>
        <pt x="206" y="617" on="0"/>
        <pt x="197" y="485" on="0"/>
        <pt x="192" y="423" on="1"/>
        <pt x="254" y="455" on="0"/>
        <pt x="288" y="469" on="1"/>
        <pt x="305" y="476" on="0"/>
        <pt x="322" y="476" on="1"/>
        <pt x="341" y="476" on="0"/>
        <pt x="365" y="457" on="0"/>
        <pt x="365" y="442" on="1"/>
        <pt x="365" y="421" on="0"/>
        <pt x="341" y="404" on="1"/>
        <pt x="276" y="358" on="0"/>
        <pt x="181" y="304" on="1"/>
        <pt x="169" y="151" on="0"/>
        <pt x="166" y="77" on="1"/>
        <pt x="178" y="76" on="0"/>
        <pt x="203" y="76" on="1"/>
        <pt x="280" y="76" on="0"/>
        <pt x="404" y="86" on="1"/>
        <pt x="421" y="88" on="0"/>
        <pt x="463" y="90" on="1"/>
        <pt x="488" y="91" on="0"/>
        <pt x="517" y="66" on="0"/>
        <pt x="517" y="44" on="1"/>
        <pt x="517" y="22" on="0"/>
        <pt x="488" y="-4" on="0"/>
        <pt x="463" y="-6" on="1"/>
        <pt x="414" y="-11" on="0"/>
        <pt x="262" y="-20" on="0"/>
        <pt x="212" y="-20" on="1"/>
        <pt x="151" y="-20" on="0"/>
        <pt x="113" y="-12" on="1"/>
        <pt x="83" y="-6" on="0"/>
        <pt x="64" y="35" on="0"/>
        <pt x="64" y="81" on="1"/>
        <pt x="64" y="151" on="0"/>
        <pt x="72" y="242" on="1"/>
        <pt x="51" y="231" on="1"/>
      </contour>
    </TTGlyph>
    <TTGlyph name="M" xMin="26" yMin="-29" xMax="664" yMax="741">
      <contour>
        <pt x="50" y="-29" on="0"/>
        <pt x="26" y="-3" on="0"/>
        <pt x="26" y="19" on="1"/>
        <pt x="28" y="44" on="1"/>
        <pt x="52" y="204" on="0"/>
        <pt x="79" y="496" on="0"/>
        <pt x="87" y="671" on="1"/>
        <pt x="88" y="695" on="0"/>
        <pt x="115" y="731" on="0"/>
        <pt x="142" y="731" on="1"/>
        <pt x="168" y="731" on="0"/>
        <pt x="199" y="702" on="0"/>
        <pt x="212" y="675" on="1"/>
        <pt x="280" y="522" on="0"/>
        <pt x="363" y="378" on="1"/>
        <pt x="425" y="480" on="0"/>
        <pt x="540" y="698" on="1"/>
        <pt x="560" y="741" on="0"/>
        <pt x="598" y="741" on="1"/>
        <pt x="625" y="741" on="0"/>
        <pt x="651" y="704" on="0"/>
        <pt x="649" y="669" on="1"/>
        <pt x="646" y="573" on="0"/>
        <pt x="646" y="482" on="1"/>
        <pt x="646" y="289" on="0"/>
        <pt x="662" y="35" on="1"/>
        <pt x="664" y="6" on="0"/>
        <pt x="639" y="-28" on="0"/>
        <pt x="613" y="-28" on="1"/>
        <pt x="591" y="-28" on="0"/>
        <pt x="561" y="3" on="0"/>
        <pt x="559" y="31" on="1"/>
        <pt x="549" y="161" on="0"/>
        <pt x="549" y="322" on="1"/>
        <pt x="550" y="432" on="1"/>
        <pt x="551" y="468" on="0"/>
        <pt x="551" y="537" on="1"/>
        <pt x="516" y="466" on="0"/>
        <pt x="457" y="357" on="0"/>
        <pt x="421" y="303" on="1"/>
        <pt x="409" y="283" on="0"/>
        <pt x="377" y="258" on="0"/>
        <pt x="352" y="258" on="1"/>
        <pt x="308" y="258" on="0"/>
        <pt x="285" y="318" on="1"/>
        <pt x="231" y="415" on="0"/>
        <pt x="177" y="540" on="1"/>
        <pt x="171" y="312" on="0"/>
        <pt x="128" y="46" on="1"/>
        <pt x="122" y="7" on="0"/>
        <pt x="96" y="-29" on="0"/>
        <pt x="71" y="-29" on="1"/>
      </contour>
    </TTGlyph>
    <TTGlyph name="Mu" xMin="26" yMin="-29" xMax="664" yMax="741">
      <component glyphName="M" x="0" y="0" flags="0x400"/>
    </TTGlyph>
    <TTGlyph name="N" xMin="76" yMin="-32" xMax="592" yMax="728">
      <contour>
        <pt x="105" y="-26" on="0"/>
        <pt x="76" y="3" on="0"/>
        <pt x="76" y="32" on="1"/>
        <pt x="76" y="157" on="0"/>
        <pt x="85" y="413" on="0"/>
        <pt x="94" y="606" on="1"/>
        <pt x="97" y="660" on="1"/>
        <pt x="99" y="698" on="0"/>
        <pt x="125" y="728" on="0"/>
        <pt x="147" y="728" on="1"/>
        <pt x="165" y="728" on="0"/>
        <pt x="191" y="709" on="0"/>
        <pt x="200" y="685" on="1"/>
        <pt x="309" y="377" on="0"/>
        <pt x="487" y="119" on="1"/>
        <pt x="491" y="238" on="0"/>
        <pt x="491" y="366" on="1"/>
        <pt x="491" y="495" on="0"/>
        <pt x="486" y="668" on="1"/>
        <pt x="485" y="692" on="0"/>
        <pt x="516" y="720" on="0"/>
        <pt x="536" y="720" on="1"/>
        <pt x="556" y="720" on="0"/>
        <pt x="585" y="694" on="0"/>
        <pt x="586" y="668" on="1"/>
        <pt x="592" y="562" on="0"/>
        <pt x="592" y="438" on="1"/>
        <pt x="592" y="321" on="0"/>
        <pt x="580" y="103" on="0"/>
        <pt x="568" y="25" on="1"/>
        <pt x="559" y="-32" on="0"/>
        <pt x="513" y="-32" on="1"/>
        <pt x="480" y="-32" on="0"/>
        <pt x="454" y="1" on="1"/>
        <pt x="295" y="200" on="0"/>
        <pt x="183" y="480" on="1"/>
        <pt x="181" y="301" on="1"/>
        <pt x="181" y="256" on="0"/>
        <pt x="180" y="122" on="0"/>
        <pt x="178" y="28" on="1"/>
        <pt x="177" y="2" on="0"/>
        <pt x="148" y="-26" on="0"/>
        <pt x="126" y="-26" on="1"/>
      </contour>
    </TTGlyph>
    <TTGlyph name="Nacute" xMin="76" yMin="-32" xMax="592" yMax="930">
      <component glyphName="N" x="0" y="0" flags="0x400"/>
      <component glyphName="acutecomb.case" x="172" y="0" flags="0x400"/>
    </TTGlyph>
    <TTGlyph name="Ncaron" xMin="76" yMin="-32" xMax="592" yMax="996">
      <component glyphName="N" x="0" y="0" flags="0x400"/>
      <component glyphName="uni030C.case" x="197" y="85" flags="0x404"/>
    </TTGlyph>
    <TTGlyph name="Ntilde" xMin="76" yMin="-32" xMax="592" yMax="922">
      <component glyphName="N" x="0" y="0" flags="0x400"/>
      <component glyphName="tildecomb.case" x="201" y="10" flags="0x404"/>
    </TTGlyph>
    <TTGlyph name="Nu" xMin="76" yMin="-32" xMax="592" yMax="728">
      <component glyphName="N" x="0" y="0" flags="0x400"/>
    </TTGlyph>
    <TTGlyph name="O" xMin="35" yMin="-7" xMax="697" yMax="715">
      <contour>
        <pt x="254" y="-7" on="0"/>
        <pt x="113" y="77" on="0"/>
        <pt x="35" y="233" on="0"/>
        <pt x="35" y="339" on="1"/>
        <pt x="35" y="445" on="0"/>
        <pt x="121" y="617" on="0"/>
        <pt x="265" y="715" on="0"/>
        <pt x="349" y="715" on="1"/>
        <pt x="410" y="715" on="0"/>
        <pt x="509" y="671" on="0"/>
        <pt x="532" y="637" on="1"/>
        <pt x="606" y="605" on="0"/>
        <pt x="697" y="448" on="0"/>
        <pt x="697" y="354" on="1"/>
        <pt x="697" y="259" on="0"/>
        <pt x="605" y="92" on="0"/>
        <pt x="444" y="-7" on="0"/>
        <pt x="347" y="-7" on="1"/>
      </contour>
      <contour>
        <pt x="145" y="224" on="0"/>
        <pt x="251" y="89" on="0"/>
        <pt x="341" y="89" on="1"/>
        <pt x="415" y="89" on="0"/>
        <pt x="528" y="164" on="0"/>
        <pt x="588" y="289" on="0"/>
        <pt x="588" y="361" on="1"/>
        <pt x="588" y="395" on="0"/>
        <pt x="572" y="456" on="0"/>
        <pt x="553" y="486" on="1"/>
        <pt x="546" y="498" on="0"/>
        <pt x="523" y="523" on="0"/>
        <pt x="512" y="534" on="1"/>
        <pt x="496" y="549" on="0"/>
        <pt x="478" y="572" on="0"/>
        <pt x="476" y="584" on="1"/>
        <pt x="455" y="588" on="0"/>
        <pt x="431" y="601" on="1"/>
        <pt x="398" y="620" on="0"/>
        <pt x="361" y="620" on="1"/>
        <pt x="299" y="620" on="0"/>
        <pt x="201" y="546" on="0"/>
        <pt x="145" y="423" on="0"/>
        <pt x="145" y="353" on="1"/>
      </contour>
    </TTGlyph>
    <TTGlyph name="OE" xMin="66" yMin="-31" xMax="897" yMax="779">
      <contour>
        <pt x="272" y="-31" on="0"/>
        <pt x="138" y="67" on="0"/>
        <pt x="66" y="246" on="0"/>
        <pt x="66" y="364" on="1"/>
        <pt x="66" y="458" on="0"/>
        <pt x="140" y="651" on="0"/>
        <pt x="290" y="779" on="0"/>
        <pt x="398" y="779" on="1"/>
        <pt x="451" y="779" on="0"/>
        <pt x="502" y="762" on="1"/>
        <pt x="548" y="776" on="0"/>
        <pt x="604" y="776" on="1"/>
        <pt x="717" y="776" on="0"/>
        <pt x="839" y="752" on="1"/>
        <pt x="865" y="747" on="0"/>
        <pt x="893" y="719" on="0"/>
        <pt x="893" y="699" on="1"/>
        <pt x="893" y="681" on="0"/>
        <pt x="869" y="656" on="0"/>
        <pt x="846" y="656" on="1"/>
        <pt x="836" y="656" on="0"/>
        <pt x="830" y="657" on="1"/>
        <pt x="767" y="668" on="0"/>
        <pt x="665" y="681" on="0"/>
        <pt x="616" y="681" on="1"/>
        <pt x="591" y="681" on="0"/>
        <pt x="567" y="678" on="1"/>
        <pt x="577" y="555" on="0"/>
        <pt x="578" y="430" on="1"/>
        <pt x="664" y="430" on="0"/>
        <pt x="711" y="425" on="1"/>
        <pt x="737" y="422" on="0"/>
        <pt x="767" y="395" on="0"/>
        <pt x="767" y="372" on="1"/>
        <pt x="767" y="351" on="0"/>
        <pt x="736" y="323" on="0"/>
        <pt x="709" y="326" on="1"/>
        <pt x="648" y="333" on="0"/>
        <pt x="579" y="335" on="1"/>
        <pt x="577" y="178" on="0"/>
        <pt x="574" y="102" on="1"/>
        <pt x="636" y="104" on="0"/>
        <pt x="769" y="116" on="0"/>
        <pt x="830" y="123" on="1"/>
        <pt x="864" y="126" on="0"/>
        <pt x="897" y="95" on="0"/>
        <pt x="897" y="74" on="1"/>
        <pt x="897" y="55" on="0"/>
        <pt x="869" y="28" on="0"/>
        <pt x="843" y="24" on="1"/>
        <pt x="708" y="6" on="0"/>
        <pt x="584" y="6" on="1"/>
        <pt x="553" y="6" on="0"/>
        <pt x="521" y="9" on="1"/>
        <pt x="486" y="-11" on="0"/>
        <pt x="400" y="-31" on="0"/>
        <pt x="362" y="-31" on="1"/>
      </contour>
      <contour>
        <pt x="174" y="251" on="0"/>
        <pt x="228" y="125" on="0"/>
        <pt x="316" y="63" on="0"/>
        <pt x="368" y="63" on="1"/>
        <pt x="418" y="63" on="0"/>
        <pt x="480" y="88" on="1"/>
        <pt x="482" y="212" on="0"/>
        <pt x="482" y="276" on="1"/>
        <pt x="482" y="507" on="0"/>
        <pt x="469" y="675" on="1"/>
        <pt x="431" y="683" on="0"/>
        <pt x="402" y="683" on="1"/>
        <pt x="330" y="683" on="0"/>
        <pt x="227" y="593" on="0"/>
        <pt x="174" y="438" on="0"/>
        <pt x="174" y="342" on="1"/>
      </contour>
    </TTGlyph>
    <TTGlyph name="Oacute" xMin="35" yMin="-7" xMax="697" yMax="920">
      <component glyphName="O" x="0" y="0" flags="0x400"/>
      <component glyphName="acutecomb.case" x="208" y="-10" flags="0x404"/>
    </TTGlyph>
    <TTGlyph name="Obreve" xMin="35" yMin="-7" xMax="697" yMax="946">
      <component glyphName="O" x="0" y="0" flags="0x400"/>
      <component glyphName="uni0306.case" x="60" y="-20" flags="0x404"/>
    </TTGlyph>
    <TTGlyph name="Ocircumflex" xMin="35" yMin="-7" xMax="697" yMax="929">
      <component glyphName="O" x="0" y="0" flags="0x400"/>
      <component glyphName="uni0302.case" x="219" y="5" flags="0x404"/>
    </TTGlyph>
    <TTGlyph name="Odieresis" xMin="42" yMin="-7" xMax="704" yMax="912">
      <component glyphName="O" x="7" y="0" flags="0x400"/>
      <component glyphName="uni0308.case" x="20" y="-40" flags="0x404"/>
    </TTGlyph>
    <TTGlyph name="Odieresis_grave" xMin="42" yMin="-7" xMax="704" yMax="1105">
      <component glyphName="O" x="7" y="0" flags="0x400"/>
      <component glyphName="uni0308.case" x="20" y="-40" flags="0x404"/>
      <component glyphName="gravecomb.case" x="225" y="188" flags="0x404"/>
    </TTGlyph>
    <TTGlyph name="Ograve" xMin="35" yMin="-7" xMax="697" yMax="907">
      <component glyphName="O" x="0" y="0" flags="0x400"/>
      <component glyphName="gravecomb.case" x="213" y="-10" flags="0x404"/>
    </TTGlyph>
    <TTGlyph name="Ohungarumlaut" xMin="35" yMin="-7" xMax="697" yMax="996">
      <component glyphName="O" x="0" y="0" flags="0x400"/>
      <component glyphName="uni030B.case" x="156" y="-10" flags="0x404"/>
    </TTGlyph>
    <TTGlyph name="Omacron" xMin="35" yMin="-7" xMax="697" yMax="866">
      <component glyphName="O" x="0" y="0" flags="0x400"/>
      <component glyphName="uni0304.case" x="120" y="-4" flags="0x404"/>
    </TTGlyph>
    <TTGlyph name="Omegatonos" xMin="-125" yMin="-3" xMax="701" yMax="738">
      <component glyphName="tonos" x="-156" y="5" flags="0x404"/>
      <component glyphName="uni03A9" x="0" y="0" flags="0x400"/>
    </TTGlyph>
    <TTGlyph name="Omicron" xMin="35" yMin="-7" xMax="697" yMax="715">
      <component glyphName="O" x="0" y="0" flags="0x400"/>
    </TTGlyph>
    <TTGlyph name="Omicrontonos" xMin="35" yMin="-7" xMax="858" yMax="723">
      <component glyphName="tonos" x="4" y="5" flags="0x404"/>
      <component glyphName="O" x="161" y="0" flags="0x400"/>
    </TTGlyph>
    <TTGlyph name="Oslash" xMin="36" yMin="-73" xMax="702" yMax="717">
      <contour>
        <pt x="244" y="-7" on="0"/>
        <pt x="184" y="27" on="1"/>
        <pt x="139" y="-41" on="1"/>
        <pt x="118" y="-73" on="0"/>
        <pt x="91" y="-73" on="1"/>
        <pt x="74" y="-73" on="0"/>
        <pt x="48" y="-45" on="0"/>
        <pt x="48" y="-25" on="1"/>
        <pt x="48" y="-7" on="0"/>
        <pt x="59" y="10" on="1"/>
        <pt x="110" y="88" on="1"/>
        <pt x="73" y="133" on="0"/>
        <pt x="36" y="256" on="0"/>
        <pt x="36" y="329" on="1"/>
        <pt x="36" y="444" on="0"/>
        <pt x="124" y="620" on="0"/>
        <pt x="278" y="717" on="0"/>
        <pt x="374" y="717" on="1"/>
        <pt x="488" y="717" on="0"/>
        <pt x="569" y="658" on="1"/>
        <pt x="610" y="699" on="1"/>
        <pt x="628" y="717" on="0"/>
        <pt x="651" y="717" on="1"/>
        <pt x="672" y="717" on="0"/>
        <pt x="702" y="689" on="0"/>
        <pt x="702" y="669" on="1"/>
        <pt x="702" y="646" on="0"/>
        <pt x="683" y="630" on="1"/>
        <pt x="668" y="616" on="1"/>
        <pt x="637" y="587" on="1"/>
        <pt x="698" y="499" on="0"/>
        <pt x="698" y="379" on="1"/>
        <pt x="698" y="359" on="0"/>
        <pt x="697" y="349" on="1"/>
        <pt x="689" y="236" on="0"/>
        <pt x="587" y="75" on="0"/>
        <pt x="424" y="-7" on="0"/>
        <pt x="327" y="-7" on="1"/>
      </contour>
      <contour>
        <pt x="145" y="353" on="0"/>
        <pt x="145" y="320" on="1"/>
        <pt x="145" y="237" on="0"/>
        <pt x="174" y="182" on="1"/>
        <pt x="323" y="393" on="0"/>
        <pt x="496" y="581" on="1"/>
        <pt x="444" y="621" on="0"/>
        <pt x="376" y="621" on="1"/>
        <pt x="309" y="621" on="0"/>
        <pt x="211" y="553" on="0"/>
        <pt x="156" y="445" on="0"/>
        <pt x="149" y="382" on="1"/>
      </contour>
      <contour>
        <pt x="284" y="89" on="0"/>
        <pt x="338" y="89" on="1"/>
        <pt x="438" y="89" on="0"/>
        <pt x="576" y="221" on="0"/>
        <pt x="587" y="351" on="1"/>
        <pt x="588" y="361" on="0"/>
        <pt x="588" y="379" on="1"/>
        <pt x="588" y="450" on="0"/>
        <pt x="558" y="507" on="1"/>
        <pt x="403" y="343" on="0"/>
        <pt x="241" y="112" on="1"/>
      </contour>
    </TTGlyph>
    <TTGlyph name="Oslashacute" xMin="36" yMin="-73" xMax="702" yMax="891">
      <contour>
        <pt x="244" y="-7" on="0"/>
        <pt x="184" y="27" on="1"/>
        <pt x="139" y="-41" on="1"/>
        <pt x="118" y="-73" on="0"/>
        <pt x="91" y="-73" on="1"/>
        <pt x="74" y="-73" on="0"/>
        <pt x="48" y="-45" on="0"/>
        <pt x="48" y="-25" on="1"/>
        <pt x="48" y="-7" on="0"/>
        <pt x="59" y="10" on="1"/>
        <pt x="110" y="88" on="1"/>
        <pt x="73" y="133" on="0"/>
        <pt x="36" y="256" on="0"/>
        <pt x="36" y="329" on="1"/>
        <pt x="36" y="432" on="0"/>
        <pt x="108" y="597" on="0"/>
        <pt x="236" y="699" on="0"/>
        <pt x="319" y="713" on="1"/>
        <pt x="307" y="717" on="0"/>
        <pt x="295" y="734" on="0"/>
        <pt x="295" y="746" on="1"/>
        <pt x="295" y="772" on="0"/>
        <pt x="333" y="790" on="1"/>
        <pt x="366" y="805" on="0"/>
        <pt x="449" y="855" on="0"/>
        <pt x="482" y="878" on="1"/>
        <pt x="501" y="891" on="0"/>
        <pt x="518" y="891" on="1"/>
        <pt x="537" y="891" on="0"/>
        <pt x="563" y="863" on="0"/>
        <pt x="563" y="841" on="1"/>
        <pt x="563" y="817" on="0"/>
        <pt x="539" y="797" on="1"/>
        <pt x="514" y="776" on="0"/>
        <pt x="429" y="731" on="0"/>
        <pt x="388" y="718" on="1"/>
        <pt x="384" y="717" on="1"/>
        <pt x="490" y="714" on="0"/>
        <pt x="569" y="658" on="1"/>
        <pt x="610" y="699" on="1"/>
        <pt x="628" y="717" on="0"/>
        <pt x="651" y="717" on="1"/>
        <pt x="672" y="717" on="0"/>
        <pt x="702" y="689" on="0"/>
        <pt x="702" y="669" on="1"/>
        <pt x="702" y="646" on="0"/>
        <pt x="683" y="630" on="1"/>
        <pt x="668" y="616" on="1"/>
        <pt x="637" y="587" on="1"/>
        <pt x="698" y="499" on="0"/>
        <pt x="698" y="379" on="1"/>
        <pt x="698" y="359" on="0"/>
        <pt x="697" y="349" on="1"/>
        <pt x="689" y="236" on="0"/>
        <pt x="587" y="75" on="0"/>
        <pt x="424" y="-7" on="0"/>
        <pt x="327" y="-7" on="1"/>
      </contour>
      <contour>
        <pt x="145" y="353" on="0"/>
        <pt x="145" y="320" on="1"/>
        <pt x="145" y="237" on="0"/>
        <pt x="174" y="182" on="1"/>
        <pt x="323" y="393" on="0"/>
        <pt x="496" y="581" on="1"/>
        <pt x="444" y="621" on="0"/>
        <pt x="376" y="621" on="1"/>
        <pt x="309" y="621" on="0"/>
        <pt x="211" y="553" on="0"/>
        <pt x="156" y="445" on="0"/>
        <pt x="149" y="382" on="1"/>
      </contour>
      <contour>
        <pt x="284" y="89" on="0"/>
        <pt x="338" y="89" on="1"/>
        <pt x="438" y="89" on="0"/>
        <pt x="576" y="221" on="0"/>
        <pt x="587" y="351" on="1"/>
        <pt x="588" y="361" on="0"/>
        <pt x="588" y="379" on="1"/>
        <pt x="588" y="450" on="0"/>
        <pt x="558" y="507" on="1"/>
        <pt x="403" y="343" on="0"/>
        <pt x="241" y="112" on="1"/>
      </contour>
    </TTGlyph>
    <TTGlyph name="Otilde" xMin="35" yMin="-7" xMax="697" yMax="912">
      <component glyphName="O" x="0" y="0" flags="0x400"/>
      <component glyphName="tildecomb.case" x="237" y="0" flags="0x400"/>
    </TTGlyph>
    <TTGlyph name="P" xMin="48" yMin="-27" xMax="572" yMax="736">
      <contour>
        <pt x="190" y="295" on="0"/>
        <pt x="173" y="296" on="1"/>
        <pt x="164" y="174" on="0"/>
        <pt x="147" y="21" on="1"/>
        <pt x="145" y="-1" on="0"/>
        <pt x="113" y="-27" on="0"/>
        <pt x="94" y="-27" on="1"/>
        <pt x="75" y="-27" on="0"/>
        <pt x="48" y="-1" on="0"/>
        <pt x="48" y="24" on="1"/>
        <pt x="48" y="36" on="0"/>
        <pt x="49" y="43" on="1"/>
        <pt x="81" y="439" on="0"/>
        <pt x="94" y="692" on="1"/>
        <pt x="95" y="711" on="0"/>
        <pt x="125" y="733" on="0"/>
        <pt x="144" y="733" on="1"/>
        <pt x="159" y="733" on="0"/>
        <pt x="184" y="720" on="0"/>
        <pt x="189" y="706" on="1"/>
        <pt x="263" y="736" on="0"/>
        <pt x="348" y="736" on="1"/>
        <pt x="407" y="736" on="0"/>
        <pt x="509" y="694" on="0"/>
        <pt x="572" y="605" on="0"/>
        <pt x="572" y="537" on="1"/>
        <pt x="572" y="416" on="0"/>
        <pt x="382" y="295" on="0"/>
        <pt x="223" y="295" on="1"/>
      </contour>
      <contour>
        <pt x="211" y="378" on="0"/>
        <pt x="225" y="378" on="1"/>
        <pt x="343" y="378" on="0"/>
        <pt x="465" y="461" on="0"/>
        <pt x="465" y="534" on="1"/>
        <pt x="465" y="641" on="0"/>
        <pt x="317" y="641" on="1"/>
        <pt x="256" y="641" on="0"/>
        <pt x="191" y="620" on="1"/>
        <pt x="187" y="500" on="0"/>
        <pt x="179" y="380" on="1"/>
      </contour>
    </TTGlyph>
    <TTGlyph name="Phi" xMin="19" yMin="-50" xMax="636" yMax="755">
      <component glyphName="uni0424" x="0" y="0" flags="0x400"/>
    </TTGlyph>
    <TTGlyph name="Pi" xMin="51" yMin="-29" xMax="537" yMax="729">
      <component glyphName="uni041F" x="0" y="0" flags="0x400"/>
    </TTGlyph>
    <TTGlyph name="Psi" xMin="-12" yMin="-27" xMax="635" yMax="718">
      <contour>
        <pt x="2" y="619" on="0"/>
        <pt x="-12" y="644" on="0"/>
        <pt x="-12" y="657" on="1"/>
        <pt x="-12" y="677" on="0"/>
        <pt x="17" y="705" on="0"/>
        <pt x="40" y="705" on="1"/>
        <pt x="91" y="705" on="0"/>
        <pt x="171" y="634" on="0"/>
        <pt x="186" y="571" on="1"/>
        <pt x="190" y="549" on="1"/>
        <pt x="201" y="486" on="0"/>
        <pt x="231" y="399" on="0"/>
        <pt x="260" y="383" on="1"/>
        <pt x="278" y="373" on="0"/>
        <pt x="287" y="370" on="1"/>
        <pt x="292" y="537" on="0"/>
        <pt x="292" y="663" on="1"/>
        <pt x="292" y="692" on="0"/>
        <pt x="324" y="718" on="0"/>
        <pt x="343" y="718" on="1"/>
        <pt x="363" y="718" on="0"/>
        <pt x="392" y="689" on="0"/>
        <pt x="392" y="659" on="1"/>
        <pt x="392" y="537" on="0"/>
        <pt x="387" y="377" on="1"/>
        <pt x="437" y="406" on="0"/>
        <pt x="468" y="478" on="1"/>
        <pt x="479" y="503" on="0"/>
        <pt x="495" y="548" on="0"/>
        <pt x="497" y="555" on="1"/>
        <pt x="512" y="601" on="0"/>
        <pt x="531" y="643" on="1"/>
        <pt x="542" y="668" on="0"/>
        <pt x="566" y="690" on="0"/>
        <pt x="589" y="690" on="1"/>
        <pt x="609" y="690" on="0"/>
        <pt x="635" y="663" on="0"/>
        <pt x="635" y="644" on="1"/>
        <pt x="635" y="635" on="0"/>
        <pt x="631" y="622" on="0"/>
        <pt x="625" y="609" on="0"/>
        <pt x="623" y="604" on="1"/>
        <pt x="603" y="552" on="0"/>
        <pt x="595" y="528" on="1"/>
        <pt x="565" y="446" on="0"/>
        <pt x="521" y="357" on="0"/>
        <pt x="445" y="289" on="0"/>
        <pt x="384" y="272" on="1"/>
        <pt x="380" y="164" on="0"/>
        <pt x="380" y="30" on="1"/>
        <pt x="380" y="2" on="0"/>
        <pt x="349" y="-27" on="0"/>
        <pt x="329" y="-27" on="1"/>
        <pt x="309" y="-27" on="0"/>
        <pt x="280" y="3" on="0"/>
        <pt x="280" y="31" on="1"/>
        <pt x="280" y="166" on="0"/>
        <pt x="284" y="269" on="1"/>
        <pt x="207" y="274" on="0"/>
        <pt x="126" y="395" on="0"/>
        <pt x="103" y="487" on="1"/>
        <pt x="99" y="500" on="0"/>
        <pt x="98" y="513" on="1"/>
        <pt x="91" y="547" on="0"/>
        <pt x="75" y="591" on="0"/>
        <pt x="59" y="600" on="1"/>
        <pt x="55" y="603" on="0"/>
        <pt x="41" y="606" on="0"/>
        <pt x="38" y="607" on="1"/>
        <pt x="28" y="609" on="0"/>
        <pt x="17" y="613" on="1"/>
      </contour>
    </TTGlyph>
    <TTGlyph name="Q" xMin="33" yMin="-43" xMax="618" yMax="733">
      <contour>
        <pt x="191" y="23" on="0"/>
        <pt x="91" y="79" on="0"/>
        <pt x="33" y="193" on="0"/>
        <pt x="33" y="275" on="1"/>
        <pt x="33" y="326" on="0"/>
        <pt x="45" y="386" on="1"/>
        <pt x="65" y="489" on="0"/>
        <pt x="166" y="646" on="0"/>
        <pt x="306" y="733" on="0"/>
        <pt x="384" y="733" on="1"/>
        <pt x="490" y="733" on="0"/>
        <pt x="605" y="598" on="0"/>
        <pt x="605" y="478" on="1"/>
        <pt x="605" y="414" on="0"/>
        <pt x="589" y="343" on="1"/>
        <pt x="557" y="198" on="0"/>
        <pt x="463" y="111" on="1"/>
        <pt x="504" y="81" on="0"/>
        <pt x="582" y="49" on="1"/>
        <pt x="600" y="42" on="0"/>
        <pt x="618" y="16" on="0"/>
        <pt x="618" y="2" on="1"/>
        <pt x="618" y="-16" on="0"/>
        <pt x="591" y="-43" on="0"/>
        <pt x="569" y="-43" on="1"/>
        <pt x="559" y="-43" on="0"/>
        <pt x="548" y="-40" on="1"/>
        <pt x="503" y="-27" on="0"/>
        <pt x="414" y="20" on="0"/>
        <pt x="377" y="52" on="1"/>
        <pt x="314" y="23" on="0"/>
        <pt x="255" y="23" on="1"/>
      </contour>
      <contour>
        <pt x="137" y="120" on="0"/>
        <pt x="258" y="120" on="1"/>
        <pt x="286" y="120" on="0"/>
        <pt x="310" y="127" on="1"/>
        <pt x="284" y="168" on="0"/>
        <pt x="275" y="204" on="1"/>
        <pt x="272" y="216" on="0"/>
        <pt x="272" y="227" on="1"/>
        <pt x="272" y="248" on="0"/>
        <pt x="293" y="273" on="0"/>
        <pt x="309" y="273" on="1"/>
        <pt x="322" y="273" on="0"/>
        <pt x="348" y="253" on="0"/>
        <pt x="358" y="234" on="1"/>
        <pt x="374" y="202" on="0"/>
        <pt x="394" y="176" on="1"/>
        <pt x="463" y="242" on="0"/>
        <pt x="488" y="369" on="1"/>
        <pt x="499" y="429" on="0"/>
        <pt x="499" y="473" on="1"/>
        <pt x="499" y="551" on="0"/>
        <pt x="438" y="637" on="0"/>
        <pt x="380" y="637" on="1"/>
        <pt x="329" y="637" on="0"/>
        <pt x="235" y="571" on="0"/>
        <pt x="165" y="450" on="0"/>
        <pt x="149" y="371" on="1"/>
        <pt x="137" y="311" on="0"/>
        <pt x="137" y="267" on="1"/>
      </contour>
    </TTGlyph>
    <TTGlyph name="R" xMin="46" yMin="-27" xMax="601" yMax="726">
      <contour>
        <pt x="118" y="-19" on="0"/>
        <pt x="88" y="9" on="0"/>
        <pt x="89" y="34" on="1"/>
        <pt x="90" y="100" on="0"/>
        <pt x="94" y="227" on="1"/>
        <pt x="101" y="415" on="0"/>
        <pt x="102" y="566" on="1"/>
        <pt x="90" y="561" on="0"/>
        <pt x="82" y="561" on="1"/>
        <pt x="66" y="561" on="0"/>
        <pt x="46" y="583" on="0"/>
        <pt x="46" y="599" on="1"/>
        <pt x="46" y="610" on="0"/>
        <pt x="59" y="632" on="0"/>
        <pt x="72" y="640" on="1"/>
        <pt x="129" y="675" on="0"/>
        <pt x="308" y="726" on="0"/>
        <pt x="399" y="726" on="1"/>
        <pt x="489" y="726" on="0"/>
        <pt x="590" y="633" on="0"/>
        <pt x="590" y="556" on="1"/>
        <pt x="590" y="534" on="0"/>
        <pt x="588" y="523" on="1"/>
        <pt x="567" y="365" on="0"/>
        <pt x="337" y="307" on="1"/>
        <pt x="413" y="245" on="0"/>
        <pt x="547" y="113" on="0"/>
        <pt x="589" y="54" on="1"/>
        <pt x="601" y="36" on="0"/>
        <pt x="601" y="19" on="1"/>
        <pt x="601" y="-1" on="0"/>
        <pt x="575" y="-27" on="0"/>
        <pt x="555" y="-27" on="1"/>
        <pt x="532" y="-27" on="0"/>
        <pt x="511" y="-5" on="1"/>
        <pt x="441" y="73" on="1"/>
        <pt x="318" y="211" on="0"/>
        <pt x="236" y="288" on="1"/>
        <pt x="199" y="283" on="1"/>
        <pt x="196" y="197" on="0"/>
        <pt x="188" y="36" on="1"/>
        <pt x="187" y="9" on="0"/>
        <pt x="159" y="-19" on="0"/>
        <pt x="138" y="-19" on="1"/>
      </contour>
      <contour>
        <pt x="329" y="382" on="0"/>
        <pt x="471" y="463" on="0"/>
        <pt x="480" y="524" on="1"/>
        <pt x="482" y="540" on="0"/>
        <pt x="482" y="548" on="1"/>
        <pt x="482" y="592" on="0"/>
        <pt x="426" y="636" on="0"/>
        <pt x="372" y="636" on="1"/>
        <pt x="296" y="636" on="0"/>
        <pt x="203" y="606" on="1"/>
        <pt x="203" y="542" on="1"/>
        <pt x="203" y="484" on="0"/>
        <pt x="201" y="366" on="1"/>
      </contour>
    </TTGlyph>
    <TTGlyph name="Racute" xMin="46" yMin="-27" xMax="601" yMax="930">
      <component glyphName="R" x="0" y="0" flags="0x400"/>
      <component glyphName="acutecomb.case" x="198" y="0" flags="0x400"/>
    </TTGlyph>
    <TTGlyph name="Rcaron" xMin="46" yMin="-27" xMax="601" yMax="996">
      <component glyphName="R" x="0" y="0" flags="0x400"/>
      <component glyphName="uni030C.case" x="223" y="85" flags="0x404"/>
    </TTGlyph>
    <TTGlyph name="Rho" xMin="48" yMin="-27" xMax="572" yMax="736">
      <component glyphName="P" x="0" y="0" flags="0x400"/>
    </TTGlyph>
    <TTGlyph name="S" xMin="32" yMin="-27" xMax="488" yMax="731">
      <contour>
        <pt x="175" y="-27" on="0"/>
        <pt x="51" y="60" on="0"/>
        <pt x="35" y="125" on="1"/>
        <pt x="32" y="137" on="0"/>
        <pt x="32" y="147" on="1"/>
        <pt x="32" y="169" on="0"/>
        <pt x="56" y="195" on="0"/>
        <pt x="73" y="195" on="1"/>
        <pt x="86" y="195" on="0"/>
        <pt x="109" y="179" on="0"/>
        <pt x="117" y="162" on="1"/>
        <pt x="140" y="112" on="0"/>
        <pt x="212" y="65" on="0"/>
        <pt x="270" y="65" on="1"/>
        <pt x="323" y="65" on="0"/>
        <pt x="384" y="117" on="0"/>
        <pt x="384" y="172" on="1"/>
        <pt x="384" y="208" on="0"/>
        <pt x="344" y="269" on="0"/>
        <pt x="287" y="316" on="0"/>
        <pt x="236" y="352" on="1"/>
        <pt x="184" y="389" on="0"/>
        <pt x="118" y="447" on="0"/>
        <pt x="74" y="522" on="0"/>
        <pt x="74" y="568" on="1"/>
        <pt x="74" y="646" on="0"/>
        <pt x="180" y="731" on="0"/>
        <pt x="275" y="731" on="1"/>
        <pt x="329" y="731" on="0"/>
        <pt x="417" y="700" on="0"/>
        <pt x="467" y="650" on="0"/>
        <pt x="467" y="625" on="1"/>
        <pt x="467" y="610" on="0"/>
        <pt x="448" y="589" on="0"/>
        <pt x="432" y="589" on="1"/>
        <pt x="412" y="589" on="0"/>
        <pt x="388" y="606" on="1"/>
        <pt x="339" y="640" on="0"/>
        <pt x="278" y="640" on="1"/>
        <pt x="229" y="640" on="0"/>
        <pt x="178" y="608" on="0"/>
        <pt x="178" y="571" on="1"/>
        <pt x="178" y="543" on="0"/>
        <pt x="213" y="496" on="0"/>
        <pt x="260" y="459" on="0"/>
        <pt x="310" y="424" on="1"/>
        <pt x="365" y="386" on="0"/>
        <pt x="438" y="321" on="0"/>
        <pt x="488" y="228" on="0"/>
        <pt x="488" y="168" on="1"/>
        <pt x="488" y="113" on="0"/>
        <pt x="439" y="25" on="0"/>
        <pt x="341" y="-27" on="0"/>
        <pt x="271" y="-27" on="1"/>
      </contour>
    </TTGlyph>
    <TTGlyph name="Sacute" xMin="32" yMin="-27" xMax="492" yMax="936">
      <component glyphName="S" x="0" y="0" flags="0x400"/>
      <component glyphName="acutecomb.case" x="132" y="6" flags="0x404"/>
    </TTGlyph>
    <TTGlyph name="Scaron" xMin="32" yMin="-27" xMax="508" yMax="1002">
      <component glyphName="S" x="0" y="0" flags="0x400"/>
      <component glyphName="uni030C.case" x="157" y="91" flags="0x404"/>
    </TTGlyph>
    <TTGlyph name="Scedilla" xMin="32" yMin="-262" xMax="488" yMax="731">
      <contour>
        <pt x="32" y="169" on="0"/>
        <pt x="56" y="195" on="0"/>
        <pt x="73" y="195" on="1"/>
        <pt x="86" y="195" on="0"/>
        <pt x="109" y="179" on="0"/>
        <pt x="117" y="162" on="1"/>
        <pt x="140" y="112" on="0"/>
        <pt x="212" y="65" on="0"/>
        <pt x="270" y="65" on="1"/>
        <pt x="323" y="65" on="0"/>
        <pt x="384" y="117" on="0"/>
        <pt x="384" y="172" on="1"/>
        <pt x="384" y="208" on="0"/>
        <pt x="344" y="269" on="0"/>
        <pt x="287" y="316" on="0"/>
        <pt x="236" y="352" on="1"/>
        <pt x="184" y="389" on="0"/>
        <pt x="118" y="447" on="0"/>
        <pt x="74" y="522" on="0"/>
        <pt x="74" y="568" on="1"/>
        <pt x="74" y="646" on="0"/>
        <pt x="180" y="731" on="0"/>
        <pt x="275" y="731" on="1"/>
        <pt x="329" y="731" on="0"/>
        <pt x="417" y="700" on="0"/>
        <pt x="467" y="650" on="0"/>
        <pt x="467" y="625" on="1"/>
        <pt x="467" y="610" on="0"/>
        <pt x="448" y="589" on="0"/>
        <pt x="432" y="589" on="1"/>
        <pt x="412" y="589" on="0"/>
        <pt x="388" y="606" on="1"/>
        <pt x="339" y="640" on="0"/>
        <pt x="278" y="640" on="1"/>
        <pt x="229" y="640" on="0"/>
        <pt x="178" y="608" on="0"/>
        <pt x="178" y="571" on="1"/>
        <pt x="178" y="543" on="0"/>
        <pt x="213" y="496" on="0"/>
        <pt x="260" y="459" on="0"/>
        <pt x="310" y="424" on="1"/>
        <pt x="365" y="386" on="0"/>
        <pt x="438" y="321" on="0"/>
        <pt x="488" y="228" on="0"/>
        <pt x="488" y="168" on="1"/>
        <pt x="488" y="87" on="0"/>
        <pt x="384" y="-22" on="0"/>
        <pt x="289" y="-27" on="1"/>
        <pt x="287" y="-33" on="1"/>
        <pt x="276" y="-70" on="1"/>
        <pt x="325" y="-71" on="0"/>
        <pt x="377" y="-115" on="0"/>
        <pt x="377" y="-154" on="1"/>
        <pt x="377" y="-204" on="0"/>
        <pt x="312" y="-262" on="0"/>
        <pt x="255" y="-262" on="1"/>
        <pt x="210" y="-262" on="0"/>
        <pt x="177" y="-248" on="1"/>
        <pt x="159" y="-240" on="0"/>
        <pt x="141" y="-220" on="0"/>
        <pt x="141" y="-206" on="1"/>
        <pt x="141" y="-192" on="0"/>
        <pt x="162" y="-173" on="0"/>
        <pt x="181" y="-173" on="1"/>
        <pt x="192" y="-173" on="0"/>
        <pt x="208" y="-176" on="1"/>
        <pt x="238" y="-180" on="0"/>
        <pt x="255" y="-180" on="1"/>
        <pt x="280" y="-180" on="0"/>
        <pt x="280" y="-161" on="1"/>
        <pt x="280" y="-152" on="0"/>
        <pt x="266" y="-142" on="0"/>
        <pt x="248" y="-141" on="1"/>
        <pt x="212" y="-139" on="0"/>
        <pt x="180" y="-117" on="0"/>
        <pt x="180" y="-90" on="1"/>
        <pt x="180" y="-61" on="0"/>
        <pt x="198" y="-20" on="1"/>
        <pt x="198" y="-19" on="1"/>
        <pt x="132" y="-5" on="0"/>
        <pt x="48" y="74" on="0"/>
        <pt x="35" y="125" on="1"/>
        <pt x="32" y="137" on="0"/>
        <pt x="32" y="147" on="1"/>
      </contour>
    </TTGlyph>
    <TTGlyph name="Scircumflex" xMin="32" yMin="-27" xMax="488" yMax="945">
      <component glyphName="S" x="0" y="0" flags="0x400"/>
      <component glyphName="uni0302.case" x="143" y="21" flags="0x404"/>
    </TTGlyph>
    <TTGlyph name="Sigma" xMin="35" yMin="-18" xMax="544" yMax="728">
      <contour>
        <pt x="494" y="725" on="0"/>
        <pt x="523" y="698" on="0"/>
        <pt x="523" y="680" on="1"/>
        <pt x="523" y="665" on="0"/>
        <pt x="504" y="638" on="0"/>
        <pt x="485" y="630" on="1"/>
        <pt x="454" y="626" on="0"/>
        <pt x="418" y="626" on="1"/>
        <pt x="386" y="626" on="0"/>
        <pt x="371" y="627" on="1"/>
        <pt x="322" y="628" on="1"/>
        <pt x="287" y="628" on="0"/>
        <pt x="217" y="622" on="1"/>
        <pt x="156" y="618" on="1"/>
        <pt x="168" y="580" on="0"/>
        <pt x="219" y="499" on="0"/>
        <pt x="260" y="441" on="0"/>
        <pt x="265" y="434" on="1"/>
        <pt x="280" y="414" on="1"/>
        <pt x="297" y="393" on="0"/>
        <pt x="317" y="359" on="0"/>
        <pt x="317" y="344" on="1"/>
        <pt x="317" y="330" on="0"/>
        <pt x="304" y="304" on="0"/>
        <pt x="291" y="283" on="1"/>
        <pt x="283" y="271" on="0"/>
        <pt x="280" y="265" on="1"/>
        <pt x="262" y="237" on="1"/>
        <pt x="223" y="176" on="0"/>
        <pt x="164" y="82" on="1"/>
        <pt x="174" y="83" on="0"/>
        <pt x="201" y="86" on="0"/>
        <pt x="210" y="86" on="1"/>
        <pt x="396" y="92" on="0"/>
        <pt x="490" y="93" on="1"/>
        <pt x="516" y="90" on="0"/>
        <pt x="544" y="61" on="0"/>
        <pt x="544" y="43" on="1"/>
        <pt x="544" y="23" on="0"/>
        <pt x="517" y="-6" on="0"/>
        <pt x="490" y="-7" on="1"/>
        <pt x="446" y="-8" on="0"/>
        <pt x="353" y="-12" on="1"/>
        <pt x="203" y="-18" on="0"/>
        <pt x="127" y="-18" on="1"/>
        <pt x="35" y="-18" on="0"/>
        <pt x="35" y="37" on="1"/>
        <pt x="35" y="61" on="0"/>
        <pt x="53" y="91" on="1"/>
        <pt x="55" y="94" on="0"/>
        <pt x="111" y="181" on="1"/>
        <pt x="138" y="220" on="0"/>
        <pt x="191" y="304" on="0"/>
        <pt x="209" y="338" on="1"/>
        <pt x="137" y="437" on="0"/>
        <pt x="47" y="598" on="0"/>
        <pt x="47" y="668" on="1"/>
        <pt x="47" y="688" on="0"/>
        <pt x="74" y="713" on="0"/>
        <pt x="93" y="716" on="1"/>
        <pt x="136" y="724" on="0"/>
        <pt x="234" y="728" on="0"/>
        <pt x="308" y="728" on="1"/>
        <pt x="469" y="727" on="1"/>
      </contour>
    </TTGlyph>
    <TTGlyph name="T" xMin="6" yMin="-9" xMax="585" yMax="704">
      <contour>
        <pt x="34" y="591" on="0"/>
        <pt x="6" y="617" on="0"/>
        <pt x="6" y="639" on="1"/>
        <pt x="6" y="686" on="0"/>
        <pt x="62" y="690" on="1"/>
        <pt x="250" y="704" on="0"/>
        <pt x="442" y="704" on="1"/>
        <pt x="501" y="704" on="0"/>
        <pt x="525" y="703" on="1"/>
        <pt x="555" y="702" on="0"/>
        <pt x="585" y="676" on="0"/>
        <pt x="585" y="654" on="1"/>
        <pt x="585" y="635" on="0"/>
        <pt x="560" y="614" on="0"/>
        <pt x="534" y="613" on="1"/>
        <pt x="471" y="611" on="0"/>
        <pt x="337" y="605" on="1"/>
        <pt x="334" y="482" on="0"/>
        <pt x="324" y="242" on="1"/>
        <pt x="318" y="114" on="0"/>
        <pt x="316" y="44" on="1"/>
        <pt x="315" y="16" on="0"/>
        <pt x="287" y="-9" on="0"/>
        <pt x="265" y="-9" on="1"/>
        <pt x="245" y="-9" on="0"/>
        <pt x="215" y="21" on="0"/>
        <pt x="216" y="49" on="1"/>
        <pt x="222" y="261" on="0"/>
        <pt x="236" y="545" on="1"/>
        <pt x="236" y="564" on="0"/>
        <pt x="238" y="600" on="1"/>
        <pt x="179" y="598" on="0"/>
        <pt x="61" y="592" on="1"/>
      </contour>
    </TTGlyph>
    <TTGlyph name="Tau" xMin="6" yMin="-9" xMax="585" yMax="704">
      <component glyphName="T" x="0" y="0" flags="0x400"/>
    </TTGlyph>
    <TTGlyph name="Tbar" xMin="6" yMin="-9" xMax="585" yMax="704">
      <contour>
        <pt x="34" y="591" on="0"/>
        <pt x="6" y="617" on="0"/>
        <pt x="6" y="639" on="1"/>
        <pt x="6" y="686" on="0"/>
        <pt x="62" y="690" on="1"/>
        <pt x="250" y="704" on="0"/>
        <pt x="442" y="704" on="1"/>
        <pt x="501" y="704" on="0"/>
        <pt x="525" y="703" on="1"/>
        <pt x="555" y="702" on="0"/>
        <pt x="585" y="676" on="0"/>
        <pt x="585" y="654" on="1"/>
        <pt x="585" y="635" on="0"/>
        <pt x="560" y="614" on="0"/>
        <pt x="534" y="613" on="1"/>
        <pt x="471" y="611" on="0"/>
        <pt x="337" y="605" on="1"/>
        <pt x="331" y="420" on="1"/>
        <pt x="387" y="418" on="0"/>
        <pt x="428" y="413" on="1"/>
        <pt x="454" y="409" on="0"/>
        <pt x="482" y="384" on="0"/>
        <pt x="482" y="366" on="1"/>
        <pt x="482" y="347" on="0"/>
        <pt x="454" y="322" on="0"/>
        <pt x="428" y="322" on="1"/>
        <pt x="367" y="322" on="1"/>
        <pt x="327" y="322" on="1"/>
        <pt x="319" y="138" on="0"/>
        <pt x="316" y="44" on="1"/>
        <pt x="315" y="16" on="0"/>
        <pt x="287" y="-9" on="0"/>
        <pt x="265" y="-9" on="1"/>
        <pt x="245" y="-9" on="0"/>
        <pt x="215" y="21" on="0"/>
        <pt x="216" y="49" on="1"/>
        <pt x="222" y="218" on="0"/>
        <pt x="226" y="314" on="1"/>
        <pt x="216" y="313" on="0"/>
        <pt x="195" y="311" on="0"/>
        <pt x="184" y="309" on="1"/>
        <pt x="146" y="305" on="0"/>
        <pt x="141" y="305" on="1"/>
        <pt x="118" y="305" on="0"/>
        <pt x="91" y="330" on="0"/>
        <pt x="91" y="351" on="1"/>
        <pt x="91" y="399" on="0"/>
        <pt x="169" y="411" on="1"/>
        <pt x="191" y="414" on="0"/>
        <pt x="230" y="418" on="1"/>
        <pt x="238" y="600" on="1"/>
        <pt x="179" y="598" on="0"/>
        <pt x="61" y="592" on="1"/>
      </contour>
    </TTGlyph>
    <TTGlyph name="Tcaron" xMin="6" yMin="-9" xMax="585" yMax="966">
      <component glyphName="T" x="0" y="0" flags="0x400"/>
      <component glyphName="uni030C.case" x="152" y="55" flags="0x404"/>
    </TTGlyph>
    <TTGlyph name="Theta" xMin="35" yMin="-7" xMax="697" yMax="717">
      <contour>
        <pt x="228" y="311" on="0"/>
        <pt x="206" y="339" on="0"/>
        <pt x="206" y="356" on="1"/>
        <pt x="206" y="373" on="0"/>
        <pt x="228" y="400" on="0"/>
        <pt x="250" y="406" on="1"/>
        <pt x="286" y="406" on="0"/>
        <pt x="339" y="404" on="0"/>
        <pt x="357" y="403" on="1"/>
        <pt x="393" y="401" on="0"/>
        <pt x="463" y="399" on="1"/>
        <pt x="489" y="396" on="0"/>
        <pt x="517" y="367" on="0"/>
        <pt x="517" y="349" on="1"/>
        <pt x="517" y="330" on="0"/>
        <pt x="489" y="301" on="0"/>
        <pt x="463" y="299" on="1"/>
        <pt x="393" y="301" on="0"/>
        <pt x="357" y="303" on="1"/>
        <pt x="339" y="304" on="0"/>
        <pt x="286" y="306" on="0"/>
        <pt x="250" y="306" on="1"/>
      </contour>
      <contour>
        <pt x="35" y="431" on="0"/>
        <pt x="107" y="593" on="0"/>
        <pt x="179" y="647" on="1"/>
        <pt x="217" y="674" on="0"/>
        <pt x="319" y="717" on="0"/>
        <pt x="374" y="717" on="1"/>
        <pt x="408" y="717" on="0"/>
        <pt x="470" y="697" on="0"/>
        <pt x="493" y="682" on="1"/>
        <pt x="509" y="671" on="0"/>
        <pt x="526" y="655" on="0"/>
        <pt x="529" y="644" on="1"/>
        <pt x="532" y="643" on="0"/>
        <pt x="545" y="638" on="0"/>
        <pt x="547" y="636" on="1"/>
        <pt x="580" y="612" on="0"/>
        <pt x="628" y="566" on="0"/>
        <pt x="651" y="527" on="1"/>
        <pt x="697" y="448" on="0"/>
        <pt x="697" y="349" on="1"/>
        <pt x="697" y="301" on="0"/>
        <pt x="653" y="182" on="0"/>
        <pt x="605" y="118" on="1"/>
        <pt x="511" y="-7" on="0"/>
        <pt x="329" y="-7" on="1"/>
        <pt x="272" y="-7" on="0"/>
        <pt x="208" y="6" on="0"/>
        <pt x="157" y="42" on="0"/>
        <pt x="124" y="80" on="1"/>
        <pt x="35" y="185" on="0"/>
        <pt x="35" y="352" on="1"/>
      </contour>
      <contour>
        <pt x="138" y="274" on="0"/>
        <pt x="192" y="136" on="0"/>
        <pt x="247" y="102" on="1"/>
        <pt x="254" y="97" on="0"/>
        <pt x="310" y="92" on="0"/>
        <pt x="333" y="92" on="1"/>
        <pt x="393" y="92" on="0"/>
        <pt x="497" y="139" on="0"/>
        <pt x="533" y="190" on="1"/>
        <pt x="560" y="228" on="0"/>
        <pt x="594" y="317" on="0"/>
        <pt x="594" y="359" on="1"/>
        <pt x="594" y="392" on="0"/>
        <pt x="569" y="467" on="0"/>
        <pt x="546" y="502" on="1"/>
        <pt x="540" y="511" on="0"/>
        <pt x="523" y="527" on="0"/>
        <pt x="512" y="534" on="1"/>
        <pt x="500" y="542" on="0"/>
        <pt x="480" y="559" on="1"/>
        <pt x="473" y="564" on="0"/>
        <pt x="464" y="580" on="0"/>
        <pt x="463" y="587" on="1"/>
        <pt x="441" y="589" on="0"/>
        <pt x="422" y="599" on="1"/>
        <pt x="403" y="608" on="0"/>
        <pt x="379" y="614" on="0"/>
        <pt x="361" y="614" on="1"/>
        <pt x="339" y="614" on="0"/>
        <pt x="270" y="590" on="0"/>
        <pt x="234" y="562" on="1"/>
        <pt x="190" y="527" on="0"/>
        <pt x="138" y="418" on="0"/>
        <pt x="138" y="350" on="1"/>
      </contour>
    </TTGlyph>
    <TTGlyph name="Thorn" xMin="73" yMin="-25" xMax="536" yMax="736">
      <contour>
        <pt x="215" y="163" on="0"/>
        <pt x="179" y="167" on="1"/>
        <pt x="178" y="122" on="0"/>
        <pt x="178" y="33" on="1"/>
        <pt x="178" y="4" on="0"/>
        <pt x="149" y="-25" on="0"/>
        <pt x="125" y="-25" on="1"/>
        <pt x="102" y="-25" on="0"/>
        <pt x="73" y="5" on="0"/>
        <pt x="73" y="35" on="1"/>
        <pt x="73" y="332" on="0"/>
        <pt x="91" y="679" on="1"/>
        <pt x="92" y="705" on="0"/>
        <pt x="125" y="736" on="0"/>
        <pt x="145" y="736" on="1"/>
        <pt x="165" y="736" on="0"/>
        <pt x="192" y="707" on="0"/>
        <pt x="191" y="679" on="1"/>
        <pt x="188" y="600" on="1"/>
        <pt x="229" y="603" on="0"/>
        <pt x="253" y="603" on="1"/>
        <pt x="346" y="603" on="0"/>
        <pt x="474" y="544" on="0"/>
        <pt x="536" y="442" on="0"/>
        <pt x="532" y="378" on="1"/>
        <pt x="527" y="301" on="0"/>
        <pt x="444" y="205" on="0"/>
        <pt x="321" y="163" on="0"/>
        <pt x="253" y="163" on="1"/>
      </contour>
      <contour>
        <pt x="227" y="258" on="1"/>
        <pt x="320" y="258" on="0"/>
        <pt x="426" y="323" on="0"/>
        <pt x="426" y="391" on="1"/>
        <pt x="426" y="443" on="0"/>
        <pt x="343" y="508" on="0"/>
        <pt x="256" y="508" on="1"/>
        <pt x="215" y="508" on="0"/>
        <pt x="185" y="505" on="1"/>
        <pt x="182" y="424" on="0"/>
        <pt x="180" y="258" on="1"/>
      </contour>
    </TTGlyph>
    <TTGlyph name="U" xMin="42" yMin="-25" xMax="577" yMax="717">
      <contour>
        <pt x="92" y="694" on="0"/>
        <pt x="120" y="717" on="0"/>
        <pt x="138" y="717" on="1"/>
        <pt x="158" y="717" on="0"/>
        <pt x="185" y="691" on="0"/>
        <pt x="185" y="668" on="1"/>
        <pt x="185" y="659" on="0"/>
        <pt x="184" y="654" on="1"/>
        <pt x="180" y="634" on="0"/>
        <pt x="179" y="625" on="1"/>
        <pt x="162" y="536" on="0"/>
        <pt x="145" y="426" on="0"/>
        <pt x="142" y="359" on="1"/>
        <pt x="141" y="346" on="0"/>
        <pt x="141" y="321" on="1"/>
        <pt x="141" y="253" on="0"/>
        <pt x="166" y="145" on="0"/>
        <pt x="211" y="85" on="0"/>
        <pt x="241" y="85" on="1"/>
        <pt x="281" y="85" on="0"/>
        <pt x="337" y="151" on="0"/>
        <pt x="360" y="229" on="1"/>
        <pt x="396" y="349" on="0"/>
        <pt x="414" y="490" on="1"/>
        <pt x="415" y="537" on="0"/>
        <pt x="427" y="634" on="0"/>
        <pt x="434" y="661" on="1"/>
        <pt x="446" y="709" on="0"/>
        <pt x="487" y="709" on="1"/>
        <pt x="509" y="709" on="0"/>
        <pt x="534" y="678" on="0"/>
        <pt x="534" y="649" on="1"/>
        <pt x="534" y="618" on="0"/>
        <pt x="524" y="547" on="0"/>
        <pt x="514" y="486" on="1"/>
        <pt x="498" y="345" on="0"/>
        <pt x="498" y="250" on="1"/>
        <pt x="498" y="135" on="0"/>
        <pt x="519" y="99" on="1"/>
        <pt x="530" y="79" on="0"/>
        <pt x="561" y="53" on="1"/>
        <pt x="577" y="39" on="0"/>
        <pt x="577" y="20" on="1"/>
        <pt x="577" y="0" on="0"/>
        <pt x="549" y="-25" on="0"/>
        <pt x="526" y="-25" on="1"/>
        <pt x="484" y="-25" on="0"/>
        <pt x="426" y="74" on="0"/>
        <pt x="419" y="163" on="1"/>
        <pt x="383" y="62" on="0"/>
        <pt x="291" y="-11" on="0"/>
        <pt x="232" y="-11" on="1"/>
        <pt x="133" y="-11" on="0"/>
        <pt x="42" y="181" on="0"/>
        <pt x="42" y="332" on="1"/>
        <pt x="42" y="364" on="0"/>
        <pt x="43" y="380" on="1"/>
        <pt x="47" y="460" on="0"/>
        <pt x="67" y="592" on="0"/>
        <pt x="86" y="672" on="1"/>
      </contour>
    </TTGlyph>
    <TTGlyph name="Uacute" xMin="42" yMin="-25" xMax="577" yMax="920">
      <component glyphName="U" x="0" y="0" flags="0x400"/>
      <component glyphName="acutecomb.case" x="161" y="-10" flags="0x404"/>
    </TTGlyph>
    <TTGlyph name="Ubreve" xMin="42" yMin="-25" xMax="577" yMax="946">
      <component glyphName="U" x="0" y="0" flags="0x400"/>
      <component glyphName="uni0306.case" x="13" y="-20" flags="0x404"/>
    </TTGlyph>
    <TTGlyph name="Ucircumflex" xMin="42" yMin="-25" xMax="577" yMax="929">
      <component glyphName="U" x="0" y="0" flags="0x400"/>
      <component glyphName="uni0302.case" x="172" y="5" flags="0x404"/>
    </TTGlyph>
    <TTGlyph name="Udieresis" xMin="60" yMin="-25" xMax="595" yMax="912">
      <component glyphName="U" x="18" y="0" flags="0x400"/>
      <component glyphName="uni0308.case" x="-16" y="-40" flags="0x404"/>
    </TTGlyph>
    <TTGlyph name="Ugrave" xMin="42" yMin="-25" xMax="577" yMax="907">
      <component glyphName="U" x="0" y="0" flags="0x400"/>
      <component glyphName="gravecomb.case" x="166" y="-10" flags="0x404"/>
    </TTGlyph>
    <TTGlyph name="Uhungarumlaut" xMin="42" yMin="-25" xMax="577" yMax="996">
      <component glyphName="U" x="0" y="0" flags="0x400"/>
      <component glyphName="uni030B.case" x="109" y="-10" flags="0x404"/>
    </TTGlyph>
    <TTGlyph name="Umacron" xMin="42" yMin="-25" xMax="577" yMax="866">
      <component glyphName="U" x="0" y="0" flags="0x400"/>
      <component glyphName="uni0304.case" x="73" y="-4" flags="0x404"/>
    </TTGlyph>
    <TTGlyph name="Uogonek" xMin="42" yMin="-285" xMax="634" yMax="717">
      <contour>
        <pt x="92" y="694" on="0"/>
        <pt x="120" y="717" on="0"/>
        <pt x="138" y="717" on="1"/>
        <pt x="158" y="717" on="0"/>
        <pt x="185" y="691" on="0"/>
        <pt x="185" y="668" on="1"/>
        <pt x="185" y="659" on="0"/>
        <pt x="184" y="654" on="1"/>
        <pt x="180" y="634" on="0"/>
        <pt x="179" y="625" on="1"/>
        <pt x="162" y="536" on="0"/>
        <pt x="145" y="426" on="0"/>
        <pt x="142" y="359" on="1"/>
        <pt x="141" y="346" on="0"/>
        <pt x="141" y="321" on="1"/>
        <pt x="141" y="253" on="0"/>
        <pt x="166" y="145" on="0"/>
        <pt x="211" y="85" on="0"/>
        <pt x="241" y="85" on="1"/>
        <pt x="281" y="85" on="0"/>
        <pt x="337" y="151" on="0"/>
        <pt x="360" y="229" on="1"/>
        <pt x="396" y="349" on="0"/>
        <pt x="414" y="490" on="1"/>
        <pt x="415" y="537" on="0"/>
        <pt x="427" y="634" on="0"/>
        <pt x="434" y="661" on="1"/>
        <pt x="446" y="709" on="0"/>
        <pt x="487" y="709" on="1"/>
        <pt x="509" y="709" on="0"/>
        <pt x="534" y="678" on="0"/>
        <pt x="534" y="649" on="1"/>
        <pt x="534" y="618" on="0"/>
        <pt x="524" y="547" on="0"/>
        <pt x="514" y="486" on="1"/>
        <pt x="498" y="345" on="0"/>
        <pt x="498" y="250" on="1"/>
        <pt x="498" y="135" on="0"/>
        <pt x="519" y="99" on="1"/>
        <pt x="530" y="79" on="0"/>
        <pt x="561" y="53" on="1"/>
        <pt x="577" y="39" on="0"/>
        <pt x="577" y="20" on="1"/>
        <pt x="577" y="3" on="0"/>
        <pt x="557" y="-20" on="0"/>
        <pt x="539" y="-24" on="1"/>
        <pt x="509" y="-61" on="0"/>
        <pt x="477" y="-123" on="0"/>
        <pt x="477" y="-152" on="1"/>
        <pt x="477" y="-189" on="0"/>
        <pt x="516" y="-189" on="1"/>
        <pt x="538" y="-189" on="0"/>
        <pt x="582" y="-175" on="1"/>
        <pt x="593" y="-172" on="0"/>
        <pt x="600" y="-172" on="1"/>
        <pt x="616" y="-172" on="0"/>
        <pt x="634" y="-192" on="0"/>
        <pt x="634" y="-207" on="1"/>
        <pt x="634" y="-234" on="0"/>
        <pt x="608" y="-253" on="1"/>
        <pt x="587" y="-268" on="0"/>
        <pt x="530" y="-285" on="0"/>
        <pt x="500" y="-285" on="1"/>
        <pt x="445" y="-285" on="0"/>
        <pt x="369" y="-226" on="0"/>
        <pt x="369" y="-168" on="1"/>
        <pt x="369" y="-122" on="0"/>
        <pt x="420" y="-29" on="0"/>
        <pt x="463" y="13" on="1"/>
        <pt x="428" y="62" on="0"/>
        <pt x="419" y="163" on="1"/>
        <pt x="383" y="62" on="0"/>
        <pt x="291" y="-11" on="0"/>
        <pt x="232" y="-11" on="1"/>
        <pt x="133" y="-11" on="0"/>
        <pt x="42" y="181" on="0"/>
        <pt x="42" y="332" on="1"/>
        <pt x="42" y="364" on="0"/>
        <pt x="43" y="380" on="1"/>
        <pt x="47" y="460" on="0"/>
        <pt x="67" y="592" on="0"/>
        <pt x="86" y="672" on="1"/>
      </contour>
    </TTGlyph>
    <TTGlyph name="Upsilon" xMin="26" yMin="-29" xMax="639" yMax="739">
      <component glyphName="Y" x="0" y="0" flags="0x400"/>
    </TTGlyph>
    <TTGlyph name="Upsilondieresis" xMin="34" yMin="-29" xMax="647" yMax="922">
      <component glyphName="Upsilon" x="8" y="0" flags="0x400"/>
      <component glyphName="uni0308.case" x="-7" y="-30" flags="0x404"/>
    </TTGlyph>
    <TTGlyph name="Upsilontonos" xMin="20" yMin="-29" xMax="825" yMax="739">
      <component glyphName="tonos" x="-11" y="15" flags="0x404"/>
      <component glyphName="Y" x="186" y="0" flags="0x400"/>
    </TTGlyph>
    <TTGlyph name="Uring" xMin="42" yMin="-25" xMax="577" yMax="1001">
      <component glyphName="U" x="0" y="0" flags="0x400"/>
      <component glyphName="uni030A.case" x="23" y="0" flags="0x400"/>
    </TTGlyph>
    <TTGlyph name="Utilde" xMin="42" yMin="-25" xMax="577" yMax="912">
      <component glyphName="U" x="0" y="0" flags="0x400"/>
      <component glyphName="tildecomb.case" x="190" y="0" flags="0x400"/>
    </TTGlyph>
    <TTGlyph name="V" xMin="79" yMin="-24" xMax="667" yMax="702">
      <contour>
        <pt x="79" y="645" on="0"/>
        <pt x="79" y="649" on="1"/>
        <pt x="79" y="673" on="0"/>
        <pt x="109" y="702" on="0"/>
        <pt x="129" y="702" on="1"/>
        <pt x="147" y="702" on="0"/>
        <pt x="175" y="679" on="0"/>
        <pt x="180" y="657" on="1"/>
        <pt x="302" y="132" on="1"/>
        <pt x="441" y="380" on="0"/>
        <pt x="569" y="667" on="1"/>
        <pt x="575" y="682" on="0"/>
        <pt x="601" y="697" on="0"/>
        <pt x="615" y="697" on="1"/>
        <pt x="636" y="697" on="0"/>
        <pt x="667" y="671" on="0"/>
        <pt x="667" y="650" on="1"/>
        <pt x="667" y="638" on="0"/>
        <pt x="661" y="624" on="1"/>
        <pt x="538" y="340" on="0"/>
        <pt x="335" y="9" on="1"/>
        <pt x="315" y="-24" on="0"/>
        <pt x="282" y="-24" on="1"/>
        <pt x="266" y="-24" on="0"/>
        <pt x="242" y="-4" on="0"/>
        <pt x="236" y="15" on="1"/>
        <pt x="159" y="273" on="0"/>
        <pt x="81" y="633" on="1"/>
      </contour>
    </TTGlyph>
    <TTGlyph name="W" xMin="39" yMin="-23" xMax="797" yMax="719">
      <contour>
        <pt x="39" y="660" on="1"/>
        <pt x="39" y="685" on="0"/>
        <pt x="71" y="714" on="0"/>
        <pt x="94" y="714" on="1"/>
        <pt x="112" y="714" on="0"/>
        <pt x="137" y="691" on="0"/>
        <pt x="139" y="670" on="1"/>
        <pt x="161" y="481" on="0"/>
        <pt x="220" y="180" on="1"/>
        <pt x="243" y="242" on="0"/>
        <pt x="297" y="366" on="0"/>
        <pt x="348" y="476" on="0"/>
        <pt x="356" y="495" on="1"/>
        <pt x="373" y="532" on="1"/>
        <pt x="386" y="576" on="0"/>
        <pt x="428" y="576" on="1"/>
        <pt x="470" y="576" on="0"/>
        <pt x="482" y="533" on="1"/>
        <pt x="551" y="287" on="0"/>
        <pt x="598" y="155" on="1"/>
        <pt x="662" y="433" on="0"/>
        <pt x="693" y="676" on="1"/>
        <pt x="696" y="697" on="0"/>
        <pt x="724" y="719" on="0"/>
        <pt x="742" y="719" on="1"/>
        <pt x="767" y="719" on="0"/>
        <pt x="797" y="685" on="0"/>
        <pt x="793" y="656" on="1"/>
        <pt x="745" y="312" on="0"/>
        <pt x="665" y="29" on="1"/>
        <pt x="650" y="-23" on="0"/>
        <pt x="607" y="-23" on="1"/>
        <pt x="571" y="-23" on="0"/>
        <pt x="556" y="19" on="1"/>
        <pt x="483" y="172" on="0"/>
        <pt x="416" y="402" on="1"/>
        <pt x="402" y="371" on="0"/>
        <pt x="369" y="294" on="0"/>
        <pt x="349" y="248" on="1"/>
        <pt x="256" y="36" on="1"/>
        <pt x="251" y="19" on="0"/>
        <pt x="223" y="0" on="0"/>
        <pt x="207" y="0" on="1"/>
        <pt x="188" y="0" on="0"/>
        <pt x="162" y="21" on="0"/>
        <pt x="157" y="41" on="1"/>
        <pt x="83" y="339" on="0"/>
        <pt x="41" y="640" on="1"/>
      </contour>
    </TTGlyph>
    <TTGlyph name="W_T_F" xMin="29" yMin="-40" xMax="1670" yMax="587">
      <contour>
        <pt x="500" y="-40" on="0"/>
        <pt x="470" y="-12" on="0"/>
        <pt x="466" y="13" on="1"/>
        <pt x="441" y="88" on="0"/>
        <pt x="393" y="184" on="1"/>
        <pt x="357" y="82" on="0"/>
        <pt x="294" y="-20" on="0"/>
        <pt x="256" y="-20" on="1"/>
        <pt x="238" y="-20" on="0"/>
        <pt x="215" y="1" on="0"/>
        <pt x="206" y="30" on="1"/>
        <pt x="147" y="169" on="0"/>
        <pt x="61" y="401" on="0"/>
        <pt x="32" y="510" on="1"/>
        <pt x="29" y="522" on="0"/>
        <pt x="29" y="534" on="1"/>
        <pt x="29" y="558" on="0"/>
        <pt x="55" y="587" on="0"/>
        <pt x="75" y="587" on="1"/>
        <pt x="115" y="587" on="0"/>
        <pt x="130" y="537" on="1"/>
        <pt x="206" y="279" on="0"/>
        <pt x="266" y="137" on="1"/>
        <pt x="295" y="198" on="0"/>
        <pt x="330" y="303" on="1"/>
        <pt x="329" y="307" on="0"/>
        <pt x="329" y="316" on="1"/>
        <pt x="329" y="338" on="0"/>
        <pt x="355" y="370" on="0"/>
        <pt x="379" y="370" on="1"/>
        <pt x="407" y="370" on="0"/>
        <pt x="439" y="332" on="0"/>
        <pt x="442" y="305" on="1"/>
        <pt x="512" y="179" on="0"/>
        <pt x="537" y="104" on="1"/>
        <pt x="563" y="170" on="0"/>
        <pt x="607" y="348" on="0"/>
        <pt x="635" y="499" on="1"/>
        <pt x="640" y="528" on="0"/>
        <pt x="670" y="557" on="0"/>
        <pt x="695" y="560" on="1"/>
        <pt x="760" y="567" on="0"/>
        <pt x="886" y="567" on="1"/>
        <pt x="1061" y="567" on="1"/>
        <pt x="1339" y="566" on="1"/>
        <pt x="1523" y="564" on="0"/>
        <pt x="1616" y="564" on="1"/>
        <pt x="1641" y="564" on="0"/>
        <pt x="1670" y="536" on="0"/>
        <pt x="1670" y="516" on="1"/>
        <pt x="1670" y="494" on="0"/>
        <pt x="1640" y="470" on="0"/>
        <pt x="1612" y="470" on="1"/>
        <pt x="1416" y="470" on="0"/>
        <pt x="1300" y="473" on="1"/>
        <pt x="1295" y="307" on="1"/>
        <pt x="1490" y="307" on="1"/>
        <pt x="1513" y="307" on="0"/>
        <pt x="1540" y="281" on="0"/>
        <pt x="1540" y="262" on="1"/>
        <pt x="1540" y="240" on="0"/>
        <pt x="1513" y="217" on="0"/>
        <pt x="1490" y="217" on="1"/>
        <pt x="1294" y="217" on="1"/>
        <pt x="1293" y="163" on="0"/>
        <pt x="1293" y="79" on="1"/>
        <pt x="1293" y="31" on="1"/>
        <pt x="1293" y="-2" on="0"/>
        <pt x="1262" y="-32" on="0"/>
        <pt x="1241" y="-32" on="1"/>
        <pt x="1220" y="-32" on="0"/>
        <pt x="1193" y="-2" on="0"/>
        <pt x="1192" y="26" on="1"/>
        <pt x="1192" y="98" on="1"/>
        <pt x="1192" y="223" on="0"/>
        <pt x="1198" y="475" on="1"/>
        <pt x="1100" y="477" on="0"/>
        <pt x="1060" y="477" on="1"/>
        <pt x="959" y="477" on="1"/>
        <pt x="968" y="380" on="1"/>
        <pt x="994" y="124" on="0"/>
        <pt x="994" y="17" on="1"/>
        <pt x="994" y="-5" on="0"/>
        <pt x="970" y="-33" on="0"/>
        <pt x="945" y="-33" on="1"/>
        <pt x="925" y="-33" on="0"/>
        <pt x="894" y="0" on="0"/>
        <pt x="893" y="31" on="1"/>
        <pt x="886" y="191" on="0"/>
        <pt x="857" y="477" on="1"/>
        <pt x="764" y="477" on="0"/>
        <pt x="731" y="473" on="1"/>
        <pt x="700" y="314" on="0"/>
        <pt x="640" y="103" on="0"/>
        <pt x="601" y="28" on="1"/>
        <pt x="584" y="-4" on="0"/>
        <pt x="547" y="-40" on="0"/>
        <pt x="524" y="-40" on="1"/>
      </contour>
    </TTGlyph>
    <TTGlyph name="Wacute" xMin="39" yMin="-23" xMax="797" yMax="920">
      <component glyphName="W" x="0" y="0" flags="0x400"/>
      <component glyphName="acutecomb.case" x="271" y="-10" flags="0x404"/>
    </TTGlyph>
    <TTGlyph name="Wcircumflex" xMin="39" yMin="-23" xMax="797" yMax="929">
      <component glyphName="W" x="0" y="0" flags="0x400"/>
      <component glyphName="uni0302.case" x="282" y="5" flags="0x404"/>
    </TTGlyph>
    <TTGlyph name="Wdieresis" xMin="39" yMin="-23" xMax="797" yMax="912">
      <component glyphName="W" x="0" y="0" flags="0x400"/>
      <component glyphName="uni0308.case" x="76" y="-40" flags="0x404"/>
    </TTGlyph>
    <TTGlyph name="Wgrave" xMin="39" yMin="-23" xMax="797" yMax="907">
      <component glyphName="W" x="0" y="0" flags="0x400"/>
      <component glyphName="gravecomb.case" x="276" y="-10" flags="0x404"/>
    </TTGlyph>
    <TTGlyph name="X" xMin="22" yMin="5" xMax="720" yMax="700">
      <contour>
        <pt x="699" y="77" on="0"/>
        <pt x="699" y="49" on="1"/>
        <pt x="699" y="31" on="0"/>
        <pt x="675" y="5" on="0"/>
        <pt x="657" y="5" on="1"/>
        <pt x="640" y="5" on="0"/>
        <pt x="625" y="16" on="1"/>
        <pt x="512" y="93" on="0"/>
        <pt x="338" y="291" on="1"/>
        <pt x="192" y="132" on="0"/>
        <pt x="110" y="28" on="1"/>
        <pt x="94" y="6" on="0"/>
        <pt x="70" y="6" on="1"/>
        <pt x="50" y="6" on="0"/>
        <pt x="22" y="35" on="0"/>
        <pt x="22" y="56" on="1"/>
        <pt x="22" y="76" on="0"/>
        <pt x="36" y="94" on="1"/>
        <pt x="140" y="225" on="0"/>
        <pt x="277" y="362" on="1"/>
        <pt x="171" y="489" on="0"/>
        <pt x="101" y="588" on="1"/>
        <pt x="86" y="609" on="0"/>
        <pt x="86" y="629" on="1"/>
        <pt x="86" y="650" on="0"/>
        <pt x="113" y="678" on="0"/>
        <pt x="133" y="678" on="1"/>
        <pt x="159" y="678" on="0"/>
        <pt x="180" y="651" on="1"/>
        <pt x="275" y="526" on="0"/>
        <pt x="356" y="425" on="1"/>
        <pt x="460" y="534" on="0"/>
        <pt x="636" y="686" on="1"/>
        <pt x="653" y="700" on="0"/>
        <pt x="672" y="700" on="1"/>
        <pt x="692" y="700" on="0"/>
        <pt x="720" y="674" on="0"/>
        <pt x="720" y="655" on="1"/>
        <pt x="720" y="633" on="0"/>
        <pt x="698" y="614" on="1"/>
        <pt x="541" y="478" on="0"/>
        <pt x="415" y="355" on="1"/>
        <pt x="559" y="186" on="0"/>
        <pt x="672" y="98" on="1"/>
      </contour>
    </TTGlyph>
    <TTGlyph name="Xi" xMin="12" yMin="3" xMax="549" yMax="714">
      <contour>
        <pt x="34" y="10" on="0"/>
        <pt x="12" y="38" on="0"/>
        <pt x="12" y="55" on="1"/>
        <pt x="12" y="72" on="0"/>
        <pt x="34" y="99" on="0"/>
        <pt x="56" y="105" on="1"/>
        <pt x="199" y="105" on="0"/>
        <pt x="270" y="104" on="1"/>
        <pt x="483" y="103" on="1"/>
        <pt x="509" y="100" on="0"/>
        <pt x="537" y="71" on="0"/>
        <pt x="537" y="53" on="1"/>
        <pt x="537" y="34" on="0"/>
        <pt x="509" y="5" on="0"/>
        <pt x="483" y="3" on="1"/>
        <pt x="270" y="4" on="1"/>
        <pt x="199" y="5" on="0"/>
        <pt x="56" y="5" on="1"/>
      </contour>
      <contour>
        <pt x="36" y="670" on="0"/>
        <pt x="58" y="697" on="0"/>
        <pt x="80" y="703" on="1"/>
        <pt x="184" y="704" on="0"/>
        <pt x="288" y="709" on="1"/>
        <pt x="314" y="710" on="0"/>
        <pt x="443" y="714" on="0"/>
        <pt x="495" y="714" on="1"/>
        <pt x="521" y="711" on="0"/>
        <pt x="549" y="682" on="0"/>
        <pt x="549" y="664" on="1"/>
        <pt x="549" y="645" on="0"/>
        <pt x="521" y="616" on="0"/>
        <pt x="495" y="614" on="1"/>
        <pt x="443" y="614" on="0"/>
        <pt x="314" y="610" on="0"/>
        <pt x="288" y="609" on="1"/>
        <pt x="184" y="604" on="0"/>
        <pt x="80" y="603" on="1"/>
        <pt x="58" y="608" on="0"/>
        <pt x="36" y="636" on="0"/>
        <pt x="36" y="653" on="1"/>
      </contour>
      <contour>
        <pt x="120" y="380" on="0"/>
        <pt x="142" y="407" on="0"/>
        <pt x="164" y="413" on="1"/>
        <pt x="239" y="413" on="0"/>
        <pt x="277" y="412" on="1"/>
        <pt x="389" y="411" on="1"/>
        <pt x="415" y="408" on="0"/>
        <pt x="443" y="379" on="0"/>
        <pt x="443" y="361" on="1"/>
        <pt x="443" y="342" on="0"/>
        <pt x="415" y="313" on="0"/>
        <pt x="389" y="311" on="1"/>
        <pt x="277" y="312" on="1"/>
        <pt x="239" y="313" on="0"/>
        <pt x="164" y="313" on="1"/>
        <pt x="142" y="318" on="0"/>
        <pt x="120" y="346" on="0"/>
        <pt x="120" y="363" on="1"/>
      </contour>
    </TTGlyph>
    <TTGlyph name="Y" xMin="26" yMin="-29" xMax="639" yMax="739">
      <contour>
        <pt x="237" y="-29" on="0"/>
        <pt x="207" y="2" on="0"/>
        <pt x="209" y="29" on="1"/>
        <pt x="213" y="84" on="0"/>
        <pt x="225" y="173" on="1"/>
        <pt x="236" y="259" on="0"/>
        <pt x="242" y="331" on="1"/>
        <pt x="175" y="384" on="0"/>
        <pt x="52" y="579" on="0"/>
        <pt x="29" y="666" on="1"/>
        <pt x="26" y="678" on="0"/>
        <pt x="26" y="689" on="1"/>
        <pt x="26" y="710" on="0"/>
        <pt x="49" y="739" on="0"/>
        <pt x="70" y="739" on="1"/>
        <pt x="112" y="739" on="0"/>
        <pt x="126" y="691" on="1"/>
        <pt x="150" y="609" on="0"/>
        <pt x="233" y="475" on="0"/>
        <pt x="298" y="408" on="1"/>
        <pt x="333" y="435" on="0"/>
        <pt x="391" y="493" on="0"/>
        <pt x="425" y="533" on="1"/>
        <pt x="489" y="608" on="0"/>
        <pt x="536" y="686" on="1"/>
        <pt x="564" y="731" on="0"/>
        <pt x="596" y="731" on="1"/>
        <pt x="616" y="731" on="0"/>
        <pt x="639" y="706" on="0"/>
        <pt x="639" y="685" on="1"/>
        <pt x="639" y="674" on="0"/>
        <pt x="634" y="659" on="1"/>
        <pt x="622" y="625" on="0"/>
        <pt x="533" y="502" on="0"/>
        <pt x="503" y="471" on="1"/>
        <pt x="418" y="384" on="0"/>
        <pt x="343" y="335" on="1"/>
        <pt x="331" y="158" on="0"/>
        <pt x="309" y="21" on="1"/>
        <pt x="305" y="-4" on="0"/>
        <pt x="277" y="-29" on="0"/>
        <pt x="258" y="-29" on="1"/>
      </contour>
    </TTGlyph>
    <TTGlyph name="Yacute" xMin="33" yMin="-29" xMax="646" yMax="930">
      <component glyphName="Y" x="7" y="0" flags="0x400"/>
      <component glyphName="acutecomb.case" x="187" y="0" flags="0x400"/>
    </TTGlyph>
    <TTGlyph name="Ycircumflex" xMin="26" yMin="-29" xMax="639" yMax="939">
      <component glyphName="Y" x="0" y="0" flags="0x400"/>
      <component glyphName="uni0302.case" x="191" y="15" flags="0x404"/>
    </TTGlyph>
    <TTGlyph name="Ydieresis" xMin="31" yMin="-29" xMax="644" yMax="922">
      <component glyphName="Y" x="5" y="0" flags="0x400"/>
      <component glyphName="uni0308.case" x="-10" y="-30" flags="0x404"/>
    </TTGlyph>
    <TTGlyph name="Ygrave" xMin="26" yMin="-29" xMax="639" yMax="917">
      <component glyphName="Y" x="0" y="0" flags="0x400"/>
      <component glyphName="gravecomb.case" x="185" y="0" flags="0x400"/>
    </TTGlyph>
    <TTGlyph name="Z" xMin="49" yMin="-15" xMax="662" yMax="722">
      <contour>
        <pt x="49" y="691" on="0"/>
        <pt x="79" y="722" on="0"/>
        <pt x="105" y="722" on="1"/>
        <pt x="328" y="722" on="0"/>
        <pt x="479" y="716" on="1"/>
        <pt x="509" y="714" on="0"/>
        <pt x="546" y="688" on="0"/>
        <pt x="546" y="663" on="1"/>
        <pt x="546" y="639" on="0"/>
        <pt x="524" y="617" on="1"/>
        <pt x="459" y="497" on="0"/>
        <pt x="343" y="303" on="1"/>
        <pt x="270" y="183" on="0"/>
        <pt x="200" y="76" on="1"/>
        <pt x="316" y="86" on="0"/>
        <pt x="558" y="98" on="0"/>
        <pt x="608" y="98" on="1"/>
        <pt x="634" y="98" on="0"/>
        <pt x="662" y="69" on="0"/>
        <pt x="662" y="48" on="1"/>
        <pt x="662" y="27" on="0"/>
        <pt x="632" y="-1" on="0"/>
        <pt x="608" y="-2" on="1"/>
        <pt x="150" y="-14" on="1"/>
        <pt x="108" y="-15" on="0"/>
        <pt x="66" y="10" on="0"/>
        <pt x="66" y="35" on="1"/>
        <pt x="66" y="48" on="0"/>
        <pt x="78" y="71" on="0"/>
        <pt x="87" y="78" on="1"/>
        <pt x="177" y="211" on="0"/>
        <pt x="261" y="359" on="1"/>
        <pt x="331" y="484" on="0"/>
        <pt x="413" y="619" on="1"/>
        <pt x="310" y="621" on="0"/>
        <pt x="113" y="621" on="1"/>
        <pt x="81" y="621" on="0"/>
        <pt x="49" y="649" on="0"/>
        <pt x="49" y="671" on="1"/>
      </contour>
    </TTGlyph>
    <TTGlyph name="Z.ss02" xMin="49" yMin="-15" xMax="662" yMax="722">
      <component glyphName="uni01B5" x="0" y="0" flags="0x400"/>
    </TTGlyph>
    <TTGlyph name="Zacute" xMin="49" yMin="-15" xMax="662" yMax="926">
      <component glyphName="Z" x="0" y="0" flags="0x400"/>
      <component glyphName="acutecomb.case" x="133" y="-4" flags="0x404"/>
    </TTGlyph>
    <TTGlyph name="Zcaron" xMin="49" yMin="-15" xMax="662" yMax="992">
      <component glyphName="Z" x="0" y="0" flags="0x400"/>
      <component glyphName="uni030C.case" x="158" y="81" flags="0x404"/>
    </TTGlyph>
    <TTGlyph name="Zdotaccent" xMin="49" yMin="-15" xMax="662" yMax="920">
      <component glyphName="Z" x="0" y="0" flags="0x400"/>
      <component glyphName="uni0307.case" x="-86" y="6" flags="0x404"/>
    </TTGlyph>
    <TTGlyph name="Zeta" xMin="49" yMin="-15" xMax="662" yMax="722">
      <component glyphName="Z" x="0" y="0" flags="0x400"/>
    </TTGlyph>
    <TTGlyph name="a" xMin="31" yMin="-20" xMax="594" yMax="507">
      <contour>
        <pt x="104" y="-6" on="0"/>
        <pt x="31" y="82" on="0"/>
        <pt x="31" y="166" on="1"/>
        <pt x="31" y="192" on="0"/>
        <pt x="36" y="232" on="1"/>
        <pt x="48" y="313" on="0"/>
        <pt x="130" y="439" on="0"/>
        <pt x="251" y="507" on="0"/>
        <pt x="319" y="507" on="1"/>
        <pt x="402" y="507" on="0"/>
        <pt x="450" y="470" on="1"/>
        <pt x="458" y="464" on="0"/>
        <pt x="468" y="452" on="1"/>
        <pt x="471" y="453" on="0"/>
        <pt x="479" y="453" on="1"/>
        <pt x="503" y="453" on="0"/>
        <pt x="535" y="418" on="0"/>
        <pt x="531" y="388" on="1"/>
        <pt x="512" y="236" on="0"/>
        <pt x="512" y="169" on="1"/>
        <pt x="512" y="120" on="0"/>
        <pt x="536" y="77" on="0"/>
        <pt x="557" y="65" on="1"/>
        <pt x="594" y="44" on="0"/>
        <pt x="594" y="17" on="1"/>
        <pt x="594" y="2" on="0"/>
        <pt x="566" y="-20" on="0"/>
        <pt x="546" y="-20" on="1"/>
        <pt x="505" y="-20" on="0"/>
        <pt x="441" y="22" on="0"/>
        <pt x="428" y="67" on="1"/>
        <pt x="419" y="97" on="0"/>
        <pt x="419" y="138" on="1"/>
        <pt x="419" y="163" on="0"/>
        <pt x="422" y="193" on="1"/>
        <pt x="401" y="148" on="0"/>
        <pt x="377" y="115" on="1"/>
        <pt x="338" y="63" on="0"/>
        <pt x="231" y="-6" on="0"/>
        <pt x="168" y="-6" on="1"/>
      </contour>
      <contour>
        <pt x="138" y="190" on="0"/>
        <pt x="138" y="170" on="1"/>
        <pt x="138" y="129" on="0"/>
        <pt x="162" y="92" on="0"/>
        <pt x="189" y="92" on="1"/>
        <pt x="217" y="92" on="0"/>
        <pt x="292" y="139" on="0"/>
        <pt x="328" y="189" on="1"/>
        <pt x="394" y="280" on="0"/>
        <pt x="425" y="395" on="1"/>
        <pt x="420" y="396" on="0"/>
        <pt x="410" y="400" on="1"/>
        <pt x="361" y="421" on="0"/>
        <pt x="327" y="421" on="1"/>
        <pt x="286" y="421" on="0"/>
        <pt x="203" y="372" on="0"/>
        <pt x="145" y="273" on="0"/>
        <pt x="139" y="201" on="1"/>
      </contour>
    </TTGlyph>
    <TTGlyph name="a.001" xMin="34" yMin="-13" xMax="533" yMax="510">
      <contour>
        <pt x="106" y="-6" on="0"/>
        <pt x="34" y="75" on="0"/>
        <pt x="34" y="152" on="1"/>
        <pt x="34" y="267" on="0"/>
        <pt x="143" y="429" on="0"/>
        <pt x="293" y="510" on="0"/>
        <pt x="350" y="510" on="1"/>
        <pt x="375" y="510" on="0"/>
        <pt x="406" y="485" on="0"/>
        <pt x="406" y="468" on="1"/>
        <pt x="406" y="460" on="0"/>
        <pt x="402" y="453" on="1"/>
        <pt x="418" y="448" on="0"/>
        <pt x="441" y="419" on="0"/>
        <pt x="442" y="397" on="1"/>
        <pt x="445" y="357" on="1"/>
        <pt x="453" y="246" on="0"/>
        <pt x="466" y="129" on="0"/>
        <pt x="479" y="90" on="1"/>
        <pt x="505" y="86" on="0"/>
        <pt x="533" y="58" on="0"/>
        <pt x="533" y="40" on="1"/>
        <pt x="533" y="19" on="0"/>
        <pt x="500" y="-13" on="0"/>
        <pt x="473" y="-13" on="1"/>
        <pt x="436" y="-13" on="0"/>
        <pt x="391" y="28" on="0"/>
        <pt x="381" y="78" on="1"/>
        <pt x="369" y="138" on="0"/>
        <pt x="367" y="194" on="1"/>
        <pt x="335" y="83" on="0"/>
        <pt x="284" y="37" on="1"/>
        <pt x="261" y="16" on="0"/>
        <pt x="201" y="-6" on="0"/>
        <pt x="168" y="-6" on="1"/>
      </contour>
      <contour>
        <pt x="137" y="179" on="0"/>
        <pt x="137" y="157" on="1"/>
        <pt x="137" y="94" on="0"/>
        <pt x="176" y="94" on="1"/>
        <pt x="215" y="94" on="0"/>
        <pt x="252" y="147" on="1"/>
        <pt x="282" y="190" on="0"/>
        <pt x="331" y="320" on="0"/>
        <pt x="341" y="400" on="1"/>
        <pt x="341" y="408" on="0"/>
        <pt x="343" y="420" on="1"/>
        <pt x="244" y="389" on="0"/>
        <pt x="149" y="265" on="0"/>
        <pt x="139" y="192" on="1"/>
      </contour>
    </TTGlyph>
    <TTGlyph name="a.002" xMin="34" yMin="-9" xMax="534" yMax="507">
      <contour>
        <pt x="96" y="1" on="0"/>
        <pt x="34" y="84" on="0"/>
        <pt x="34" y="164" on="1"/>
        <pt x="34" y="257" on="0"/>
        <pt x="102" y="415" on="0"/>
        <pt x="223" y="507" on="0"/>
        <pt x="298" y="507" on="1"/>
        <pt x="381" y="507" on="0"/>
        <pt x="429" y="470" on="1"/>
        <pt x="457" y="447" on="0"/>
        <pt x="454" y="424" on="1"/>
        <pt x="475" y="426" on="0"/>
        <pt x="505" y="399" on="0"/>
        <pt x="505" y="373" on="1"/>
        <pt x="505" y="365" on="0"/>
        <pt x="504" y="360" on="1"/>
        <pt x="493" y="296" on="1"/>
        <pt x="482" y="232" on="0"/>
        <pt x="474" y="171" on="0"/>
        <pt x="474" y="138" on="1"/>
        <pt x="474" y="113" on="0"/>
        <pt x="485" y="94" on="0"/>
        <pt x="502" y="83" on="1"/>
        <pt x="518" y="73" on="0"/>
        <pt x="534" y="47" on="0"/>
        <pt x="534" y="34" on="1"/>
        <pt x="534" y="16" on="0"/>
        <pt x="506" y="-9" on="0"/>
        <pt x="482" y="-9" on="1"/>
        <pt x="449" y="-9" on="0"/>
        <pt x="394" y="28" on="0"/>
        <pt x="385" y="67" on="1"/>
        <pt x="381" y="84" on="0"/>
        <pt x="381" y="107" on="1"/>
        <pt x="381" y="138" on="0"/>
        <pt x="390" y="180" on="1"/>
        <pt x="367" y="136" on="0"/>
        <pt x="338" y="104" on="1"/>
        <pt x="245" y="1" on="0"/>
        <pt x="150" y="1" on="1"/>
      </contour>
      <contour>
        <pt x="140" y="173" on="0"/>
        <pt x="140" y="165" on="1"/>
        <pt x="140" y="131" on="0"/>
        <pt x="154" y="99" on="0"/>
        <pt x="166" y="99" on="1"/>
        <pt x="190" y="99" on="0"/>
        <pt x="259" y="140" on="0"/>
        <pt x="292" y="178" on="1"/>
        <pt x="331" y="223" on="0"/>
        <pt x="381" y="317" on="0"/>
        <pt x="402" y="381" on="1"/>
        <pt x="408" y="395" on="1"/>
        <pt x="396" y="397" on="0"/>
        <pt x="389" y="400" on="1"/>
        <pt x="340" y="421" on="0"/>
        <pt x="306" y="421" on="1"/>
        <pt x="270" y="421" on="0"/>
        <pt x="199" y="372" on="0"/>
        <pt x="148" y="273" on="0"/>
        <pt x="142" y="201" on="1"/>
      </contour>
    </TTGlyph>
    <TTGlyph name="a.003" xMin="27" yMin="-17" xMax="510" yMax="528">
      <contour>
        <pt x="108" y="-1" on="0"/>
        <pt x="27" y="90" on="0"/>
        <pt x="27" y="169" on="1"/>
        <pt x="27" y="272" on="0"/>
        <pt x="133" y="436" on="0"/>
        <pt x="282" y="528" on="0"/>
        <pt x="341" y="528" on="1"/>
        <pt x="367" y="528" on="0"/>
        <pt x="397" y="503" on="0"/>
        <pt x="397" y="486" on="1"/>
        <pt x="397" y="480" on="0"/>
        <pt x="396" y="477" on="1"/>
        <pt x="416" y="476" on="0"/>
        <pt x="446" y="447" on="0"/>
        <pt x="447" y="421" on="1"/>
        <pt x="449" y="373" on="0"/>
        <pt x="451" y="351" on="1"/>
        <pt x="456" y="235" on="0"/>
        <pt x="462" y="173" on="1"/>
        <pt x="466" y="136" on="0"/>
        <pt x="484" y="90" on="0"/>
        <pt x="501" y="60" on="0"/>
        <pt x="504" y="53" on="1"/>
        <pt x="510" y="40" on="0"/>
        <pt x="510" y="28" on="1"/>
        <pt x="510" y="9" on="0"/>
        <pt x="483" y="-17" on="0"/>
        <pt x="465" y="-17" on="1"/>
        <pt x="438" y="-17" on="0"/>
        <pt x="395" y="25" on="0"/>
        <pt x="385" y="66" on="1"/>
        <pt x="375" y="105" on="0"/>
        <pt x="370" y="159" on="1"/>
        <pt x="341" y="80" on="0"/>
        <pt x="244" y="-1" on="0"/>
        <pt x="179" y="-1" on="1"/>
      </contour>
      <contour>
        <pt x="131" y="185" on="0"/>
        <pt x="131" y="170" on="1"/>
        <pt x="131" y="136" on="0"/>
        <pt x="159" y="99" on="0"/>
        <pt x="186" y="99" on="1"/>
        <pt x="228" y="99" on="0"/>
        <pt x="301" y="168" on="0"/>
        <pt x="347" y="315" on="0"/>
        <pt x="346" y="426" on="1"/>
        <pt x="344" y="435" on="0"/>
        <pt x="346" y="443" on="1"/>
        <pt x="245" y="414" on="0"/>
        <pt x="147" y="282" on="0"/>
        <pt x="134" y="203" on="1"/>
      </contour>
    </TTGlyph>
    <TTGlyph name="a.004" xMin="37" yMin="5" xMax="571" yMax="503">
      <contour>
        <pt x="125" y="11" on="0"/>
        <pt x="37" y="108" on="0"/>
        <pt x="37" y="192" on="1"/>
        <pt x="37" y="280" on="0"/>
        <pt x="119" y="422" on="0"/>
        <pt x="250" y="503" on="0"/>
        <pt x="321" y="503" on="1"/>
        <pt x="359" y="503" on="0"/>
        <pt x="422" y="489" on="0"/>
        <pt x="437" y="478" on="1"/>
        <pt x="459" y="462" on="0"/>
        <pt x="459" y="439" on="1"/>
        <pt x="459" y="432" on="0"/>
        <pt x="456" y="424" on="1"/>
        <pt x="472" y="420" on="0"/>
        <pt x="492" y="393" on="0"/>
        <pt x="492" y="370" on="1"/>
        <pt x="492" y="341" on="1"/>
        <pt x="494" y="239" on="0"/>
        <pt x="498" y="189" on="1"/>
        <pt x="501" y="158" on="0"/>
        <pt x="526" y="116" on="0"/>
        <pt x="557" y="81" on="0"/>
        <pt x="562" y="75" on="1"/>
        <pt x="571" y="65" on="0"/>
        <pt x="571" y="51" on="1"/>
        <pt x="571" y="33" on="0"/>
        <pt x="544" y="5" on="0"/>
        <pt x="525" y="5" on="1"/>
        <pt x="496" y="5" on="0"/>
        <pt x="438" y="58" on="0"/>
        <pt x="425" y="96" on="1"/>
        <pt x="409" y="145" on="0"/>
        <pt x="409" y="192" on="1"/>
        <pt x="333" y="11" on="0"/>
        <pt x="199" y="11" on="1"/>
      </contour>
      <contour>
        <pt x="140" y="208" on="0"/>
        <pt x="140" y="192" on="1"/>
        <pt x="140" y="153" on="0"/>
        <pt x="173" y="111" on="0"/>
        <pt x="203" y="111" on="1"/>
        <pt x="241" y="111" on="0"/>
        <pt x="320" y="190" on="0"/>
        <pt x="381" y="314" on="0"/>
        <pt x="394" y="379" on="1"/>
        <pt x="397" y="393" on="0"/>
        <pt x="403" y="401" on="1"/>
        <pt x="394" y="402" on="0"/>
        <pt x="343" y="412" on="0"/>
        <pt x="322" y="412" on="1"/>
        <pt x="275" y="412" on="0"/>
        <pt x="201" y="361" on="0"/>
        <pt x="153" y="279" on="0"/>
        <pt x="145" y="235" on="1"/>
      </contour>
    </TTGlyph>
    <TTGlyph name="a.005" xMin="29" yMin="-6" xMax="586" yMax="519">
      <contour>
        <pt x="107" y="-6" on="0"/>
        <pt x="29" y="80" on="0"/>
        <pt x="29" y="155" on="1"/>
        <pt x="29" y="266" on="0"/>
        <pt x="153" y="431" on="0"/>
        <pt x="319" y="519" on="0"/>
        <pt x="377" y="519" on="1"/>
        <pt x="403" y="519" on="0"/>
        <pt x="433" y="495" on="0"/>
        <pt x="433" y="478" on="1"/>
        <pt x="433" y="462" on="0"/>
        <pt x="420" y="450" on="1"/>
        <pt x="435" y="445" on="0"/>
        <pt x="457" y="419" on="0"/>
        <pt x="458" y="398" on="1"/>
        <pt x="466" y="290" on="0"/>
        <pt x="490" y="158" on="0"/>
        <pt x="520" y="119" on="1"/>
        <pt x="552" y="117" on="0"/>
        <pt x="586" y="86" on="0"/>
        <pt x="586" y="66" on="1"/>
        <pt x="586" y="47" on="0"/>
        <pt x="556" y="18" on="0"/>
        <pt x="531" y="18" on="1"/>
        <pt x="492" y="18" on="0"/>
        <pt x="429" y="69" on="0"/>
        <pt x="412" y="113" on="1"/>
        <pt x="395" y="159" on="0"/>
        <pt x="389" y="206" on="1"/>
        <pt x="356" y="98" on="0"/>
        <pt x="245" y="-6" on="0"/>
        <pt x="174" y="-6" on="1"/>
      </contour>
      <contour>
        <pt x="133" y="171" on="0"/>
        <pt x="133" y="157" on="1"/>
        <pt x="133" y="127" on="0"/>
        <pt x="156" y="94" on="0"/>
        <pt x="178" y="94" on="1"/>
        <pt x="218" y="94" on="0"/>
        <pt x="294" y="169" on="0"/>
        <pt x="348" y="308" on="0"/>
        <pt x="357" y="401" on="1"/>
        <pt x="356" y="404" on="0"/>
        <pt x="356" y="409" on="1"/>
        <pt x="356" y="417" on="0"/>
        <pt x="360" y="427" on="1"/>
        <pt x="254" y="392" on="0"/>
        <pt x="147" y="262" on="0"/>
        <pt x="136" y="187" on="1"/>
      </contour>
    </TTGlyph>
    <TTGlyph name="a_a" xMin="28" yMin="-13" xMax="1209" yMax="499">
      <contour>
        <pt x="115" y="12" on="0"/>
        <pt x="28" y="100" on="0"/>
        <pt x="28" y="178" on="1"/>
        <pt x="28" y="266" on="0"/>
        <pt x="116" y="413" on="0"/>
        <pt x="256" y="499" on="0"/>
        <pt x="331" y="499" on="1"/>
        <pt x="414" y="499" on="0"/>
        <pt x="464" y="466" on="1"/>
        <pt x="489" y="450" on="0"/>
        <pt x="492" y="429" on="1"/>
        <pt x="516" y="413" on="0"/>
        <pt x="515" y="380" on="1"/>
        <pt x="514" y="325" on="1"/>
        <pt x="514" y="244" on="0"/>
        <pt x="521" y="176" on="1"/>
        <pt x="525" y="134" on="0"/>
        <pt x="548" y="95" on="0"/>
        <pt x="570" y="78" on="1"/>
        <pt x="600" y="55" on="0"/>
        <pt x="600" y="27" on="1"/>
        <pt x="600" y="10" on="0"/>
        <pt x="574" y="-13" on="0"/>
        <pt x="555" y="-13" on="1"/>
        <pt x="488" y="-13" on="0"/>
        <pt x="450" y="67" on="1"/>
        <pt x="426" y="119" on="0"/>
        <pt x="427" y="194" on="1"/>
        <pt x="386" y="101" on="0"/>
        <pt x="275" y="12" on="0"/>
        <pt x="190" y="12" on="1"/>
      </contour>
      <contour>
        <pt x="132" y="201" on="0"/>
        <pt x="132" y="184" on="1"/>
        <pt x="132" y="145" on="0"/>
        <pt x="167" y="108" on="0"/>
        <pt x="203" y="108" on="1"/>
        <pt x="271" y="108" on="0"/>
        <pt x="383" y="242" on="0"/>
        <pt x="417" y="379" on="1"/>
        <pt x="417" y="391" on="0"/>
        <pt x="420" y="400" on="1"/>
        <pt x="382" y="413" on="0"/>
        <pt x="339" y="413" on="1"/>
        <pt x="296" y="413" on="0"/>
        <pt x="207" y="364" on="0"/>
        <pt x="143" y="276" on="0"/>
        <pt x="135" y="220" on="1"/>
      </contour>
      <contour>
        <pt x="641" y="308" on="0"/>
        <pt x="729" y="428" on="0"/>
        <pt x="860" y="497" on="0"/>
        <pt x="931" y="497" on="1"/>
        <pt x="1014" y="497" on="0"/>
        <pt x="1062" y="460" on="1"/>
        <pt x="1067" y="456" on="1"/>
        <pt x="1100" y="446" on="0"/>
        <pt x="1100" y="391" on="1"/>
        <pt x="1100" y="353" on="0"/>
        <pt x="1085" y="300" on="1"/>
        <pt x="1086" y="216" on="0"/>
        <pt x="1104" y="128" on="0"/>
        <pt x="1136" y="93" on="0"/>
        <pt x="1164" y="87" on="1"/>
        <pt x="1186" y="82" on="0"/>
        <pt x="1209" y="57" on="0"/>
        <pt x="1209" y="41" on="1"/>
        <pt x="1209" y="21" on="0"/>
        <pt x="1174" y="-9" on="0"/>
        <pt x="1145" y="-9" on="1"/>
        <pt x="1090" y="-9" on="0"/>
        <pt x="1014" y="72" on="0"/>
        <pt x="1003" y="151" on="1"/>
        <pt x="929" y="2" on="0"/>
        <pt x="795" y="2" on="1"/>
        <pt x="723" y="2" on="0"/>
        <pt x="629" y="100" on="0"/>
        <pt x="629" y="191" on="1"/>
        <pt x="629" y="212" on="0"/>
        <pt x="632" y="234" on="1"/>
      </contour>
      <contour>
        <pt x="735" y="199" on="0"/>
        <pt x="735" y="190" on="1"/>
        <pt x="735" y="96" on="0"/>
        <pt x="812" y="96" on="1"/>
        <pt x="852" y="96" on="0"/>
        <pt x="931" y="161" on="0"/>
        <pt x="988" y="298" on="0"/>
        <pt x="993" y="401" on="1"/>
        <pt x="963" y="411" on="0"/>
        <pt x="939" y="411" on="1"/>
        <pt x="895" y="411" on="0"/>
        <pt x="806" y="367" on="0"/>
        <pt x="743" y="281" on="0"/>
        <pt x="737" y="221" on="1"/>
      </contour>
    </TTGlyph>
    <TTGlyph name="aacute" xMin="34" yMin="-9" xMax="534" yMax="773">
      <component glyphName="a.002" x="0" y="0" flags="0x400"/>
      <component glyphName="acutecomb" x="33" y="0" flags="0x400"/>
    </TTGlyph>
    <TTGlyph name="abreve" xMin="31" yMin="-20" xMax="594" yMax="778">
      <component glyphName="a" x="0" y="0" flags="0x400"/>
      <component glyphName="uni0306" x="21" y="30" flags="0x404"/>
    </TTGlyph>
    <TTGlyph name="acircumflex" xMin="27" yMin="-17" xMax="510" yMax="750">
      <component glyphName="a.003" x="0" y="0" flags="0x400"/>
      <component glyphName="uni0302" x="22" y="0" flags="0x400"/>
    </TTGlyph>
    <TTGlyph name="acute" xMin="35" yMin="499" xMax="252" yMax="698">
      <component glyphName="acutecomb" x="-219" y="-75" flags="0x404"/>
    </TTGlyph>
    <TTGlyph name="acutecomb" xMin="254" yMin="574" xMax="471" yMax="773">
      <contour>
        <pt x="419" y="646" on="0"/>
        <pt x="348" y="597" on="0"/>
        <pt x="320" y="582" on="1"/>
        <pt x="305" y="574" on="0"/>
        <pt x="290" y="574" on="1"/>
        <pt x="274" y="574" on="0"/>
        <pt x="254" y="592" on="0"/>
        <pt x="254" y="606" on="1"/>
        <pt x="254" y="623" on="0"/>
        <pt x="268" y="640" on="1"/>
        <pt x="286" y="662" on="0"/>
        <pt x="345" y="728" on="0"/>
        <pt x="368" y="750" on="1"/>
        <pt x="392" y="773" on="0"/>
        <pt x="419" y="773" on="1"/>
        <pt x="441" y="773" on="0"/>
        <pt x="471" y="745" on="0"/>
        <pt x="471" y="724" on="1"/>
        <pt x="471" y="696" on="0"/>
        <pt x="444" y="670" on="1"/>
      </contour>
    </TTGlyph>
    <TTGlyph name="acutecomb.case" xMin="92" yMin="748" xMax="360" yMax="930">
      <contour>
        <pt x="116" y="748" on="0"/>
        <pt x="92" y="769" on="0"/>
        <pt x="92" y="785" on="1"/>
        <pt x="92" y="811" on="0"/>
        <pt x="130" y="829" on="1"/>
        <pt x="163" y="844" on="0"/>
        <pt x="246" y="894" on="0"/>
        <pt x="279" y="917" on="1"/>
        <pt x="298" y="930" on="0"/>
        <pt x="315" y="930" on="1"/>
        <pt x="334" y="930" on="0"/>
        <pt x="360" y="902" on="0"/>
        <pt x="360" y="880" on="1"/>
        <pt x="360" y="856" on="0"/>
        <pt x="336" y="836" on="1"/>
        <pt x="311" y="815" on="0"/>
        <pt x="226" y="770" on="0"/>
        <pt x="185" y="757" on="1"/>
        <pt x="154" y="748" on="0"/>
        <pt x="137" y="748" on="1"/>
      </contour>
    </TTGlyph>
    <TTGlyph name="adieresis" xMin="29" yMin="-6" xMax="586" yMax="724">
      <component glyphName="a.005" x="0" y="0" flags="0x400"/>
      <component glyphName="uni0308" x="-58" y="-20" flags="0x404"/>
    </TTGlyph>
    <TTGlyph name="ae" xMin="50" yMin="-22" xMax="650" yMax="516">
      <contour>
        <pt x="135" y="-22" on="0"/>
        <pt x="50" y="50" on="0"/>
        <pt x="50" y="113" on="1"/>
        <pt x="50" y="162" on="0"/>
        <pt x="101" y="229" on="0"/>
        <pt x="155" y="253" on="1"/>
        <pt x="195" y="270" on="0"/>
        <pt x="273" y="283" on="1"/>
        <pt x="244" y="418" on="0"/>
        <pt x="190" y="418" on="1"/>
        <pt x="172" y="418" on="0"/>
        <pt x="137" y="392" on="0"/>
        <pt x="118" y="367" on="1"/>
        <pt x="106" y="352" on="0"/>
        <pt x="88" y="352" on="1"/>
        <pt x="73" y="352" on="0"/>
        <pt x="50" y="376" on="0"/>
        <pt x="50" y="395" on="1"/>
        <pt x="50" y="419" on="0"/>
        <pt x="88" y="474" on="0"/>
        <pt x="154" y="512" on="0"/>
        <pt x="195" y="512" on="1"/>
        <pt x="245" y="512" on="0"/>
        <pt x="316" y="456" on="0"/>
        <pt x="338" y="393" on="1"/>
        <pt x="359" y="454" on="0"/>
        <pt x="451" y="516" on="0"/>
        <pt x="506" y="516" on="1"/>
        <pt x="568" y="516" on="0"/>
        <pt x="646" y="440" on="0"/>
        <pt x="646" y="385" on="1"/>
        <pt x="646" y="292" on="0"/>
        <pt x="537" y="251" on="1"/>
        <pt x="508" y="240" on="0"/>
        <pt x="440" y="225" on="0"/>
        <pt x="393" y="217" on="1"/>
        <pt x="400" y="154" on="0"/>
        <pt x="455" y="74" on="0"/>
        <pt x="496" y="74" on="1"/>
        <pt x="521" y="74" on="0"/>
        <pt x="569" y="90" on="0"/>
        <pt x="602" y="106" on="1"/>
        <pt x="610" y="110" on="0"/>
        <pt x="620" y="110" on="1"/>
        <pt x="633" y="110" on="0"/>
        <pt x="650" y="92" on="0"/>
        <pt x="650" y="78" on="1"/>
        <pt x="650" y="59" on="0"/>
        <pt x="634" y="40" on="1"/>
        <pt x="611" y="13" on="0"/>
        <pt x="537" y="-20" on="0"/>
        <pt x="500" y="-20" on="1"/>
        <pt x="449" y="-20" on="0"/>
        <pt x="367" y="27" on="0"/>
        <pt x="343" y="71" on="1"/>
        <pt x="304" y="-22" on="0"/>
        <pt x="196" y="-22" on="1"/>
      </contour>
      <contour>
        <pt x="160" y="96" on="0"/>
        <pt x="188" y="72" on="0"/>
        <pt x="211" y="72" on="1"/>
        <pt x="252" y="72" on="0"/>
        <pt x="290" y="134" on="0"/>
        <pt x="286" y="199" on="1"/>
        <pt x="232" y="188" on="0"/>
        <pt x="203" y="173" on="1"/>
        <pt x="181" y="162" on="0"/>
        <pt x="160" y="132" on="0"/>
        <pt x="160" y="117" on="1"/>
      </contour>
      <contour>
        <pt x="458" y="318" on="0"/>
        <pt x="492" y="331" on="1"/>
        <pt x="538" y="349" on="0"/>
        <pt x="538" y="385" on="1"/>
        <pt x="538" y="402" on="0"/>
        <pt x="517" y="421" on="0"/>
        <pt x="497" y="421" on="1"/>
        <pt x="462" y="421" on="0"/>
        <pt x="404" y="359" on="0"/>
        <pt x="395" y="304" on="1"/>
      </contour>
    </TTGlyph>
    <TTGlyph name="aeacute" xMin="50" yMin="-22" xMax="650" yMax="773">
      <component glyphName="ae" x="0" y="0" flags="0x400"/>
      <component glyphName="acutecomb" x="47" y="0" flags="0x400"/>
    </TTGlyph>
    <TTGlyph name="agrave" xMin="34" yMin="-13" xMax="533" yMax="773">
      <component glyphName="a.001" x="0" y="0" flags="0x400"/>
      <component glyphName="gravecomb" x="9" y="0" flags="0x400"/>
    </TTGlyph>
    <TTGlyph name="alpha" xMin="41" yMin="-33" xMax="620" yMax="532">
      <contour>
        <pt x="468" y="511" on="0"/>
        <pt x="495" y="532" on="0"/>
        <pt x="511" y="532" on="1"/>
        <pt x="530" y="532" on="0"/>
        <pt x="558" y="504" on="0"/>
        <pt x="558" y="479" on="1"/>
        <pt x="558" y="469" on="0"/>
        <pt x="557" y="466" on="1"/>
        <pt x="548" y="407" on="0"/>
        <pt x="529" y="356" on="1"/>
        <pt x="512" y="309" on="0"/>
        <pt x="481" y="258" on="1"/>
        <pt x="491" y="239" on="1"/>
        <pt x="504" y="210" on="0"/>
        <pt x="510" y="195" on="1"/>
        <pt x="531" y="142" on="0"/>
        <pt x="569" y="76" on="0"/>
        <pt x="598" y="58" on="1"/>
        <pt x="620" y="36" on="0"/>
        <pt x="620" y="12" on="1"/>
        <pt x="620" y="-7" on="0"/>
        <pt x="593" y="-33" on="0"/>
        <pt x="570" y="-33" on="1"/>
        <pt x="556" y="-33" on="0"/>
        <pt x="522" y="-16" on="0"/>
        <pt x="509" y="-4" on="1"/>
        <pt x="474" y="27" on="0"/>
        <pt x="428" y="129" on="1"/>
        <pt x="416" y="154" on="1"/>
        <pt x="410" y="147" on="1"/>
        <pt x="395" y="126" on="0"/>
        <pt x="382" y="111" on="1"/>
        <pt x="339" y="58" on="0"/>
        <pt x="236" y="-17" on="0"/>
        <pt x="186" y="-17" on="1"/>
        <pt x="113" y="-17" on="0"/>
        <pt x="41" y="74" on="0"/>
        <pt x="41" y="152" on="1"/>
        <pt x="41" y="226" on="0"/>
        <pt x="98" y="395" on="0"/>
        <pt x="206" y="511" on="0"/>
        <pt x="278" y="511" on="1"/>
        <pt x="316" y="511" on="0"/>
        <pt x="383" y="453" on="0"/>
        <pt x="410" y="405" on="1"/>
        <pt x="420" y="391" on="0"/>
        <pt x="428" y="373" on="1"/>
        <pt x="437" y="397" on="1"/>
        <pt x="453" y="441" on="0"/>
        <pt x="460" y="490" on="1"/>
      </contour>
      <contour>
        <pt x="138" y="122" on="0"/>
        <pt x="161" y="85" on="0"/>
        <pt x="182" y="85" on="1"/>
        <pt x="216" y="85" on="0"/>
        <pt x="307" y="171" on="0"/>
        <pt x="349" y="234" on="1"/>
        <pt x="369" y="264" on="1"/>
        <pt x="362" y="278" on="1"/>
        <pt x="353" y="298" on="1"/>
        <pt x="332" y="346" on="0"/>
        <pt x="292" y="407" on="0"/>
        <pt x="265" y="407" on="1"/>
        <pt x="231" y="407" on="0"/>
        <pt x="172" y="318" on="0"/>
        <pt x="138" y="198" on="0"/>
        <pt x="138" y="157" on="1"/>
      </contour>
    </TTGlyph>
    <TTGlyph name="alphatonos" xMin="41" yMin="-33" xMax="620" yMax="826">
      <component glyphName="alpha" x="0" y="0" flags="0x400"/>
      <component glyphName="tonos" x="271" y="108" flags="0x404"/>
    </TTGlyph>
    <TTGlyph name="amacron" xMin="31" yMin="-20" xMax="594" yMax="717">
      <component glyphName="a" x="0" y="0" flags="0x400"/>
      <component glyphName="uni0304" x="86" y="-20" flags="0x404"/>
    </TTGlyph>
    <TTGlyph name="ampersand" xMin="38" yMin="-47" xMax="645" yMax="653">
      <contour>
        <pt x="38" y="204" on="0"/>
        <pt x="105" y="307" on="0"/>
        <pt x="165" y="359" on="1"/>
        <pt x="143" y="415" on="0"/>
        <pt x="143" y="464" on="1"/>
        <pt x="143" y="519" on="0"/>
        <pt x="193" y="605" on="0"/>
        <pt x="274" y="653" on="0"/>
        <pt x="319" y="653" on="1"/>
        <pt x="369" y="653" on="0"/>
        <pt x="433" y="593" on="0"/>
        <pt x="433" y="541" on="1"/>
        <pt x="433" y="487" on="0"/>
        <pt x="358" y="393" on="0"/>
        <pt x="288" y="337" on="1"/>
        <pt x="309" y="304" on="0"/>
        <pt x="345" y="264" on="1"/>
        <pt x="378" y="226" on="0"/>
        <pt x="438" y="174" on="1"/>
        <pt x="480" y="201" on="0"/>
        <pt x="567" y="267" on="1"/>
        <pt x="588" y="284" on="0"/>
        <pt x="608" y="284" on="1"/>
        <pt x="623" y="284" on="0"/>
        <pt x="641" y="263" on="0"/>
        <pt x="641" y="247" on="1"/>
        <pt x="641" y="214" on="0"/>
        <pt x="610" y="187" on="1"/>
        <pt x="565" y="148" on="0"/>
        <pt x="516" y="113" on="1"/>
        <pt x="561" y="78" on="0"/>
        <pt x="620" y="38" on="1"/>
        <pt x="645" y="21" on="0"/>
        <pt x="645" y="-3" on="1"/>
        <pt x="645" y="-21" on="0"/>
        <pt x="618" y="-47" on="0"/>
        <pt x="598" y="-47" on="1"/>
        <pt x="581" y="-47" on="0"/>
        <pt x="564" y="-37" on="1"/>
        <pt x="489" y="10" on="0"/>
        <pt x="427" y="57" on="1"/>
        <pt x="310" y="-7" on="0"/>
        <pt x="208" y="-7" on="1"/>
        <pt x="126" y="-7" on="0"/>
        <pt x="38" y="62" on="0"/>
        <pt x="38" y="138" on="1"/>
      </contour>
      <contour>
        <pt x="143" y="117" on="0"/>
        <pt x="178" y="87" on="0"/>
        <pt x="210" y="87" on="1"/>
        <pt x="270" y="87" on="0"/>
        <pt x="347" y="123" on="1"/>
        <pt x="299" y="167" on="0"/>
        <pt x="266" y="205" on="1"/>
        <pt x="228" y="250" on="0"/>
        <pt x="208" y="280" on="1"/>
        <pt x="177" y="247" on="0"/>
        <pt x="143" y="182" on="0"/>
        <pt x="143" y="146" on="1"/>
      </contour>
      <contour>
        <pt x="242" y="447" on="0"/>
        <pt x="249" y="417" on="1"/>
        <pt x="286" y="450" on="0"/>
        <pt x="327" y="506" on="0"/>
        <pt x="327" y="535" on="1"/>
        <pt x="327" y="559" on="0"/>
        <pt x="308" y="559" on="1"/>
        <pt x="282" y="559" on="0"/>
        <pt x="242" y="506" on="0"/>
        <pt x="242" y="468" on="1"/>
      </contour>
    </TTGlyph>
    <TTGlyph name="anoteleia" xMin="103" yMin="252" xMax="242" yMax="398">
      <component glyphName="periodcentered" x="0" y="0" flags="0x400"/>
    </TTGlyph>
    <TTGlyph name="aogonek" xMin="31" yMin="-269" xMax="611" yMax="507">
      <contour>
        <pt x="104" y="-6" on="0"/>
        <pt x="31" y="82" on="0"/>
        <pt x="31" y="166" on="1"/>
        <pt x="31" y="192" on="0"/>
        <pt x="36" y="232" on="1"/>
        <pt x="48" y="313" on="0"/>
        <pt x="130" y="439" on="0"/>
        <pt x="251" y="507" on="0"/>
        <pt x="319" y="507" on="1"/>
        <pt x="402" y="507" on="0"/>
        <pt x="450" y="470" on="1"/>
        <pt x="458" y="464" on="0"/>
        <pt x="468" y="452" on="1"/>
        <pt x="471" y="453" on="0"/>
        <pt x="479" y="453" on="1"/>
        <pt x="503" y="453" on="0"/>
        <pt x="535" y="418" on="0"/>
        <pt x="531" y="388" on="1"/>
        <pt x="512" y="236" on="0"/>
        <pt x="512" y="169" on="1"/>
        <pt x="512" y="120" on="0"/>
        <pt x="536" y="77" on="0"/>
        <pt x="557" y="65" on="1"/>
        <pt x="594" y="44" on="0"/>
        <pt x="594" y="17" on="1"/>
        <pt x="594" y="2" on="0"/>
        <pt x="566" y="-20" on="0"/>
        <pt x="546" y="-20" on="1"/>
        <pt x="526" y="-20" on="0"/>
        <pt x="510" y="-16" on="1"/>
        <pt x="483" y="-50" on="0"/>
        <pt x="454" y="-109" on="0"/>
        <pt x="454" y="-136" on="1"/>
        <pt x="454" y="-173" on="0"/>
        <pt x="493" y="-173" on="1"/>
        <pt x="515" y="-173" on="0"/>
        <pt x="559" y="-159" on="1"/>
        <pt x="570" y="-156" on="0"/>
        <pt x="577" y="-156" on="1"/>
        <pt x="593" y="-156" on="0"/>
        <pt x="611" y="-176" on="0"/>
        <pt x="611" y="-191" on="1"/>
        <pt x="611" y="-218" on="0"/>
        <pt x="585" y="-237" on="1"/>
        <pt x="564" y="-252" on="0"/>
        <pt x="507" y="-269" on="0"/>
        <pt x="477" y="-269" on="1"/>
        <pt x="422" y="-269" on="0"/>
        <pt x="346" y="-210" on="0"/>
        <pt x="346" y="-152" on="1"/>
        <pt x="346" y="-105" on="0"/>
        <pt x="399" y="-10" on="0"/>
        <pt x="443" y="33" on="1"/>
        <pt x="435" y="46" on="0"/>
        <pt x="428" y="67" on="1"/>
        <pt x="419" y="97" on="0"/>
        <pt x="419" y="138" on="1"/>
        <pt x="419" y="163" on="0"/>
        <pt x="422" y="193" on="1"/>
        <pt x="401" y="148" on="0"/>
        <pt x="377" y="115" on="1"/>
        <pt x="338" y="63" on="0"/>
        <pt x="231" y="-6" on="0"/>
        <pt x="168" y="-6" on="1"/>
      </contour>
      <contour>
        <pt x="138" y="190" on="0"/>
        <pt x="138" y="170" on="1"/>
        <pt x="138" y="129" on="0"/>
        <pt x="162" y="92" on="0"/>
        <pt x="189" y="92" on="1"/>
        <pt x="217" y="92" on="0"/>
        <pt x="292" y="139" on="0"/>
        <pt x="328" y="189" on="1"/>
        <pt x="394" y="280" on="0"/>
        <pt x="425" y="395" on="1"/>
        <pt x="420" y="396" on="0"/>
        <pt x="410" y="400" on="1"/>
        <pt x="361" y="421" on="0"/>
        <pt x="327" y="421" on="1"/>
        <pt x="286" y="421" on="0"/>
        <pt x="203" y="372" on="0"/>
        <pt x="145" y="273" on="0"/>
        <pt x="139" y="201" on="1"/>
      </contour>
    </TTGlyph>
    <TTGlyph name="approxequal" xMin="46" yMin="152" xMax="552" yMax="504">
      <contour>
        <pt x="132" y="339" on="0"/>
        <pt x="95" y="339" on="1"/>
        <pt x="75" y="339" on="0"/>
        <pt x="46" y="369" on="0"/>
        <pt x="46" y="397" on="1"/>
        <pt x="52" y="445" on="0"/>
        <pt x="141" y="497" on="0"/>
        <pt x="194" y="497" on="1"/>
        <pt x="217" y="497" on="0"/>
        <pt x="261" y="485" on="0"/>
        <pt x="293" y="473" on="1"/>
        <pt x="325" y="462" on="0"/>
        <pt x="364" y="451" on="0"/>
        <pt x="385" y="451" on="1"/>
        <pt x="418" y="451" on="0"/>
        <pt x="440" y="464" on="1"/>
        <pt x="443" y="468" on="0"/>
        <pt x="463" y="492" on="0"/>
        <pt x="485" y="504" on="0"/>
        <pt x="500" y="504" on="1"/>
        <pt x="523" y="504" on="0"/>
        <pt x="552" y="476" on="0"/>
        <pt x="552" y="456" on="1"/>
        <pt x="552" y="444" on="0"/>
        <pt x="540" y="422" on="0"/>
        <pt x="528" y="414" on="1"/>
        <pt x="515" y="392" on="0"/>
        <pt x="497" y="382" on="1"/>
        <pt x="439" y="349" on="0"/>
        <pt x="380" y="349" on="1"/>
        <pt x="340" y="349" on="0"/>
        <pt x="292" y="364" on="1"/>
        <pt x="274" y="370" on="0"/>
        <pt x="256" y="379" on="1"/>
        <pt x="252" y="381" on="0"/>
        <pt x="225" y="392" on="0"/>
        <pt x="201" y="398" on="0"/>
        <pt x="190" y="398" on="1"/>
        <pt x="166" y="398" on="0"/>
        <pt x="145" y="380" on="1"/>
      </contour>
      <contour>
        <pt x="60" y="232" on="0"/>
        <pt x="106" y="279" on="0"/>
        <pt x="174" y="309" on="0"/>
        <pt x="202" y="309" on="1"/>
        <pt x="224" y="309" on="0"/>
        <pt x="258" y="296" on="0"/>
        <pt x="284" y="282" on="1"/>
        <pt x="307" y="268" on="0"/>
        <pt x="344" y="254" on="0"/>
        <pt x="366" y="254" on="1"/>
        <pt x="399" y="254" on="0"/>
        <pt x="435" y="270" on="1"/>
        <pt x="437" y="275" on="1"/>
        <pt x="455" y="299" on="0"/>
        <pt x="482" y="299" on="1"/>
        <pt x="501" y="299" on="0"/>
        <pt x="529" y="270" on="0"/>
        <pt x="529" y="247" on="1"/>
        <pt x="529" y="238" on="0"/>
        <pt x="528" y="235" on="1"/>
        <pt x="511" y="195" on="0"/>
        <pt x="415" y="152" on="0"/>
        <pt x="361" y="152" on="1"/>
        <pt x="328" y="152" on="0"/>
        <pt x="302" y="161" on="1"/>
        <pt x="287" y="167" on="0"/>
        <pt x="261" y="182" on="1"/>
        <pt x="237" y="195" on="0"/>
        <pt x="206" y="209" on="0"/>
        <pt x="195" y="209" on="1"/>
        <pt x="184" y="209" on="0"/>
        <pt x="159" y="191" on="0"/>
        <pt x="139" y="172" on="0"/>
        <pt x="135" y="168" on="1"/>
        <pt x="122" y="162" on="0"/>
        <pt x="108" y="162" on="1"/>
        <pt x="87" y="162" on="0"/>
        <pt x="60" y="189" on="0"/>
        <pt x="60" y="209" on="1"/>
      </contour>
    </TTGlyph>
    <TTGlyph name="aring" xMin="29" yMin="-6" xMax="586" yMax="842">
      <component glyphName="a.005" x="0" y="0" flags="0x400"/>
      <component glyphName="uni030A" x="-7" y="20" flags="0x404"/>
    </TTGlyph>
    <TTGlyph name="aringacute" xMin="29" yMin="-6" xMax="586" yMax="1031">
      <component glyphName="aring" x="0" y="0" flags="0x400"/>
      <component glyphName="acutecomb.case" x="161" y="101" flags="0x404"/>
    </TTGlyph>
    <TTGlyph name="arrowboth" xMin="19" yMin="159" xMax="835" yMax="540">
      <contour>
        <pt x="618" y="483" on="0"/>
        <pt x="618" y="490" on="1"/>
        <pt x="618" y="512" on="0"/>
        <pt x="645" y="540" on="0"/>
        <pt x="664" y="540" on="1"/>
        <pt x="678" y="540" on="0"/>
        <pt x="706" y="523" on="0"/>
        <pt x="714" y="506" on="1"/>
        <pt x="725" y="484" on="0"/>
        <pt x="753" y="448" on="0"/>
        <pt x="777" y="422" on="1"/>
        <pt x="807" y="388" on="1"/>
        <pt x="835" y="366" on="0"/>
        <pt x="835" y="341" on="1"/>
        <pt x="835" y="334" on="0"/>
        <pt x="832" y="325" on="1"/>
        <pt x="829" y="312" on="0"/>
        <pt x="702" y="174" on="0"/>
        <pt x="684" y="165" on="1"/>
        <pt x="669" y="159" on="0"/>
        <pt x="656" y="159" on="1"/>
        <pt x="635" y="159" on="0"/>
        <pt x="607" y="187" on="0"/>
        <pt x="607" y="206" on="1"/>
        <pt x="607" y="227" on="0"/>
        <pt x="626" y="245" on="1"/>
        <pt x="625" y="245" on="1"/>
        <pt x="641" y="261" on="1"/>
        <pt x="666" y="288" on="1"/>
        <pt x="669" y="292" on="1"/>
        <pt x="387" y="290" on="0"/>
        <pt x="246" y="290" on="1"/>
        <pt x="277" y="270" on="0"/>
        <pt x="306" y="242" on="0"/>
        <pt x="306" y="219" on="1"/>
        <pt x="306" y="199" on="0"/>
        <pt x="278" y="172" on="0"/>
        <pt x="258" y="172" on="1"/>
        <pt x="246" y="172" on="0"/>
        <pt x="227" y="183" on="0"/>
        <pt x="216" y="193" on="1"/>
        <pt x="203" y="204" on="0"/>
        <pt x="195" y="208" on="1"/>
        <pt x="155" y="226" on="1"/>
        <pt x="93" y="251" on="0"/>
        <pt x="19" y="299" on="0"/>
        <pt x="19" y="330" on="1"/>
        <pt x="19" y="356" on="0"/>
        <pt x="51" y="388" on="1"/>
        <pt x="105" y="441" on="1"/>
        <pt x="117" y="452" on="0"/>
        <pt x="137" y="478" on="1"/>
        <pt x="157" y="504" on="0"/>
        <pt x="187" y="530" on="0"/>
        <pt x="205" y="530" on="1"/>
        <pt x="224" y="530" on="0"/>
        <pt x="251" y="503" on="0"/>
        <pt x="251" y="483" on="1"/>
        <pt x="251" y="466" on="0"/>
        <pt x="231" y="434" on="0"/>
        <pt x="193" y="390" on="1"/>
        <pt x="349" y="390" on="0"/>
        <pt x="669" y="392" on="1"/>
        <pt x="635" y="437" on="0"/>
        <pt x="623" y="466" on="1"/>
      </contour>
    </TTGlyph>
    <TTGlyph name="arrowdown" xMin="226" yMin="-81" xMax="597" yMax="762">
      <contour>
        <pt x="226" y="237" on="0"/>
        <pt x="254" y="268" on="0"/>
        <pt x="273" y="268" on="1"/>
        <pt x="293" y="268" on="0"/>
        <pt x="319" y="238" on="0"/>
        <pt x="335" y="206" on="1"/>
        <pt x="353" y="172" on="0"/>
        <pt x="365" y="157" on="1"/>
        <pt x="369" y="307" on="0"/>
        <pt x="372" y="382" on="1"/>
        <pt x="379" y="568" on="0"/>
        <pt x="380" y="720" on="1"/>
        <pt x="388" y="740" on="0"/>
        <pt x="415" y="762" on="0"/>
        <pt x="431" y="762" on="1"/>
        <pt x="449" y="762" on="0"/>
        <pt x="476" y="736" on="0"/>
        <pt x="480" y="712" on="1"/>
        <pt x="479" y="567" on="0"/>
        <pt x="472" y="387" on="1"/>
        <pt x="466" y="213" on="0"/>
        <pt x="465" y="126" on="1"/>
        <pt x="470" y="134" on="0"/>
        <pt x="500" y="190" on="0"/>
        <pt x="533" y="221" on="0"/>
        <pt x="551" y="221" on="1"/>
        <pt x="570" y="221" on="0"/>
        <pt x="597" y="194" on="0"/>
        <pt x="597" y="174" on="1"/>
        <pt x="597" y="158" on="0"/>
        <pt x="576" y="115" on="0"/>
        <pt x="552" y="75" on="1"/>
        <pt x="524" y="25" on="1"/>
        <pt x="508" y="-16" on="1"/>
        <pt x="497" y="-49" on="0"/>
        <pt x="474" y="-81" on="0"/>
        <pt x="451" y="-81" on="1"/>
        <pt x="432" y="-81" on="0"/>
        <pt x="417" y="-69" on="1"/>
        <pt x="397" y="-55" on="0"/>
        <pt x="313" y="62" on="0"/>
        <pt x="234" y="188" on="0"/>
        <pt x="226" y="210" on="1"/>
      </contour>
    </TTGlyph>
</ttFont>
